<?xml version="1.0" encoding="utf-8" standalone="no"?>
<!DOCTYPE svg PUBLIC "-//W3C//DTD SVG 1.1//EN"
  "http://www.w3.org/Graphics/SVG/1.1/DTD/svg11.dtd">
<svg xmlns:xlink="http://www.w3.org/1999/xlink" width="1008pt" height="576pt" viewBox="0 0 1008 576" xmlns="http://www.w3.org/2000/svg" version="1.1">
 <metadata>
  <rdf:RDF xmlns:dc="http://purl.org/dc/elements/1.1/" xmlns:cc="http://creativecommons.org/ns#" xmlns:rdf="http://www.w3.org/1999/02/22-rdf-syntax-ns#">
   <cc:Work>
    <dc:type rdf:resource="http://purl.org/dc/dcmitype/StillImage"/>
    <dc:date>2024-12-11T21:24:07.689725</dc:date>
    <dc:format>image/svg+xml</dc:format>
    <dc:creator>
     <cc:Agent>
      <dc:title>Matplotlib v3.8.0, https://matplotlib.org/</dc:title>
     </cc:Agent>
    </dc:creator>
   </cc:Work>
  </rdf:RDF>
 </metadata>
 <defs>
  <style type="text/css">*{stroke-linejoin: round; stroke-linecap: butt}</style>
 </defs>
 <g id="figure_1">
  <g id="patch_1">
   <path d="M 0 576 
L 1008 576 
L 1008 0 
L 0 0 
z
" style="fill: #ffffff"/>
  </g>
  <g id="axes_1">
   <g id="patch_2">
    <path d="M 126 512.64 
L 907.2 512.64 
L 907.2 69.12 
L 126 69.12 
z
" style="fill: #ffffff"/>
   </g>
   <g id="PolyCollection_1">
    <defs>
     <path id="mae1682b28e" d="M 161.509091 -406.509894 
L 161.509091 -406.509894 
L 168.682645 -182.430343 
L 175.856198 -119.325759 
L 183.029752 -83.52 
L 190.203306 -117.147093 
L 197.37686 -112.722931 
L 204.550413 -116.711138 
L 211.723967 -112.858153 
L 218.897521 -119.912282 
L 226.071074 -102.417068 
L 233.244628 -115.419444 
L 240.418182 -111.927832 
L 247.591736 -119.344014 
L 254.765289 -121.726914 
L 261.938843 -115.079844 
L 269.112397 -122.254304 
L 276.28595 -113.204098 
L 283.459504 -113.096897 
L 290.633058 -113.910993 
L 297.806612 -103.773543 
L 304.980165 -113.817508 
L 312.153719 -110.480721 
L 319.327273 -107.37559 
L 326.500826 -109.254162 
L 333.67438 -115.419444 
L 340.847934 -112.858153 
L 348.021488 -105.946056 
L 355.195041 -109.732503 
L 362.368595 -108.119538 
L 369.542149 -108.119538 
L 376.715702 -113.096897 
L 383.889256 -117.238612 
L 391.06281 -111.13023 
L 398.236364 -117.753514 
L 405.409917 -111.826012 
L 412.583471 -117.753514 
L 419.757025 -113.817508 
L 426.930579 -109.911547 
L 434.104132 -110.713073 
L 441.277686 -103.611943 
L 448.45124 -111.446596 
L 455.624793 -112.822494 
L 462.798347 -117.753514 
L 469.971901 -107.784959 
L 477.145455 -119.344014 
L 484.319008 -111.559623 
L 491.492562 -112.126277 
L 498.666116 -113.333103 
L 505.839669 -117.512429 
L 513.013223 -113.204098 
L 520.186777 -112.028041 
L 527.360331 -112.406174 
L 534.533884 -108.174888 
L 541.707438 -108.885953 
L 548.880992 -104.207704 
L 556.054545 -115.419444 
L 563.228099 -119.258333 
L 570.401653 -118.869569 
L 577.575207 -108.7027 
L 584.74876 -115.419444 
L 591.922314 -112.406174 
L 599.095868 -114.05004 
L 606.269421 -105.889982 
L 613.442975 -121.225109 
L 620.616529 -111.826012 
L 627.790083 -111.44949 
L 634.963636 -111.13023 
L 642.13719 -109.732503 
L 649.310744 -113.204098 
L 656.484298 -111.927832 
L 663.657851 -117.319637 
L 670.831405 -112.126277 
L 678.004959 -115.079844 
L 685.178512 -115.079844 
L 692.352066 -113.333103 
L 699.52562 -121.680791 
L 706.699174 -115.637871 
L 713.872727 -115.079844 
L 721.046281 -117.488768 
L 728.219835 -115.079844 
L 735.393388 -115.079844 
L 742.566942 -118.444237 
L 749.740496 -111.559623 
L 756.91405 -111.323003 
L 764.087603 -116.006773 
L 771.261157 -118.869569 
L 778.434711 -118.444237 
L 785.608264 -115.079844 
L 792.781818 -112.988151 
L 799.955372 -118.869569 
L 807.128926 -112.406174 
L 814.302479 -113.817508 
L 821.476033 -122.254304 
L 828.649587 -118.734084 
L 835.82314 -111.927832 
L 842.996694 -115.637871 
L 850.170248 -115.079844 
L 857.343802 -108.187798 
L 864.517355 -115.079844 
L 871.690909 -117.753514 
L 871.690909 -128.448195 
L 871.690909 -128.448195 
L 864.517355 -147.163886 
L 857.343802 -151.382262 
L 850.170248 -133.795535 
L 842.996694 -127.890167 
L 835.82314 -142.294888 
L 828.649587 -154.204327 
L 821.476033 -139.989426 
L 814.302479 -137.731541 
L 807.128926 -139.142876 
L 799.955372 -143.374161 
L 792.781818 -149.255578 
L 785.608264 -144.490216 
L 778.434711 -138.452153 
L 771.261157 -143.374161 
L 764.087603 -138.215946 
L 756.91405 -132.205035 
L 749.740496 -129.294745 
L 742.566942 -138.452153 
L 735.393388 -133.795535 
L 728.219835 -144.490216 
L 721.046281 -144.754961 
L 713.872727 -144.490216 
L 706.699174 -127.890167 
L 699.52562 -143.236609 
L 692.352066 -135.542276 
L 685.178512 -131.121865 
L 678.004959 -144.490216 
L 670.831405 -163.485804 
L 663.657851 -134.229412 
L 656.484298 -142.294888 
L 649.310744 -130.32394 
L 642.13719 -133.795535 
L 634.963636 -140.418819 
L 627.790083 -172.183602 
L 620.616529 -137.049367 
L 613.442975 -138.344951 
L 606.269421 -137.638057 
L 599.095868 -142.846349 
L 591.922314 -139.142876 
L 584.74876 -136.129605 
L 577.575207 -137.499009 
L 570.401653 -143.374161 
L 563.228099 -151.006407 
L 556.054545 -136.129605 
L 548.880992 -144.667675 
L 541.707438 -126.621075 
L 534.533884 -132.67948 
L 527.360331 -139.142876 
L 520.186777 -150.215689 
L 513.013223 -130.32394 
L 505.839669 -147.404971 
L 498.666116 -135.542276 
L 491.492562 -163.485804 
L 484.319008 -129.294745 
L 477.145455 -140.226046 
L 469.971901 -146.43776 
L 462.798347 -136.469205 
L 455.624793 -146.747566 
L 448.45124 -134.755113 
L 441.277686 -150.610776 
L 434.104132 -146.183316 
L 426.930579 -149.658512 
L 419.757025 -137.731541 
L 412.583471 -141.816546 
L 405.409917 -137.049367 
L 398.236364 -136.469205 
L 391.06281 -140.418819 
L 383.889256 -131.636767 
L 376.715702 -133.104812 
L 369.542149 -140.755841 
L 362.368595 -140.755841 
L 355.195041 -147.163886 
L 348.021488 -145.602993 
L 340.847934 -144.038237 
L 333.67438 -136.129605 
L 326.500826 -139.621217 
L 319.327273 -152.19447 
L 312.153719 -138.394658 
L 304.980165 -137.731541 
L 297.806612 -174.512208 
L 290.633058 -145.659067 
L 283.459504 -133.104812 
L 276.28595 -130.32394 
L 269.112397 -139.989426 
L 261.938843 -131.121865 
L 254.765289 -169.927188 
L 247.591736 -140.226046 
L 240.418182 -142.294888 
L 233.244628 -136.129605 
L 226.071074 -162.500332 
L 218.897521 -134.310437 
L 211.723967 -144.038237 
L 204.550413 -158.900942 
L 197.37686 -157.54181 
L 190.203306 -153.117647 
L 183.029752 -192.092081 
L 175.856198 -217.780736 
L 168.682645 -336.485725 
L 161.509091 -406.509894 
z
" style="stroke: #0000ff; stroke-opacity: 0.2"/>
    </defs>
    <g clip-path="url(#p5944e324e0)">
     <use xlink:href="#mae1682b28e" x="0" y="576" style="fill: #0000ff; fill-opacity: 0.2; stroke: #0000ff; stroke-opacity: 0.2"/>
    </g>
   </g>
   <g id="PolyCollection_2">
    <defs>
     <path id="m25312d4261" d="M 161.509091 -486.72 
L 161.509091 -486.72 
L 168.682645 -228.676847 
L 175.856198 -157.315174 
L 183.029752 -133.217024 
L 190.203306 -116.980294 
L 197.37686 -107.784959 
L 204.550413 -115.880315 
L 211.723967 -110.480721 
L 218.897521 -117.753514 
L 226.071074 -122.071051 
L 233.244628 -113.154392 
L 240.418182 -115.637871 
L 247.591736 -115.079844 
L 254.765289 -115.661822 
L 261.938843 -117.753514 
L 269.112397 -113.096897 
L 276.28595 -118.444237 
L 283.459504 -120.427184 
L 290.633058 -116.350003 
L 297.806612 -117.488768 
L 304.980165 -110.122587 
L 312.153719 -107.058833 
L 319.327273 -109.732503 
L 326.500826 -116.793937 
L 333.67438 -123.849072 
L 340.847934 -120.133689 
L 348.021488 -116.773346 
L 355.195041 -113.817508 
L 362.368595 -113.154392 
L 369.542149 -115.079844 
L 376.715702 -113.096897 
L 383.889256 -115.079844 
L 391.06281 -111.826012 
L 398.236364 -116.006773 
L 405.409917 -110.122587 
L 412.583471 -114.499683 
L 419.757025 -117.753514 
L 426.930579 -115.349939 
L 434.104132 -114.05004 
L 441.277686 -117.319637 
L 448.45124 -115.079844 
L 455.624793 -118.869569 
L 462.798347 -111.323003 
L 469.971901 -113.333103 
L 477.145455 -115.637871 
L 484.319008 -108.86475 
L 491.492562 -111.26679 
L 498.666116 -120.427184 
L 505.839669 -114.05004 
L 513.013223 -117.319637 
L 520.186777 -120.427184 
L 527.360331 -112.406174 
L 534.533884 -111.323003 
L 541.707438 -107.058833 
L 548.880992 -116.006773 
L 556.054545 -111.927832 
L 563.228099 -111.559623 
L 570.401653 -118.169834 
L 577.575207 -120.427184 
L 584.74876 -115.349939 
L 591.922314 -117.488768 
L 599.095868 -113.333103 
L 606.269421 -109.956878 
L 613.442975 -111.927832 
L 620.616529 -119.344014 
L 627.790083 -116.793937 
L 634.963636 -110.002599 
L 642.13719 -115.286742 
L 649.310744 -116.006773 
L 656.484298 -114.499683 
L 663.657851 -109.400866 
L 670.831405 -111.113949 
L 678.004959 -114.499683 
L 685.178512 -115.079844 
L 692.352066 -116.006773 
L 699.52562 -109.254162 
L 706.699174 -108.7027 
L 713.872727 -110.002599 
L 721.046281 -113.204098 
L 728.219835 -108.119538 
L 735.393388 -115.079844 
L 742.566942 -109.732503 
L 749.740496 -121.543239 
L 756.91405 -110.122587 
L 764.087603 -114.499683 
L 771.261157 -107.576861 
L 778.434711 -113.910993 
L 785.608264 -112.988151 
L 792.781818 -113.204098 
L 799.955372 -110.002599 
L 807.128926 -111.799753 
L 814.302479 -115.349939 
L 821.476033 -102.981653 
L 828.649587 -115.228842 
L 835.82314 -117.753514 
L 842.996694 -113.154392 
L 850.170248 -119.344014 
L 857.343802 -113.878057 
L 864.517355 -108.31244 
L 871.690909 -109.732503 
L 871.690909 -133.795535 
L 871.690909 -133.795535 
L 864.517355 -129.868258 
L 857.343802 -126.976312 
L 850.170248 -140.226046 
L 842.996694 -141.068328 
L 835.82314 -141.816546 
L 828.649587 -163.056909 
L 821.476033 -129.851705 
L 814.302479 -141.54645 
L 807.128926 -147.770307 
L 799.955372 -136.19911 
L 792.781818 -130.32394 
L 785.608264 -149.255578 
L 778.434711 -145.659067 
L 771.261157 -176.05623 
L 764.087603 -139.723037 
L 756.91405 -128.058112 
L 749.740496 -146.047831 
L 742.566942 -131.121865 
L 735.393388 -131.121865 
L 728.219835 -140.755841 
L 721.046281 -130.32394 
L 713.872727 -136.19911 
L 706.699174 -137.499009 
L 699.52562 -139.621217 
L 692.352066 -138.215946 
L 685.178512 -147.163886 
L 678.004959 -139.723037 
L 670.831405 -151.129781 
L 663.657851 -152.842864 
L 656.484298 -139.723037 
L 649.310744 -138.215946 
L 642.13719 -149.630658 
L 634.963636 -136.19911 
L 627.790083 -140.102453 
L 620.616529 -140.226046 
L 613.442975 -142.294888 
L 606.269421 -141.592171 
L 599.095868 -135.542276 
L 591.922314 -144.754961 
L 584.74876 -141.54645 
L 577.575207 -136.469205 
L 570.401653 -152.094906 
L 563.228099 -129.294745 
L 556.054545 -142.294888 
L 548.880992 -138.215946 
L 541.707438 -141.816546 
L 534.533884 -132.205035 
L 527.360331 -152.511226 
L 520.186777 -141.816546 
L 513.013223 -134.229412 
L 505.839669 -142.846349 
L 498.666116 -141.816546 
L 491.492562 -156.324281 
L 484.319008 -142.6843 
L 477.145455 -127.890167 
L 469.971901 -135.542276 
L 462.798347 -132.205035 
L 455.624793 -143.374161 
L 448.45124 -171.226918 
L 441.277686 -134.229412 
L 434.104132 -142.846349 
L 426.930579 -141.54645 
L 419.757025 -136.469205 
L 412.583471 -139.723037 
L 405.409917 -128.058112 
L 398.236364 -138.215946 
L 391.06281 -137.049367 
L 383.889256 -131.121865 
L 376.715702 -133.104812 
L 369.542149 -133.795535 
L 362.368595 -141.068328 
L 355.195041 -137.731541 
L 348.021488 -161.512405 
L 340.847934 -144.783711 
L 333.67438 -151.763009 
L 326.500826 -140.102453 
L 319.327273 -133.795535 
L 312.153719 -141.816546 
L 304.980165 -128.058112 
L 297.806612 -144.754961 
L 290.633058 -143.220056 
L 283.459504 -136.469205 
L 276.28595 -138.452153 
L 269.112397 -133.104812 
L 261.938843 -155.184897 
L 254.765289 -151.929249 
L 247.591736 -144.490216 
L 240.418182 -127.890167 
L 233.244628 -141.068328 
L 226.071074 -150.86736 
L 218.897521 -155.184897 
L 211.723967 -138.394658 
L 204.550413 -159.731766 
L 197.37686 -146.43776 
L 190.203306 -163.979127 
L 183.029752 -257.362875 
L 175.856198 -289.411799 
L 168.682645 -386.491348 
L 161.509091 -486.72 
z
" style="stroke: #ffa500; stroke-opacity: 0.2"/>
    </defs>
    <g clip-path="url(#p5944e324e0)">
     <use xlink:href="#m25312d4261" x="0" y="576" style="fill: #ffa500; fill-opacity: 0.2; stroke: #ffa500; stroke-opacity: 0.2"/>
    </g>
   </g>
   <g id="PolyCollection_3">
    <defs>
     <path id="m43f59365d2" d="M 161.509091 -299.563087 
L 161.509091 -299.563087 
L 168.682645 -135.460817 
L 175.856198 -125.061994 
L 183.029752 -113.38155 
L 190.203306 -116.321353 
L 197.37686 -115.258888 
L 204.550413 -111.927832 
L 211.723967 -118.760217 
L 218.897521 -121.680791 
L 226.071074 -114.275777 
L 233.244628 -109.890326 
L 240.418182 -116.350003 
L 247.591736 -106.794088 
L 254.765289 -111.559623 
L 261.938843 -109.911547 
L 269.112397 -116.350003 
L 276.28595 -117.238612 
L 283.459504 -116.235499 
L 290.633058 -115.079844 
L 297.806612 -109.732503 
L 304.980165 -117.753514 
L 312.153719 -115.079844 
L 319.327273 -113.333103 
L 326.500826 -113.204098 
L 333.67438 -114.499683 
L 340.847934 -113.910993 
L 348.021488 -117.238612 
L 355.195041 -113.817508 
L 362.368595 -103.943603 
L 369.542149 -113.333103 
L 376.715702 -116.350003 
L 383.889256 -117.488768 
L 391.06281 -111.826012 
L 398.236364 -120.427184 
L 405.409917 -109.911547 
L 412.583471 -110.793208 
L 419.757025 -112.858153 
L 426.930579 -117.753514 
L 434.104132 -113.096897 
L 441.277686 -113.154392 
L 448.45124 -110.122587 
L 455.624793 -104.925354 
L 462.798347 -99.545152 
L 469.971901 -118.444237 
L 477.145455 -117.512429 
L 484.319008 -118.444237 
L 491.492562 -108.328993 
L 498.666116 -111.927832 
L 505.839669 -107.645666 
L 513.013223 -113.878057 
L 520.186777 -109.732503 
L 527.360331 -107.92222 
L 534.533884 -114.275777 
L 541.707438 -111.826012 
L 548.880992 -112.988151 
L 556.054545 -107.62809 
L 563.228099 -117.753514 
L 570.401653 -109.956878 
L 577.575207 -120.427184 
L 584.74876 -115.079844 
L 591.922314 -112.406174 
L 599.095868 -115.079844 
L 606.269421 -111.826012 
L 613.442975 -118.734084 
L 620.616529 -111.826012 
L 627.790083 -115.419444 
L 634.963636 -113.333103 
L 642.13719 -117.753514 
L 649.310744 -112.406174 
L 656.484298 -114.002023 
L 663.657851 -113.333103 
L 670.831405 -111.826012 
L 678.004959 -117.512429 
L 685.178512 -111.927832 
L 692.352066 -117.238612 
L 699.52562 -117.319637 
L 706.699174 -111.323003 
L 713.872727 -118.734084 
L 721.046281 -115.419444 
L 728.219835 -110.290531 
L 735.393388 -116.006773 
L 742.566942 -109.732503 
L 749.740496 -111.559623 
L 756.91405 -110.480721 
L 764.087603 -108.31244 
L 771.261157 -119.77214 
L 778.434711 -116.006773 
L 785.608264 -111.13023 
L 792.781818 -110.122587 
L 799.955372 -111.826012 
L 807.128926 -109.732503 
L 814.302479 -114.05004 
L 821.476033 -115.349939 
L 828.649587 -120.427184 
L 835.82314 -111.181001 
L 842.996694 -113.333103 
L 850.170248 -111.323003 
L 857.343802 -117.753514 
L 864.517355 -116.006773 
L 871.690909 -115.637871 
L 871.690909 -127.890167 
L 871.690909 -127.890167 
L 864.517355 -138.215946 
L 857.343802 -136.469205 
L 850.170248 -132.205035 
L 842.996694 -135.542276 
L 835.82314 -159.08374 
L 828.649587 -136.469205 
L 821.476033 -141.54645 
L 814.302479 -142.846349 
L 807.128926 -147.163886 
L 799.955372 -137.049367 
L 792.781818 -128.058112 
L 785.608264 -140.418819 
L 778.434711 -138.215946 
L 771.261157 -153.16627 
L 764.087603 -129.868258 
L 756.91405 -138.394658 
L 749.740496 -129.294745 
L 742.566942 -131.121865 
L 735.393388 -138.215946 
L 728.219835 -122.542827 
L 721.046281 -136.129605 
L 713.872727 -154.204327 
L 706.699174 -132.205035 
L 699.52562 -134.229412 
L 692.352066 -131.636767 
L 685.178512 -142.294888 
L 678.004959 -147.404971 
L 670.831405 -137.049367 
L 663.657851 -135.542276 
L 656.484298 -148.241707 
L 649.310744 -125.774525 
L 642.13719 -136.469205 
L 634.963636 -135.542276 
L 627.790083 -136.129605 
L 620.616529 -137.049367 
L 613.442975 -154.204327 
L 606.269421 -137.049367 
L 599.095868 -144.490216 
L 591.922314 -139.142876 
L 584.74876 -133.795535 
L 577.575207 -141.816546 
L 570.401653 -141.592171 
L 563.228099 -141.816546 
L 556.054545 -157.28931 
L 548.880992 -149.255578 
L 541.707438 -137.049367 
L 534.533884 -150.641623 
L 527.360331 -165.016191 
L 520.186777 -147.163886 
L 513.013223 -126.976312 
L 505.839669 -167.966415 
L 498.666116 -142.294888 
L 491.492562 -135.199046 
L 484.319008 -138.452153 
L 477.145455 -147.404971 
L 469.971901 -138.452153 
L 462.798347 -141.309216 
L 455.624793 -157.318376 
L 448.45124 -128.058112 
L 441.277686 -141.068328 
L 434.104132 -133.104812 
L 426.930579 -136.469205 
L 419.757025 -144.038237 
L 412.583471 -143.429512 
L 405.409917 -149.658512 
L 398.236364 -141.816546 
L 391.06281 -137.049367 
L 383.889256 -144.754961 
L 376.715702 -143.220056 
L 369.542149 -135.542276 
L 362.368595 -152.952787 
L 355.195041 -137.731541 
L 348.021488 -131.636767 
L 340.847934 -145.659067 
L 333.67438 -139.723037 
L 326.500826 -130.32394 
L 319.327273 -135.542276 
L 312.153719 -133.795535 
L 304.980165 -141.816546 
L 297.806612 -147.163886 
L 290.633058 -133.795535 
L 283.459504 -146.008231 
L 276.28595 -131.636767 
L 269.112397 -143.220056 
L 261.938843 -149.658512 
L 254.765289 -129.294745 
L 247.591736 -134.060281 
L 240.418182 -143.220056 
L 233.244628 -155.027074 
L 226.071074 -150.641623 
L 218.897521 -143.236609 
L 211.723967 -146.157183 
L 204.550413 -142.294888 
L 197.37686 -155.005853 
L 190.203306 -172.659079 
L 183.029752 -207.682924 
L 175.856198 -196.00248 
L 168.682645 -271.161103 
L 161.509091 -299.563087 
z
" style="stroke: #008000; stroke-opacity: 0.2"/>
    </defs>
    <g clip-path="url(#p5944e324e0)">
     <use xlink:href="#m43f59365d2" x="0" y="576" style="fill: #008000; fill-opacity: 0.2; stroke: #008000; stroke-opacity: 0.2"/>
    </g>
   </g>
   <g id="matplotlib.axis_1">
    <g id="xtick_1">
     <g id="line2d_1">
      <path d="M 161.509091 512.64 
L 161.509091 69.12 
" clip-path="url(#p5944e324e0)" style="fill: none; stroke: #b0b0b0; stroke-width: 0.8; stroke-linecap: square"/>
     </g>
     <g id="line2d_2">
      <defs>
       <path id="mf823c0f33b" d="M 0 0 
L 0 3.5 
" style="stroke: #000000; stroke-width: 0.8"/>
      </defs>
      <g>
       <use xlink:href="#mf823c0f33b" x="161.509091" y="512.64" style="stroke: #000000; stroke-width: 0.8"/>
      </g>
     </g>
     <g id="text_1">
      <!-- 0 -->
      <g transform="translate(155.782841 533.317188) scale(0.18 -0.18)">
       <defs>
        <path id="DejaVuSans-30" d="M 2034 4250 
Q 1547 4250 1301 3770 
Q 1056 3291 1056 2328 
Q 1056 1369 1301 889 
Q 1547 409 2034 409 
Q 2525 409 2770 889 
Q 3016 1369 3016 2328 
Q 3016 3291 2770 3770 
Q 2525 4250 2034 4250 
z
M 2034 4750 
Q 2819 4750 3233 4129 
Q 3647 3509 3647 2328 
Q 3647 1150 3233 529 
Q 2819 -91 2034 -91 
Q 1250 -91 836 529 
Q 422 1150 422 2328 
Q 422 3509 836 4129 
Q 1250 4750 2034 4750 
z
" transform="scale(0.015625)"/>
       </defs>
       <use xlink:href="#DejaVuSans-30"/>
      </g>
     </g>
    </g>
    <g id="xtick_2">
     <g id="line2d_3">
      <path d="M 232.527273 512.64 
L 232.527273 69.12 
" clip-path="url(#p5944e324e0)" style="fill: none; stroke: #b0b0b0; stroke-width: 0.8; stroke-linecap: square"/>
     </g>
     <g id="line2d_4">
      <g>
       <use xlink:href="#mf823c0f33b" x="232.527273" y="512.64" style="stroke: #000000; stroke-width: 0.8"/>
      </g>
     </g>
     <g id="text_2">
      <!-- 5 -->
      <g transform="translate(226.801023 533.317188) scale(0.18 -0.18)">
       <defs>
        <path id="DejaVuSans-35" d="M 691 4666 
L 3169 4666 
L 3169 4134 
L 1269 4134 
L 1269 2991 
Q 1406 3038 1543 3061 
Q 1681 3084 1819 3084 
Q 2600 3084 3056 2656 
Q 3513 2228 3513 1497 
Q 3513 744 3044 326 
Q 2575 -91 1722 -91 
Q 1428 -91 1123 -41 
Q 819 9 494 109 
L 494 744 
Q 775 591 1075 516 
Q 1375 441 1709 441 
Q 2250 441 2565 725 
Q 2881 1009 2881 1497 
Q 2881 1984 2565 2268 
Q 2250 2553 1709 2553 
Q 1456 2553 1204 2497 
Q 953 2441 691 2322 
L 691 4666 
z
" transform="scale(0.015625)"/>
       </defs>
       <use xlink:href="#DejaVuSans-35"/>
      </g>
     </g>
    </g>
    <g id="xtick_3">
     <g id="line2d_5">
      <path d="M 303.545455 512.64 
L 303.545455 69.12 
" clip-path="url(#p5944e324e0)" style="fill: none; stroke: #b0b0b0; stroke-width: 0.8; stroke-linecap: square"/>
     </g>
     <g id="line2d_6">
      <g>
       <use xlink:href="#mf823c0f33b" x="303.545455" y="512.64" style="stroke: #000000; stroke-width: 0.8"/>
      </g>
     </g>
     <g id="text_3">
      <!-- 10 -->
      <g transform="translate(292.092955 533.317188) scale(0.18 -0.18)">
       <defs>
        <path id="DejaVuSans-31" d="M 794 531 
L 1825 531 
L 1825 4091 
L 703 3866 
L 703 4441 
L 1819 4666 
L 2450 4666 
L 2450 531 
L 3481 531 
L 3481 0 
L 794 0 
L 794 531 
z
" transform="scale(0.015625)"/>
       </defs>
       <use xlink:href="#DejaVuSans-31"/>
       <use xlink:href="#DejaVuSans-30" x="63.623047"/>
      </g>
     </g>
    </g>
    <g id="xtick_4">
     <g id="line2d_7">
      <path d="M 374.563636 512.64 
L 374.563636 69.12 
" clip-path="url(#p5944e324e0)" style="fill: none; stroke: #b0b0b0; stroke-width: 0.8; stroke-linecap: square"/>
     </g>
     <g id="line2d_8">
      <g>
       <use xlink:href="#mf823c0f33b" x="374.563636" y="512.64" style="stroke: #000000; stroke-width: 0.8"/>
      </g>
     </g>
     <g id="text_4">
      <!-- 15 -->
      <g transform="translate(363.111136 533.317188) scale(0.18 -0.18)">
       <use xlink:href="#DejaVuSans-31"/>
       <use xlink:href="#DejaVuSans-35" x="63.623047"/>
      </g>
     </g>
    </g>
    <g id="xtick_5">
     <g id="line2d_9">
      <path d="M 445.581818 512.64 
L 445.581818 69.12 
" clip-path="url(#p5944e324e0)" style="fill: none; stroke: #b0b0b0; stroke-width: 0.8; stroke-linecap: square"/>
     </g>
     <g id="line2d_10">
      <g>
       <use xlink:href="#mf823c0f33b" x="445.581818" y="512.64" style="stroke: #000000; stroke-width: 0.8"/>
      </g>
     </g>
     <g id="text_5">
      <!-- 20 -->
      <g transform="translate(434.129318 533.317188) scale(0.18 -0.18)">
       <defs>
        <path id="DejaVuSans-32" d="M 1228 531 
L 3431 531 
L 3431 0 
L 469 0 
L 469 531 
Q 828 903 1448 1529 
Q 2069 2156 2228 2338 
Q 2531 2678 2651 2914 
Q 2772 3150 2772 3378 
Q 2772 3750 2511 3984 
Q 2250 4219 1831 4219 
Q 1534 4219 1204 4116 
Q 875 4013 500 3803 
L 500 4441 
Q 881 4594 1212 4672 
Q 1544 4750 1819 4750 
Q 2544 4750 2975 4387 
Q 3406 4025 3406 3419 
Q 3406 3131 3298 2873 
Q 3191 2616 2906 2266 
Q 2828 2175 2409 1742 
Q 1991 1309 1228 531 
z
" transform="scale(0.015625)"/>
       </defs>
       <use xlink:href="#DejaVuSans-32"/>
       <use xlink:href="#DejaVuSans-30" x="63.623047"/>
      </g>
     </g>
    </g>
    <g id="xtick_6">
     <g id="line2d_11">
      <path d="M 516.6 512.64 
L 516.6 69.12 
" clip-path="url(#p5944e324e0)" style="fill: none; stroke: #b0b0b0; stroke-width: 0.8; stroke-linecap: square"/>
     </g>
     <g id="line2d_12">
      <g>
       <use xlink:href="#mf823c0f33b" x="516.6" y="512.64" style="stroke: #000000; stroke-width: 0.8"/>
      </g>
     </g>
     <g id="text_6">
      <!-- 25 -->
      <g transform="translate(505.1475 533.317188) scale(0.18 -0.18)">
       <use xlink:href="#DejaVuSans-32"/>
       <use xlink:href="#DejaVuSans-35" x="63.623047"/>
      </g>
     </g>
    </g>
    <g id="xtick_7">
     <g id="line2d_13">
      <path d="M 587.618182 512.64 
L 587.618182 69.12 
" clip-path="url(#p5944e324e0)" style="fill: none; stroke: #b0b0b0; stroke-width: 0.8; stroke-linecap: square"/>
     </g>
     <g id="line2d_14">
      <g>
       <use xlink:href="#mf823c0f33b" x="587.618182" y="512.64" style="stroke: #000000; stroke-width: 0.8"/>
      </g>
     </g>
     <g id="text_7">
      <!-- 30 -->
      <g transform="translate(576.165682 533.317188) scale(0.18 -0.18)">
       <defs>
        <path id="DejaVuSans-33" d="M 2597 2516 
Q 3050 2419 3304 2112 
Q 3559 1806 3559 1356 
Q 3559 666 3084 287 
Q 2609 -91 1734 -91 
Q 1441 -91 1130 -33 
Q 819 25 488 141 
L 488 750 
Q 750 597 1062 519 
Q 1375 441 1716 441 
Q 2309 441 2620 675 
Q 2931 909 2931 1356 
Q 2931 1769 2642 2001 
Q 2353 2234 1838 2234 
L 1294 2234 
L 1294 2753 
L 1863 2753 
Q 2328 2753 2575 2939 
Q 2822 3125 2822 3475 
Q 2822 3834 2567 4026 
Q 2313 4219 1838 4219 
Q 1578 4219 1281 4162 
Q 984 4106 628 3988 
L 628 4550 
Q 988 4650 1302 4700 
Q 1616 4750 1894 4750 
Q 2613 4750 3031 4423 
Q 3450 4097 3450 3541 
Q 3450 3153 3228 2886 
Q 3006 2619 2597 2516 
z
" transform="scale(0.015625)"/>
       </defs>
       <use xlink:href="#DejaVuSans-33"/>
       <use xlink:href="#DejaVuSans-30" x="63.623047"/>
      </g>
     </g>
    </g>
    <g id="xtick_8">
     <g id="line2d_15">
      <path d="M 658.636364 512.64 
L 658.636364 69.12 
" clip-path="url(#p5944e324e0)" style="fill: none; stroke: #b0b0b0; stroke-width: 0.8; stroke-linecap: square"/>
     </g>
     <g id="line2d_16">
      <g>
       <use xlink:href="#mf823c0f33b" x="658.636364" y="512.64" style="stroke: #000000; stroke-width: 0.8"/>
      </g>
     </g>
     <g id="text_8">
      <!-- 35 -->
      <g transform="translate(647.183864 533.317188) scale(0.18 -0.18)">
       <use xlink:href="#DejaVuSans-33"/>
       <use xlink:href="#DejaVuSans-35" x="63.623047"/>
      </g>
     </g>
    </g>
    <g id="xtick_9">
     <g id="line2d_17">
      <path d="M 729.654545 512.64 
L 729.654545 69.12 
" clip-path="url(#p5944e324e0)" style="fill: none; stroke: #b0b0b0; stroke-width: 0.8; stroke-linecap: square"/>
     </g>
     <g id="line2d_18">
      <g>
       <use xlink:href="#mf823c0f33b" x="729.654545" y="512.64" style="stroke: #000000; stroke-width: 0.8"/>
      </g>
     </g>
     <g id="text_9">
      <!-- 40 -->
      <g transform="translate(718.202045 533.317188) scale(0.18 -0.18)">
       <defs>
        <path id="DejaVuSans-34" d="M 2419 4116 
L 825 1625 
L 2419 1625 
L 2419 4116 
z
M 2253 4666 
L 3047 4666 
L 3047 1625 
L 3713 1625 
L 3713 1100 
L 3047 1100 
L 3047 0 
L 2419 0 
L 2419 1100 
L 313 1100 
L 313 1709 
L 2253 4666 
z
" transform="scale(0.015625)"/>
       </defs>
       <use xlink:href="#DejaVuSans-34"/>
       <use xlink:href="#DejaVuSans-30" x="63.623047"/>
      </g>
     </g>
    </g>
    <g id="xtick_10">
     <g id="line2d_19">
      <path d="M 800.672727 512.64 
L 800.672727 69.12 
" clip-path="url(#p5944e324e0)" style="fill: none; stroke: #b0b0b0; stroke-width: 0.8; stroke-linecap: square"/>
     </g>
     <g id="line2d_20">
      <g>
       <use xlink:href="#mf823c0f33b" x="800.672727" y="512.64" style="stroke: #000000; stroke-width: 0.8"/>
      </g>
     </g>
     <g id="text_10">
      <!-- 45 -->
      <g transform="translate(789.220227 533.317188) scale(0.18 -0.18)">
       <use xlink:href="#DejaVuSans-34"/>
       <use xlink:href="#DejaVuSans-35" x="63.623047"/>
      </g>
     </g>
    </g>
    <g id="xtick_11">
     <g id="line2d_21">
      <path d="M 871.690909 512.64 
L 871.690909 69.12 
" clip-path="url(#p5944e324e0)" style="fill: none; stroke: #b0b0b0; stroke-width: 0.8; stroke-linecap: square"/>
     </g>
     <g id="line2d_22">
      <g>
       <use xlink:href="#mf823c0f33b" x="871.690909" y="512.64" style="stroke: #000000; stroke-width: 0.8"/>
      </g>
     </g>
     <g id="text_11">
      <!-- 50 -->
      <g transform="translate(860.238409 533.317188) scale(0.18 -0.18)">
       <use xlink:href="#DejaVuSans-35"/>
       <use xlink:href="#DejaVuSans-30" x="63.623047"/>
      </g>
     </g>
    </g>
    <g id="text_12">
     <!-- Time (ns) -->
     <g transform="translate(474.304219 554.737813) scale(0.18 -0.18)">
      <defs>
       <path id="DejaVuSans-54" d="M -19 4666 
L 3928 4666 
L 3928 4134 
L 2272 4134 
L 2272 0 
L 1638 0 
L 1638 4134 
L -19 4134 
L -19 4666 
z
" transform="scale(0.015625)"/>
       <path id="DejaVuSans-69" d="M 603 3500 
L 1178 3500 
L 1178 0 
L 603 0 
L 603 3500 
z
M 603 4863 
L 1178 4863 
L 1178 4134 
L 603 4134 
L 603 4863 
z
" transform="scale(0.015625)"/>
       <path id="DejaVuSans-6d" d="M 3328 2828 
Q 3544 3216 3844 3400 
Q 4144 3584 4550 3584 
Q 5097 3584 5394 3201 
Q 5691 2819 5691 2113 
L 5691 0 
L 5113 0 
L 5113 2094 
Q 5113 2597 4934 2840 
Q 4756 3084 4391 3084 
Q 3944 3084 3684 2787 
Q 3425 2491 3425 1978 
L 3425 0 
L 2847 0 
L 2847 2094 
Q 2847 2600 2669 2842 
Q 2491 3084 2119 3084 
Q 1678 3084 1418 2786 
Q 1159 2488 1159 1978 
L 1159 0 
L 581 0 
L 581 3500 
L 1159 3500 
L 1159 2956 
Q 1356 3278 1631 3431 
Q 1906 3584 2284 3584 
Q 2666 3584 2933 3390 
Q 3200 3197 3328 2828 
z
" transform="scale(0.015625)"/>
       <path id="DejaVuSans-65" d="M 3597 1894 
L 3597 1613 
L 953 1613 
Q 991 1019 1311 708 
Q 1631 397 2203 397 
Q 2534 397 2845 478 
Q 3156 559 3463 722 
L 3463 178 
Q 3153 47 2828 -22 
Q 2503 -91 2169 -91 
Q 1331 -91 842 396 
Q 353 884 353 1716 
Q 353 2575 817 3079 
Q 1281 3584 2069 3584 
Q 2775 3584 3186 3129 
Q 3597 2675 3597 1894 
z
M 3022 2063 
Q 3016 2534 2758 2815 
Q 2500 3097 2075 3097 
Q 1594 3097 1305 2825 
Q 1016 2553 972 2059 
L 3022 2063 
z
" transform="scale(0.015625)"/>
       <path id="DejaVuSans-20" transform="scale(0.015625)"/>
       <path id="DejaVuSans-28" d="M 1984 4856 
Q 1566 4138 1362 3434 
Q 1159 2731 1159 2009 
Q 1159 1288 1364 580 
Q 1569 -128 1984 -844 
L 1484 -844 
Q 1016 -109 783 600 
Q 550 1309 550 2009 
Q 550 2706 781 3412 
Q 1013 4119 1484 4856 
L 1984 4856 
z
" transform="scale(0.015625)"/>
       <path id="DejaVuSans-6e" d="M 3513 2113 
L 3513 0 
L 2938 0 
L 2938 2094 
Q 2938 2591 2744 2837 
Q 2550 3084 2163 3084 
Q 1697 3084 1428 2787 
Q 1159 2491 1159 1978 
L 1159 0 
L 581 0 
L 581 3500 
L 1159 3500 
L 1159 2956 
Q 1366 3272 1645 3428 
Q 1925 3584 2291 3584 
Q 2894 3584 3203 3211 
Q 3513 2838 3513 2113 
z
" transform="scale(0.015625)"/>
       <path id="DejaVuSans-73" d="M 2834 3397 
L 2834 2853 
Q 2591 2978 2328 3040 
Q 2066 3103 1784 3103 
Q 1356 3103 1142 2972 
Q 928 2841 928 2578 
Q 928 2378 1081 2264 
Q 1234 2150 1697 2047 
L 1894 2003 
Q 2506 1872 2764 1633 
Q 3022 1394 3022 966 
Q 3022 478 2636 193 
Q 2250 -91 1575 -91 
Q 1294 -91 989 -36 
Q 684 19 347 128 
L 347 722 
Q 666 556 975 473 
Q 1284 391 1588 391 
Q 1994 391 2212 530 
Q 2431 669 2431 922 
Q 2431 1156 2273 1281 
Q 2116 1406 1581 1522 
L 1381 1569 
Q 847 1681 609 1914 
Q 372 2147 372 2553 
Q 372 3047 722 3315 
Q 1072 3584 1716 3584 
Q 2034 3584 2315 3537 
Q 2597 3491 2834 3397 
z
" transform="scale(0.015625)"/>
       <path id="DejaVuSans-29" d="M 513 4856 
L 1013 4856 
Q 1481 4119 1714 3412 
Q 1947 2706 1947 2009 
Q 1947 1309 1714 600 
Q 1481 -109 1013 -844 
L 513 -844 
Q 928 -128 1133 580 
Q 1338 1288 1338 2009 
Q 1338 2731 1133 3434 
Q 928 4138 513 4856 
z
" transform="scale(0.015625)"/>
      </defs>
      <use xlink:href="#DejaVuSans-54"/>
      <use xlink:href="#DejaVuSans-69" x="57.958984"/>
      <use xlink:href="#DejaVuSans-6d" x="85.742188"/>
      <use xlink:href="#DejaVuSans-65" x="183.154297"/>
      <use xlink:href="#DejaVuSans-20" x="244.677734"/>
      <use xlink:href="#DejaVuSans-28" x="276.464844"/>
      <use xlink:href="#DejaVuSans-6e" x="315.478516"/>
      <use xlink:href="#DejaVuSans-73" x="378.857422"/>
      <use xlink:href="#DejaVuSans-29" x="430.957031"/>
     </g>
    </g>
   </g>
   <g id="matplotlib.axis_2">
    <g id="ytick_1">
     <g id="line2d_23">
      <path d="M 126 490.330528 
L 907.2 490.330528 
" clip-path="url(#p5944e324e0)" style="fill: none; stroke: #b0b0b0; stroke-width: 0.8; stroke-linecap: square"/>
     </g>
     <g id="line2d_24">
      <defs>
       <path id="maf961e8ccd" d="M 0 0 
L -3.5 0 
" style="stroke: #000000; stroke-width: 0.8"/>
      </defs>
      <g>
       <use xlink:href="#maf961e8ccd" x="126" y="490.330528" style="stroke: #000000; stroke-width: 0.8"/>
      </g>
     </g>
     <g id="text_13">
      <!-- 0 -->
      <g transform="translate(107.5475 497.169122) scale(0.18 -0.18)">
       <use xlink:href="#DejaVuSans-30"/>
      </g>
     </g>
    </g>
    <g id="ytick_2">
     <g id="line2d_25">
      <path d="M 126 423.488774 
L 907.2 423.488774 
" clip-path="url(#p5944e324e0)" style="fill: none; stroke: #b0b0b0; stroke-width: 0.8; stroke-linecap: square"/>
     </g>
     <g id="line2d_26">
      <g>
       <use xlink:href="#maf961e8ccd" x="126" y="423.488774" style="stroke: #000000; stroke-width: 0.8"/>
      </g>
     </g>
     <g id="text_14">
      <!-- 5 -->
      <g transform="translate(107.5475 430.327367) scale(0.18 -0.18)">
       <use xlink:href="#DejaVuSans-35"/>
      </g>
     </g>
    </g>
    <g id="ytick_3">
     <g id="line2d_27">
      <path d="M 126 356.647019 
L 907.2 356.647019 
" clip-path="url(#p5944e324e0)" style="fill: none; stroke: #b0b0b0; stroke-width: 0.8; stroke-linecap: square"/>
     </g>
     <g id="line2d_28">
      <g>
       <use xlink:href="#maf961e8ccd" x="126" y="356.647019" style="stroke: #000000; stroke-width: 0.8"/>
      </g>
     </g>
     <g id="text_15">
      <!-- 10 -->
      <g transform="translate(96.095 363.485613) scale(0.18 -0.18)">
       <use xlink:href="#DejaVuSans-31"/>
       <use xlink:href="#DejaVuSans-30" x="63.623047"/>
      </g>
     </g>
    </g>
    <g id="ytick_4">
     <g id="line2d_29">
      <path d="M 126 289.805264 
L 907.2 289.805264 
" clip-path="url(#p5944e324e0)" style="fill: none; stroke: #b0b0b0; stroke-width: 0.8; stroke-linecap: square"/>
     </g>
     <g id="line2d_30">
      <g>
       <use xlink:href="#maf961e8ccd" x="126" y="289.805264" style="stroke: #000000; stroke-width: 0.8"/>
      </g>
     </g>
     <g id="text_16">
      <!-- 15 -->
      <g transform="translate(96.095 296.643858) scale(0.18 -0.18)">
       <use xlink:href="#DejaVuSans-31"/>
       <use xlink:href="#DejaVuSans-35" x="63.623047"/>
      </g>
     </g>
    </g>
    <g id="ytick_5">
     <g id="line2d_31">
      <path d="M 126 222.963509 
L 907.2 222.963509 
" clip-path="url(#p5944e324e0)" style="fill: none; stroke: #b0b0b0; stroke-width: 0.8; stroke-linecap: square"/>
     </g>
     <g id="line2d_32">
      <g>
       <use xlink:href="#maf961e8ccd" x="126" y="222.963509" style="stroke: #000000; stroke-width: 0.8"/>
      </g>
     </g>
     <g id="text_17">
      <!-- 20 -->
      <g transform="translate(96.095 229.802103) scale(0.18 -0.18)">
       <use xlink:href="#DejaVuSans-32"/>
       <use xlink:href="#DejaVuSans-30" x="63.623047"/>
      </g>
     </g>
    </g>
    <g id="ytick_6">
     <g id="line2d_33">
      <path d="M 126 156.121755 
L 907.2 156.121755 
" clip-path="url(#p5944e324e0)" style="fill: none; stroke: #b0b0b0; stroke-width: 0.8; stroke-linecap: square"/>
     </g>
     <g id="line2d_34">
      <g>
       <use xlink:href="#maf961e8ccd" x="126" y="156.121755" style="stroke: #000000; stroke-width: 0.8"/>
      </g>
     </g>
     <g id="text_18">
      <!-- 25 -->
      <g transform="translate(96.095 162.960348) scale(0.18 -0.18)">
       <use xlink:href="#DejaVuSans-32"/>
       <use xlink:href="#DejaVuSans-35" x="63.623047"/>
      </g>
     </g>
    </g>
    <g id="ytick_7">
     <g id="line2d_35">
      <path d="M 126 89.28 
L 907.2 89.28 
" clip-path="url(#p5944e324e0)" style="fill: none; stroke: #b0b0b0; stroke-width: 0.8; stroke-linecap: square"/>
     </g>
     <g id="line2d_36">
      <g>
       <use xlink:href="#maf961e8ccd" x="126" y="89.28" style="stroke: #000000; stroke-width: 0.8"/>
      </g>
     </g>
     <g id="text_19">
      <!-- 30 -->
      <g transform="translate(96.095 96.118594) scale(0.18 -0.18)">
       <use xlink:href="#DejaVuSans-33"/>
       <use xlink:href="#DejaVuSans-30" x="63.623047"/>
      </g>
     </g>
    </g>
    <g id="text_20">
     <!-- Crystal Size -->
     <g transform="translate(88.351562 343.759219) rotate(-90) scale(0.18 -0.18)">
      <defs>
       <path id="DejaVuSans-43" d="M 4122 4306 
L 4122 3641 
Q 3803 3938 3442 4084 
Q 3081 4231 2675 4231 
Q 1875 4231 1450 3742 
Q 1025 3253 1025 2328 
Q 1025 1406 1450 917 
Q 1875 428 2675 428 
Q 3081 428 3442 575 
Q 3803 722 4122 1019 
L 4122 359 
Q 3791 134 3420 21 
Q 3050 -91 2638 -91 
Q 1578 -91 968 557 
Q 359 1206 359 2328 
Q 359 3453 968 4101 
Q 1578 4750 2638 4750 
Q 3056 4750 3426 4639 
Q 3797 4528 4122 4306 
z
" transform="scale(0.015625)"/>
       <path id="DejaVuSans-72" d="M 2631 2963 
Q 2534 3019 2420 3045 
Q 2306 3072 2169 3072 
Q 1681 3072 1420 2755 
Q 1159 2438 1159 1844 
L 1159 0 
L 581 0 
L 581 3500 
L 1159 3500 
L 1159 2956 
Q 1341 3275 1631 3429 
Q 1922 3584 2338 3584 
Q 2397 3584 2469 3576 
Q 2541 3569 2628 3553 
L 2631 2963 
z
" transform="scale(0.015625)"/>
       <path id="DejaVuSans-79" d="M 2059 -325 
Q 1816 -950 1584 -1140 
Q 1353 -1331 966 -1331 
L 506 -1331 
L 506 -850 
L 844 -850 
Q 1081 -850 1212 -737 
Q 1344 -625 1503 -206 
L 1606 56 
L 191 3500 
L 800 3500 
L 1894 763 
L 2988 3500 
L 3597 3500 
L 2059 -325 
z
" transform="scale(0.015625)"/>
       <path id="DejaVuSans-74" d="M 1172 4494 
L 1172 3500 
L 2356 3500 
L 2356 3053 
L 1172 3053 
L 1172 1153 
Q 1172 725 1289 603 
Q 1406 481 1766 481 
L 2356 481 
L 2356 0 
L 1766 0 
Q 1100 0 847 248 
Q 594 497 594 1153 
L 594 3053 
L 172 3053 
L 172 3500 
L 594 3500 
L 594 4494 
L 1172 4494 
z
" transform="scale(0.015625)"/>
       <path id="DejaVuSans-61" d="M 2194 1759 
Q 1497 1759 1228 1600 
Q 959 1441 959 1056 
Q 959 750 1161 570 
Q 1363 391 1709 391 
Q 2188 391 2477 730 
Q 2766 1069 2766 1631 
L 2766 1759 
L 2194 1759 
z
M 3341 1997 
L 3341 0 
L 2766 0 
L 2766 531 
Q 2569 213 2275 61 
Q 1981 -91 1556 -91 
Q 1019 -91 701 211 
Q 384 513 384 1019 
Q 384 1609 779 1909 
Q 1175 2209 1959 2209 
L 2766 2209 
L 2766 2266 
Q 2766 2663 2505 2880 
Q 2244 3097 1772 3097 
Q 1472 3097 1187 3025 
Q 903 2953 641 2809 
L 641 3341 
Q 956 3463 1253 3523 
Q 1550 3584 1831 3584 
Q 2591 3584 2966 3190 
Q 3341 2797 3341 1997 
z
" transform="scale(0.015625)"/>
       <path id="DejaVuSans-6c" d="M 603 4863 
L 1178 4863 
L 1178 0 
L 603 0 
L 603 4863 
z
" transform="scale(0.015625)"/>
       <path id="DejaVuSans-53" d="M 3425 4513 
L 3425 3897 
Q 3066 4069 2747 4153 
Q 2428 4238 2131 4238 
Q 1616 4238 1336 4038 
Q 1056 3838 1056 3469 
Q 1056 3159 1242 3001 
Q 1428 2844 1947 2747 
L 2328 2669 
Q 3034 2534 3370 2195 
Q 3706 1856 3706 1288 
Q 3706 609 3251 259 
Q 2797 -91 1919 -91 
Q 1588 -91 1214 -16 
Q 841 59 441 206 
L 441 856 
Q 825 641 1194 531 
Q 1563 422 1919 422 
Q 2459 422 2753 634 
Q 3047 847 3047 1241 
Q 3047 1584 2836 1778 
Q 2625 1972 2144 2069 
L 1759 2144 
Q 1053 2284 737 2584 
Q 422 2884 422 3419 
Q 422 4038 858 4394 
Q 1294 4750 2059 4750 
Q 2388 4750 2728 4690 
Q 3069 4631 3425 4513 
z
" transform="scale(0.015625)"/>
       <path id="DejaVuSans-7a" d="M 353 3500 
L 3084 3500 
L 3084 2975 
L 922 459 
L 3084 459 
L 3084 0 
L 275 0 
L 275 525 
L 2438 3041 
L 353 3041 
L 353 3500 
z
" transform="scale(0.015625)"/>
      </defs>
      <use xlink:href="#DejaVuSans-43"/>
      <use xlink:href="#DejaVuSans-72" x="69.824219"/>
      <use xlink:href="#DejaVuSans-79" x="110.9375"/>
      <use xlink:href="#DejaVuSans-73" x="170.117188"/>
      <use xlink:href="#DejaVuSans-74" x="222.216797"/>
      <use xlink:href="#DejaVuSans-61" x="261.425781"/>
      <use xlink:href="#DejaVuSans-6c" x="322.705078"/>
      <use xlink:href="#DejaVuSans-20" x="350.488281"/>
      <use xlink:href="#DejaVuSans-53" x="382.275391"/>
      <use xlink:href="#DejaVuSans-69" x="445.751953"/>
      <use xlink:href="#DejaVuSans-7a" x="473.535156"/>
      <use xlink:href="#DejaVuSans-65" x="526.025391"/>
     </g>
    </g>
   </g>
   <g id="line2d_37">
    <path d="M 161.509091 169.490106 
L 168.682645 316.541966 
L 175.856198 407.446752 
L 183.029752 438.19396 
L 190.203306 440.86763 
L 197.37686 440.86763 
L 204.550413 438.19396 
L 211.723967 447.551805 
L 218.897521 448.88864 
L 226.071074 443.5413 
L 233.244628 450.225475 
L 240.418182 448.88864 
L 247.591736 446.21497 
L 254.765289 430.172949 
L 261.938843 452.899146 
L 269.112397 444.878135 
L 276.28595 454.235981 
L 283.459504 452.899146 
L 290.633058 446.21497 
L 297.806612 436.857124 
L 304.980165 450.225475 
L 312.153719 451.562311 
L 319.327273 446.21497 
L 326.500826 451.562311 
L 333.67438 450.225475 
L 340.847934 447.551805 
L 348.021488 450.225475 
L 355.195041 447.551805 
L 362.368595 451.562311 
L 369.542149 451.562311 
L 376.715702 452.899146 
L 383.889256 451.562311 
L 391.06281 450.225475 
L 398.236364 448.88864 
L 405.409917 451.562311 
L 412.583471 446.21497 
L 419.757025 450.225475 
L 426.930579 446.21497 
L 434.104132 447.551805 
L 441.277686 448.88864 
L 448.45124 452.899146 
L 455.624793 446.21497 
L 462.798347 448.88864 
L 469.971901 448.88864 
L 477.145455 446.21497 
L 484.319008 455.572816 
L 491.492562 438.19396 
L 498.666116 451.562311 
L 505.839669 443.5413 
L 513.013223 454.235981 
L 520.186777 444.878135 
L 527.360331 450.225475 
L 534.533884 455.572816 
L 541.707438 458.246486 
L 548.880992 451.562311 
L 556.054545 450.225475 
L 563.228099 440.86763 
L 570.401653 444.878135 
L 577.575207 452.899146 
L 584.74876 450.225475 
L 591.922314 450.225475 
L 599.095868 447.551805 
L 606.269421 454.235981 
L 613.442975 446.21497 
L 620.616529 451.562311 
L 627.790083 434.183454 
L 634.963636 450.225475 
L 642.13719 454.235981 
L 649.310744 454.235981 
L 656.484298 448.88864 
L 663.657851 450.225475 
L 670.831405 438.19396 
L 678.004959 446.21497 
L 685.178512 452.899146 
L 692.352066 451.562311 
L 699.52562 443.5413 
L 706.699174 454.235981 
L 713.872727 446.21497 
L 721.046281 444.878135 
L 728.219835 446.21497 
L 735.393388 451.562311 
L 742.566942 447.551805 
L 749.740496 455.572816 
L 756.91405 454.235981 
L 764.087603 448.88864 
L 771.261157 444.878135 
L 778.434711 447.551805 
L 785.608264 446.21497 
L 792.781818 444.878135 
L 799.955372 444.878135 
L 807.128926 450.225475 
L 814.302479 450.225475 
L 821.476033 444.878135 
L 828.649587 439.530795 
L 835.82314 448.88864 
L 842.996694 454.235981 
L 850.170248 451.562311 
L 857.343802 446.21497 
L 864.517355 444.878135 
L 871.690909 452.899146 
" clip-path="url(#p5944e324e0)" style="fill: none; stroke: #0000ff; stroke-width: 1.5; stroke-linecap: square"/>
    <defs>
     <path id="m3d65c48788" d="M 0 2 
C 0.530406 2 1.03916 1.789267 1.414214 1.414214 
C 1.789267 1.03916 2 0.530406 2 0 
C 2 -0.530406 1.789267 -1.03916 1.414214 -1.414214 
C 1.03916 -1.789267 0.530406 -2 0 -2 
C -0.530406 -2 -1.03916 -1.789267 -1.414214 -1.414214 
C -1.789267 -1.03916 -2 -0.530406 -2 0 
C -2 0.530406 -1.789267 1.03916 -1.414214 1.414214 
C -1.03916 1.789267 -0.530406 2 0 2 
z
" style="stroke: #0000ff"/>
    </defs>
    <g clip-path="url(#p5944e324e0)">
     <use xlink:href="#m3d65c48788" x="161.509091" y="169.490106" style="fill: #0000ff; stroke: #0000ff"/>
     <use xlink:href="#m3d65c48788" x="168.682645" y="316.541966" style="fill: #0000ff; stroke: #0000ff"/>
     <use xlink:href="#m3d65c48788" x="175.856198" y="407.446752" style="fill: #0000ff; stroke: #0000ff"/>
     <use xlink:href="#m3d65c48788" x="183.029752" y="438.19396" style="fill: #0000ff; stroke: #0000ff"/>
     <use xlink:href="#m3d65c48788" x="190.203306" y="440.86763" style="fill: #0000ff; stroke: #0000ff"/>
     <use xlink:href="#m3d65c48788" x="197.37686" y="440.86763" style="fill: #0000ff; stroke: #0000ff"/>
     <use xlink:href="#m3d65c48788" x="204.550413" y="438.19396" style="fill: #0000ff; stroke: #0000ff"/>
     <use xlink:href="#m3d65c48788" x="211.723967" y="447.551805" style="fill: #0000ff; stroke: #0000ff"/>
     <use xlink:href="#m3d65c48788" x="218.897521" y="448.88864" style="fill: #0000ff; stroke: #0000ff"/>
     <use xlink:href="#m3d65c48788" x="226.071074" y="443.5413" style="fill: #0000ff; stroke: #0000ff"/>
     <use xlink:href="#m3d65c48788" x="233.244628" y="450.225475" style="fill: #0000ff; stroke: #0000ff"/>
     <use xlink:href="#m3d65c48788" x="240.418182" y="448.88864" style="fill: #0000ff; stroke: #0000ff"/>
     <use xlink:href="#m3d65c48788" x="247.591736" y="446.21497" style="fill: #0000ff; stroke: #0000ff"/>
     <use xlink:href="#m3d65c48788" x="254.765289" y="430.172949" style="fill: #0000ff; stroke: #0000ff"/>
     <use xlink:href="#m3d65c48788" x="261.938843" y="452.899146" style="fill: #0000ff; stroke: #0000ff"/>
     <use xlink:href="#m3d65c48788" x="269.112397" y="444.878135" style="fill: #0000ff; stroke: #0000ff"/>
     <use xlink:href="#m3d65c48788" x="276.28595" y="454.235981" style="fill: #0000ff; stroke: #0000ff"/>
     <use xlink:href="#m3d65c48788" x="283.459504" y="452.899146" style="fill: #0000ff; stroke: #0000ff"/>
     <use xlink:href="#m3d65c48788" x="290.633058" y="446.21497" style="fill: #0000ff; stroke: #0000ff"/>
     <use xlink:href="#m3d65c48788" x="297.806612" y="436.857124" style="fill: #0000ff; stroke: #0000ff"/>
     <use xlink:href="#m3d65c48788" x="304.980165" y="450.225475" style="fill: #0000ff; stroke: #0000ff"/>
     <use xlink:href="#m3d65c48788" x="312.153719" y="451.562311" style="fill: #0000ff; stroke: #0000ff"/>
     <use xlink:href="#m3d65c48788" x="319.327273" y="446.21497" style="fill: #0000ff; stroke: #0000ff"/>
     <use xlink:href="#m3d65c48788" x="326.500826" y="451.562311" style="fill: #0000ff; stroke: #0000ff"/>
     <use xlink:href="#m3d65c48788" x="333.67438" y="450.225475" style="fill: #0000ff; stroke: #0000ff"/>
     <use xlink:href="#m3d65c48788" x="340.847934" y="447.551805" style="fill: #0000ff; stroke: #0000ff"/>
     <use xlink:href="#m3d65c48788" x="348.021488" y="450.225475" style="fill: #0000ff; stroke: #0000ff"/>
     <use xlink:href="#m3d65c48788" x="355.195041" y="447.551805" style="fill: #0000ff; stroke: #0000ff"/>
     <use xlink:href="#m3d65c48788" x="362.368595" y="451.562311" style="fill: #0000ff; stroke: #0000ff"/>
     <use xlink:href="#m3d65c48788" x="369.542149" y="451.562311" style="fill: #0000ff; stroke: #0000ff"/>
     <use xlink:href="#m3d65c48788" x="376.715702" y="452.899146" style="fill: #0000ff; stroke: #0000ff"/>
     <use xlink:href="#m3d65c48788" x="383.889256" y="451.562311" style="fill: #0000ff; stroke: #0000ff"/>
     <use xlink:href="#m3d65c48788" x="391.06281" y="450.225475" style="fill: #0000ff; stroke: #0000ff"/>
     <use xlink:href="#m3d65c48788" x="398.236364" y="448.88864" style="fill: #0000ff; stroke: #0000ff"/>
     <use xlink:href="#m3d65c48788" x="405.409917" y="451.562311" style="fill: #0000ff; stroke: #0000ff"/>
     <use xlink:href="#m3d65c48788" x="412.583471" y="446.21497" style="fill: #0000ff; stroke: #0000ff"/>
     <use xlink:href="#m3d65c48788" x="419.757025" y="450.225475" style="fill: #0000ff; stroke: #0000ff"/>
     <use xlink:href="#m3d65c48788" x="426.930579" y="446.21497" style="fill: #0000ff; stroke: #0000ff"/>
     <use xlink:href="#m3d65c48788" x="434.104132" y="447.551805" style="fill: #0000ff; stroke: #0000ff"/>
     <use xlink:href="#m3d65c48788" x="441.277686" y="448.88864" style="fill: #0000ff; stroke: #0000ff"/>
     <use xlink:href="#m3d65c48788" x="448.45124" y="452.899146" style="fill: #0000ff; stroke: #0000ff"/>
     <use xlink:href="#m3d65c48788" x="455.624793" y="446.21497" style="fill: #0000ff; stroke: #0000ff"/>
     <use xlink:href="#m3d65c48788" x="462.798347" y="448.88864" style="fill: #0000ff; stroke: #0000ff"/>
     <use xlink:href="#m3d65c48788" x="469.971901" y="448.88864" style="fill: #0000ff; stroke: #0000ff"/>
     <use xlink:href="#m3d65c48788" x="477.145455" y="446.21497" style="fill: #0000ff; stroke: #0000ff"/>
     <use xlink:href="#m3d65c48788" x="484.319008" y="455.572816" style="fill: #0000ff; stroke: #0000ff"/>
     <use xlink:href="#m3d65c48788" x="491.492562" y="438.19396" style="fill: #0000ff; stroke: #0000ff"/>
     <use xlink:href="#m3d65c48788" x="498.666116" y="451.562311" style="fill: #0000ff; stroke: #0000ff"/>
     <use xlink:href="#m3d65c48788" x="505.839669" y="443.5413" style="fill: #0000ff; stroke: #0000ff"/>
     <use xlink:href="#m3d65c48788" x="513.013223" y="454.235981" style="fill: #0000ff; stroke: #0000ff"/>
     <use xlink:href="#m3d65c48788" x="520.186777" y="444.878135" style="fill: #0000ff; stroke: #0000ff"/>
     <use xlink:href="#m3d65c48788" x="527.360331" y="450.225475" style="fill: #0000ff; stroke: #0000ff"/>
     <use xlink:href="#m3d65c48788" x="534.533884" y="455.572816" style="fill: #0000ff; stroke: #0000ff"/>
     <use xlink:href="#m3d65c48788" x="541.707438" y="458.246486" style="fill: #0000ff; stroke: #0000ff"/>
     <use xlink:href="#m3d65c48788" x="548.880992" y="451.562311" style="fill: #0000ff; stroke: #0000ff"/>
     <use xlink:href="#m3d65c48788" x="556.054545" y="450.225475" style="fill: #0000ff; stroke: #0000ff"/>
     <use xlink:href="#m3d65c48788" x="563.228099" y="440.86763" style="fill: #0000ff; stroke: #0000ff"/>
     <use xlink:href="#m3d65c48788" x="570.401653" y="444.878135" style="fill: #0000ff; stroke: #0000ff"/>
     <use xlink:href="#m3d65c48788" x="577.575207" y="452.899146" style="fill: #0000ff; stroke: #0000ff"/>
     <use xlink:href="#m3d65c48788" x="584.74876" y="450.225475" style="fill: #0000ff; stroke: #0000ff"/>
     <use xlink:href="#m3d65c48788" x="591.922314" y="450.225475" style="fill: #0000ff; stroke: #0000ff"/>
     <use xlink:href="#m3d65c48788" x="599.095868" y="447.551805" style="fill: #0000ff; stroke: #0000ff"/>
     <use xlink:href="#m3d65c48788" x="606.269421" y="454.235981" style="fill: #0000ff; stroke: #0000ff"/>
     <use xlink:href="#m3d65c48788" x="613.442975" y="446.21497" style="fill: #0000ff; stroke: #0000ff"/>
     <use xlink:href="#m3d65c48788" x="620.616529" y="451.562311" style="fill: #0000ff; stroke: #0000ff"/>
     <use xlink:href="#m3d65c48788" x="627.790083" y="434.183454" style="fill: #0000ff; stroke: #0000ff"/>
     <use xlink:href="#m3d65c48788" x="634.963636" y="450.225475" style="fill: #0000ff; stroke: #0000ff"/>
     <use xlink:href="#m3d65c48788" x="642.13719" y="454.235981" style="fill: #0000ff; stroke: #0000ff"/>
     <use xlink:href="#m3d65c48788" x="649.310744" y="454.235981" style="fill: #0000ff; stroke: #0000ff"/>
     <use xlink:href="#m3d65c48788" x="656.484298" y="448.88864" style="fill: #0000ff; stroke: #0000ff"/>
     <use xlink:href="#m3d65c48788" x="663.657851" y="450.225475" style="fill: #0000ff; stroke: #0000ff"/>
     <use xlink:href="#m3d65c48788" x="670.831405" y="438.19396" style="fill: #0000ff; stroke: #0000ff"/>
     <use xlink:href="#m3d65c48788" x="678.004959" y="446.21497" style="fill: #0000ff; stroke: #0000ff"/>
     <use xlink:href="#m3d65c48788" x="685.178512" y="452.899146" style="fill: #0000ff; stroke: #0000ff"/>
     <use xlink:href="#m3d65c48788" x="692.352066" y="451.562311" style="fill: #0000ff; stroke: #0000ff"/>
     <use xlink:href="#m3d65c48788" x="699.52562" y="443.5413" style="fill: #0000ff; stroke: #0000ff"/>
     <use xlink:href="#m3d65c48788" x="706.699174" y="454.235981" style="fill: #0000ff; stroke: #0000ff"/>
     <use xlink:href="#m3d65c48788" x="713.872727" y="446.21497" style="fill: #0000ff; stroke: #0000ff"/>
     <use xlink:href="#m3d65c48788" x="721.046281" y="444.878135" style="fill: #0000ff; stroke: #0000ff"/>
     <use xlink:href="#m3d65c48788" x="728.219835" y="446.21497" style="fill: #0000ff; stroke: #0000ff"/>
     <use xlink:href="#m3d65c48788" x="735.393388" y="451.562311" style="fill: #0000ff; stroke: #0000ff"/>
     <use xlink:href="#m3d65c48788" x="742.566942" y="447.551805" style="fill: #0000ff; stroke: #0000ff"/>
     <use xlink:href="#m3d65c48788" x="749.740496" y="455.572816" style="fill: #0000ff; stroke: #0000ff"/>
     <use xlink:href="#m3d65c48788" x="756.91405" y="454.235981" style="fill: #0000ff; stroke: #0000ff"/>
     <use xlink:href="#m3d65c48788" x="764.087603" y="448.88864" style="fill: #0000ff; stroke: #0000ff"/>
     <use xlink:href="#m3d65c48788" x="771.261157" y="444.878135" style="fill: #0000ff; stroke: #0000ff"/>
     <use xlink:href="#m3d65c48788" x="778.434711" y="447.551805" style="fill: #0000ff; stroke: #0000ff"/>
     <use xlink:href="#m3d65c48788" x="785.608264" y="446.21497" style="fill: #0000ff; stroke: #0000ff"/>
     <use xlink:href="#m3d65c48788" x="792.781818" y="444.878135" style="fill: #0000ff; stroke: #0000ff"/>
     <use xlink:href="#m3d65c48788" x="799.955372" y="444.878135" style="fill: #0000ff; stroke: #0000ff"/>
     <use xlink:href="#m3d65c48788" x="807.128926" y="450.225475" style="fill: #0000ff; stroke: #0000ff"/>
     <use xlink:href="#m3d65c48788" x="814.302479" y="450.225475" style="fill: #0000ff; stroke: #0000ff"/>
     <use xlink:href="#m3d65c48788" x="821.476033" y="444.878135" style="fill: #0000ff; stroke: #0000ff"/>
     <use xlink:href="#m3d65c48788" x="828.649587" y="439.530795" style="fill: #0000ff; stroke: #0000ff"/>
     <use xlink:href="#m3d65c48788" x="835.82314" y="448.88864" style="fill: #0000ff; stroke: #0000ff"/>
     <use xlink:href="#m3d65c48788" x="842.996694" y="454.235981" style="fill: #0000ff; stroke: #0000ff"/>
     <use xlink:href="#m3d65c48788" x="850.170248" y="451.562311" style="fill: #0000ff; stroke: #0000ff"/>
     <use xlink:href="#m3d65c48788" x="857.343802" y="446.21497" style="fill: #0000ff; stroke: #0000ff"/>
     <use xlink:href="#m3d65c48788" x="864.517355" y="444.878135" style="fill: #0000ff; stroke: #0000ff"/>
     <use xlink:href="#m3d65c48788" x="871.690909" y="452.899146" style="fill: #0000ff; stroke: #0000ff"/>
    </g>
   </g>
   <g id="line2d_38">
    <path d="M 161.509091 89.28 
L 168.682645 268.415903 
L 175.856198 352.636514 
L 183.029752 380.710051 
L 190.203306 435.520289 
L 197.37686 448.88864 
L 204.550413 438.19396 
L 211.723967 451.562311 
L 218.897521 439.530795 
L 226.071074 439.530795 
L 233.244628 448.88864 
L 240.418182 454.235981 
L 247.591736 446.21497 
L 254.765289 442.204465 
L 261.938843 439.530795 
L 269.112397 452.899146 
L 276.28595 447.551805 
L 283.459504 447.551805 
L 290.633058 446.21497 
L 297.806612 444.878135 
L 304.980165 456.909651 
L 312.153719 451.562311 
L 319.327273 454.235981 
L 326.500826 447.551805 
L 333.67438 438.19396 
L 340.847934 443.5413 
L 348.021488 436.857124 
L 355.195041 450.225475 
L 362.368595 448.88864 
L 369.542149 451.562311 
L 376.715702 452.899146 
L 383.889256 452.899146 
L 391.06281 451.562311 
L 398.236364 448.88864 
L 405.409917 456.909651 
L 412.583471 448.88864 
L 419.757025 448.88864 
L 426.930579 447.551805 
L 434.104132 447.551805 
L 441.277686 450.225475 
L 448.45124 432.846619 
L 455.624793 444.878135 
L 462.798347 454.235981 
L 469.971901 451.562311 
L 477.145455 454.235981 
L 484.319008 450.225475 
L 491.492562 442.204465 
L 498.666116 444.878135 
L 505.839669 447.551805 
L 513.013223 450.225475 
L 520.186777 444.878135 
L 527.360331 443.5413 
L 534.533884 454.235981 
L 541.707438 451.562311 
L 548.880992 448.88864 
L 556.054545 448.88864 
L 563.228099 455.572816 
L 570.401653 440.86763 
L 577.575207 447.551805 
L 584.74876 447.551805 
L 591.922314 444.878135 
L 599.095868 451.562311 
L 606.269421 450.225475 
L 613.442975 448.88864 
L 620.616529 446.21497 
L 627.790083 447.551805 
L 634.963636 452.899146 
L 642.13719 443.5413 
L 649.310744 448.88864 
L 656.484298 448.88864 
L 663.657851 444.878135 
L 670.831405 444.878135 
L 678.004959 448.88864 
L 685.178512 444.878135 
L 692.352066 448.88864 
L 699.52562 451.562311 
L 706.699174 452.899146 
L 713.872727 452.899146 
L 721.046281 454.235981 
L 728.219835 451.562311 
L 735.393388 452.899146 
L 742.566942 455.572816 
L 749.740496 442.204465 
L 756.91405 456.909651 
L 764.087603 448.88864 
L 771.261157 434.183454 
L 778.434711 446.21497 
L 785.608264 444.878135 
L 792.781818 454.235981 
L 799.955372 452.899146 
L 807.128926 446.21497 
L 814.302479 447.551805 
L 821.476033 459.583321 
L 828.649587 436.857124 
L 835.82314 446.21497 
L 842.996694 448.88864 
L 850.170248 446.21497 
L 857.343802 455.572816 
L 864.517355 456.909651 
L 871.690909 454.235981 
" clip-path="url(#p5944e324e0)" style="fill: none; stroke: #ffa500; stroke-width: 1.5; stroke-linecap: square"/>
    <defs>
     <path id="m4894c82771" d="M 0 2 
C 0.530406 2 1.03916 1.789267 1.414214 1.414214 
C 1.789267 1.03916 2 0.530406 2 0 
C 2 -0.530406 1.789267 -1.03916 1.414214 -1.414214 
C 1.03916 -1.789267 0.530406 -2 0 -2 
C -0.530406 -2 -1.03916 -1.789267 -1.414214 -1.414214 
C -1.789267 -1.03916 -2 -0.530406 -2 0 
C -2 0.530406 -1.789267 1.03916 -1.414214 1.414214 
C -1.03916 1.789267 -0.530406 2 0 2 
z
" style="stroke: #ffa500"/>
    </defs>
    <g clip-path="url(#p5944e324e0)">
     <use xlink:href="#m4894c82771" x="161.509091" y="89.28" style="fill: #ffa500; stroke: #ffa500"/>
     <use xlink:href="#m4894c82771" x="168.682645" y="268.415903" style="fill: #ffa500; stroke: #ffa500"/>
     <use xlink:href="#m4894c82771" x="175.856198" y="352.636514" style="fill: #ffa500; stroke: #ffa500"/>
     <use xlink:href="#m4894c82771" x="183.029752" y="380.710051" style="fill: #ffa500; stroke: #ffa500"/>
     <use xlink:href="#m4894c82771" x="190.203306" y="435.520289" style="fill: #ffa500; stroke: #ffa500"/>
     <use xlink:href="#m4894c82771" x="197.37686" y="448.88864" style="fill: #ffa500; stroke: #ffa500"/>
     <use xlink:href="#m4894c82771" x="204.550413" y="438.19396" style="fill: #ffa500; stroke: #ffa500"/>
     <use xlink:href="#m4894c82771" x="211.723967" y="451.562311" style="fill: #ffa500; stroke: #ffa500"/>
     <use xlink:href="#m4894c82771" x="218.897521" y="439.530795" style="fill: #ffa500; stroke: #ffa500"/>
     <use xlink:href="#m4894c82771" x="226.071074" y="439.530795" style="fill: #ffa500; stroke: #ffa500"/>
     <use xlink:href="#m4894c82771" x="233.244628" y="448.88864" style="fill: #ffa500; stroke: #ffa500"/>
     <use xlink:href="#m4894c82771" x="240.418182" y="454.235981" style="fill: #ffa500; stroke: #ffa500"/>
     <use xlink:href="#m4894c82771" x="247.591736" y="446.21497" style="fill: #ffa500; stroke: #ffa500"/>
     <use xlink:href="#m4894c82771" x="254.765289" y="442.204465" style="fill: #ffa500; stroke: #ffa500"/>
     <use xlink:href="#m4894c82771" x="261.938843" y="439.530795" style="fill: #ffa500; stroke: #ffa500"/>
     <use xlink:href="#m4894c82771" x="269.112397" y="452.899146" style="fill: #ffa500; stroke: #ffa500"/>
     <use xlink:href="#m4894c82771" x="276.28595" y="447.551805" style="fill: #ffa500; stroke: #ffa500"/>
     <use xlink:href="#m4894c82771" x="283.459504" y="447.551805" style="fill: #ffa500; stroke: #ffa500"/>
     <use xlink:href="#m4894c82771" x="290.633058" y="446.21497" style="fill: #ffa500; stroke: #ffa500"/>
     <use xlink:href="#m4894c82771" x="297.806612" y="444.878135" style="fill: #ffa500; stroke: #ffa500"/>
     <use xlink:href="#m4894c82771" x="304.980165" y="456.909651" style="fill: #ffa500; stroke: #ffa500"/>
     <use xlink:href="#m4894c82771" x="312.153719" y="451.562311" style="fill: #ffa500; stroke: #ffa500"/>
     <use xlink:href="#m4894c82771" x="319.327273" y="454.235981" style="fill: #ffa500; stroke: #ffa500"/>
     <use xlink:href="#m4894c82771" x="326.500826" y="447.551805" style="fill: #ffa500; stroke: #ffa500"/>
     <use xlink:href="#m4894c82771" x="333.67438" y="438.19396" style="fill: #ffa500; stroke: #ffa500"/>
     <use xlink:href="#m4894c82771" x="340.847934" y="443.5413" style="fill: #ffa500; stroke: #ffa500"/>
     <use xlink:href="#m4894c82771" x="348.021488" y="436.857124" style="fill: #ffa500; stroke: #ffa500"/>
     <use xlink:href="#m4894c82771" x="355.195041" y="450.225475" style="fill: #ffa500; stroke: #ffa500"/>
     <use xlink:href="#m4894c82771" x="362.368595" y="448.88864" style="fill: #ffa500; stroke: #ffa500"/>
     <use xlink:href="#m4894c82771" x="369.542149" y="451.562311" style="fill: #ffa500; stroke: #ffa500"/>
     <use xlink:href="#m4894c82771" x="376.715702" y="452.899146" style="fill: #ffa500; stroke: #ffa500"/>
     <use xlink:href="#m4894c82771" x="383.889256" y="452.899146" style="fill: #ffa500; stroke: #ffa500"/>
     <use xlink:href="#m4894c82771" x="391.06281" y="451.562311" style="fill: #ffa500; stroke: #ffa500"/>
     <use xlink:href="#m4894c82771" x="398.236364" y="448.88864" style="fill: #ffa500; stroke: #ffa500"/>
     <use xlink:href="#m4894c82771" x="405.409917" y="456.909651" style="fill: #ffa500; stroke: #ffa500"/>
     <use xlink:href="#m4894c82771" x="412.583471" y="448.88864" style="fill: #ffa500; stroke: #ffa500"/>
     <use xlink:href="#m4894c82771" x="419.757025" y="448.88864" style="fill: #ffa500; stroke: #ffa500"/>
     <use xlink:href="#m4894c82771" x="426.930579" y="447.551805" style="fill: #ffa500; stroke: #ffa500"/>
     <use xlink:href="#m4894c82771" x="434.104132" y="447.551805" style="fill: #ffa500; stroke: #ffa500"/>
     <use xlink:href="#m4894c82771" x="441.277686" y="450.225475" style="fill: #ffa500; stroke: #ffa500"/>
     <use xlink:href="#m4894c82771" x="448.45124" y="432.846619" style="fill: #ffa500; stroke: #ffa500"/>
     <use xlink:href="#m4894c82771" x="455.624793" y="444.878135" style="fill: #ffa500; stroke: #ffa500"/>
     <use xlink:href="#m4894c82771" x="462.798347" y="454.235981" style="fill: #ffa500; stroke: #ffa500"/>
     <use xlink:href="#m4894c82771" x="469.971901" y="451.562311" style="fill: #ffa500; stroke: #ffa500"/>
     <use xlink:href="#m4894c82771" x="477.145455" y="454.235981" style="fill: #ffa500; stroke: #ffa500"/>
     <use xlink:href="#m4894c82771" x="484.319008" y="450.225475" style="fill: #ffa500; stroke: #ffa500"/>
     <use xlink:href="#m4894c82771" x="491.492562" y="442.204465" style="fill: #ffa500; stroke: #ffa500"/>
     <use xlink:href="#m4894c82771" x="498.666116" y="444.878135" style="fill: #ffa500; stroke: #ffa500"/>
     <use xlink:href="#m4894c82771" x="505.839669" y="447.551805" style="fill: #ffa500; stroke: #ffa500"/>
     <use xlink:href="#m4894c82771" x="513.013223" y="450.225475" style="fill: #ffa500; stroke: #ffa500"/>
     <use xlink:href="#m4894c82771" x="520.186777" y="444.878135" style="fill: #ffa500; stroke: #ffa500"/>
     <use xlink:href="#m4894c82771" x="527.360331" y="443.5413" style="fill: #ffa500; stroke: #ffa500"/>
     <use xlink:href="#m4894c82771" x="534.533884" y="454.235981" style="fill: #ffa500; stroke: #ffa500"/>
     <use xlink:href="#m4894c82771" x="541.707438" y="451.562311" style="fill: #ffa500; stroke: #ffa500"/>
     <use xlink:href="#m4894c82771" x="548.880992" y="448.88864" style="fill: #ffa500; stroke: #ffa500"/>
     <use xlink:href="#m4894c82771" x="556.054545" y="448.88864" style="fill: #ffa500; stroke: #ffa500"/>
     <use xlink:href="#m4894c82771" x="563.228099" y="455.572816" style="fill: #ffa500; stroke: #ffa500"/>
     <use xlink:href="#m4894c82771" x="570.401653" y="440.86763" style="fill: #ffa500; stroke: #ffa500"/>
     <use xlink:href="#m4894c82771" x="577.575207" y="447.551805" style="fill: #ffa500; stroke: #ffa500"/>
     <use xlink:href="#m4894c82771" x="584.74876" y="447.551805" style="fill: #ffa500; stroke: #ffa500"/>
     <use xlink:href="#m4894c82771" x="591.922314" y="444.878135" style="fill: #ffa500; stroke: #ffa500"/>
     <use xlink:href="#m4894c82771" x="599.095868" y="451.562311" style="fill: #ffa500; stroke: #ffa500"/>
     <use xlink:href="#m4894c82771" x="606.269421" y="450.225475" style="fill: #ffa500; stroke: #ffa500"/>
     <use xlink:href="#m4894c82771" x="613.442975" y="448.88864" style="fill: #ffa500; stroke: #ffa500"/>
     <use xlink:href="#m4894c82771" x="620.616529" y="446.21497" style="fill: #ffa500; stroke: #ffa500"/>
     <use xlink:href="#m4894c82771" x="627.790083" y="447.551805" style="fill: #ffa500; stroke: #ffa500"/>
     <use xlink:href="#m4894c82771" x="634.963636" y="452.899146" style="fill: #ffa500; stroke: #ffa500"/>
     <use xlink:href="#m4894c82771" x="642.13719" y="443.5413" style="fill: #ffa500; stroke: #ffa500"/>
     <use xlink:href="#m4894c82771" x="649.310744" y="448.88864" style="fill: #ffa500; stroke: #ffa500"/>
     <use xlink:href="#m4894c82771" x="656.484298" y="448.88864" style="fill: #ffa500; stroke: #ffa500"/>
     <use xlink:href="#m4894c82771" x="663.657851" y="444.878135" style="fill: #ffa500; stroke: #ffa500"/>
     <use xlink:href="#m4894c82771" x="670.831405" y="444.878135" style="fill: #ffa500; stroke: #ffa500"/>
     <use xlink:href="#m4894c82771" x="678.004959" y="448.88864" style="fill: #ffa500; stroke: #ffa500"/>
     <use xlink:href="#m4894c82771" x="685.178512" y="444.878135" style="fill: #ffa500; stroke: #ffa500"/>
     <use xlink:href="#m4894c82771" x="692.352066" y="448.88864" style="fill: #ffa500; stroke: #ffa500"/>
     <use xlink:href="#m4894c82771" x="699.52562" y="451.562311" style="fill: #ffa500; stroke: #ffa500"/>
     <use xlink:href="#m4894c82771" x="706.699174" y="452.899146" style="fill: #ffa500; stroke: #ffa500"/>
     <use xlink:href="#m4894c82771" x="713.872727" y="452.899146" style="fill: #ffa500; stroke: #ffa500"/>
     <use xlink:href="#m4894c82771" x="721.046281" y="454.235981" style="fill: #ffa500; stroke: #ffa500"/>
     <use xlink:href="#m4894c82771" x="728.219835" y="451.562311" style="fill: #ffa500; stroke: #ffa500"/>
     <use xlink:href="#m4894c82771" x="735.393388" y="452.899146" style="fill: #ffa500; stroke: #ffa500"/>
     <use xlink:href="#m4894c82771" x="742.566942" y="455.572816" style="fill: #ffa500; stroke: #ffa500"/>
     <use xlink:href="#m4894c82771" x="749.740496" y="442.204465" style="fill: #ffa500; stroke: #ffa500"/>
     <use xlink:href="#m4894c82771" x="756.91405" y="456.909651" style="fill: #ffa500; stroke: #ffa500"/>
     <use xlink:href="#m4894c82771" x="764.087603" y="448.88864" style="fill: #ffa500; stroke: #ffa500"/>
     <use xlink:href="#m4894c82771" x="771.261157" y="434.183454" style="fill: #ffa500; stroke: #ffa500"/>
     <use xlink:href="#m4894c82771" x="778.434711" y="446.21497" style="fill: #ffa500; stroke: #ffa500"/>
     <use xlink:href="#m4894c82771" x="785.608264" y="444.878135" style="fill: #ffa500; stroke: #ffa500"/>
     <use xlink:href="#m4894c82771" x="792.781818" y="454.235981" style="fill: #ffa500; stroke: #ffa500"/>
     <use xlink:href="#m4894c82771" x="799.955372" y="452.899146" style="fill: #ffa500; stroke: #ffa500"/>
     <use xlink:href="#m4894c82771" x="807.128926" y="446.21497" style="fill: #ffa500; stroke: #ffa500"/>
     <use xlink:href="#m4894c82771" x="814.302479" y="447.551805" style="fill: #ffa500; stroke: #ffa500"/>
     <use xlink:href="#m4894c82771" x="821.476033" y="459.583321" style="fill: #ffa500; stroke: #ffa500"/>
     <use xlink:href="#m4894c82771" x="828.649587" y="436.857124" style="fill: #ffa500; stroke: #ffa500"/>
     <use xlink:href="#m4894c82771" x="835.82314" y="446.21497" style="fill: #ffa500; stroke: #ffa500"/>
     <use xlink:href="#m4894c82771" x="842.996694" y="448.88864" style="fill: #ffa500; stroke: #ffa500"/>
     <use xlink:href="#m4894c82771" x="850.170248" y="446.21497" style="fill: #ffa500; stroke: #ffa500"/>
     <use xlink:href="#m4894c82771" x="857.343802" y="455.572816" style="fill: #ffa500; stroke: #ffa500"/>
     <use xlink:href="#m4894c82771" x="864.517355" y="456.909651" style="fill: #ffa500; stroke: #ffa500"/>
     <use xlink:href="#m4894c82771" x="871.690909" y="454.235981" style="fill: #ffa500; stroke: #ffa500"/>
    </g>
   </g>
   <g id="line2d_39">
    <path d="M 161.509091 276.436913 
L 168.682645 372.68904 
L 175.856198 415.467763 
L 183.029752 415.467763 
L 190.203306 431.509784 
L 197.37686 440.86763 
L 204.550413 448.88864 
L 211.723967 443.5413 
L 218.897521 443.5413 
L 226.071074 443.5413 
L 233.244628 443.5413 
L 240.418182 446.21497 
L 247.591736 455.572816 
L 254.765289 455.572816 
L 261.938843 446.21497 
L 269.112397 446.21497 
L 276.28595 451.562311 
L 283.459504 444.878135 
L 290.633058 451.562311 
L 297.806612 447.551805 
L 304.980165 446.21497 
L 312.153719 451.562311 
L 319.327273 451.562311 
L 326.500826 454.235981 
L 333.67438 448.88864 
L 340.847934 446.21497 
L 348.021488 451.562311 
L 355.195041 450.225475 
L 362.368595 447.551805 
L 369.542149 451.562311 
L 376.715702 446.21497 
L 383.889256 444.878135 
L 391.06281 451.562311 
L 398.236364 444.878135 
L 405.409917 446.21497 
L 412.583471 448.88864 
L 419.757025 447.551805 
L 426.930579 448.88864 
L 434.104132 452.899146 
L 441.277686 448.88864 
L 448.45124 456.909651 
L 455.624793 444.878135 
L 462.798347 455.572816 
L 469.971901 447.551805 
L 477.145455 443.5413 
L 484.319008 447.551805 
L 491.492562 454.235981 
L 498.666116 448.88864 
L 505.839669 438.19396 
L 513.013223 455.572816 
L 520.186777 447.551805 
L 527.360331 439.530795 
L 534.533884 443.5413 
L 541.707438 451.562311 
L 548.880992 444.878135 
L 556.054545 443.5413 
L 563.228099 446.21497 
L 570.401653 450.225475 
L 577.575207 444.878135 
L 584.74876 451.562311 
L 591.922314 450.225475 
L 599.095868 446.21497 
L 606.269421 451.562311 
L 613.442975 439.530795 
L 620.616529 451.562311 
L 627.790083 450.225475 
L 634.963636 451.562311 
L 642.13719 448.88864 
L 649.310744 456.909651 
L 656.484298 444.878135 
L 663.657851 451.562311 
L 670.831405 451.562311 
L 678.004959 443.5413 
L 685.178512 448.88864 
L 692.352066 451.562311 
L 699.52562 450.225475 
L 706.699174 454.235981 
L 713.872727 439.530795 
L 721.046281 450.225475 
L 728.219835 459.583321 
L 735.393388 448.88864 
L 742.566942 455.572816 
L 749.740496 455.572816 
L 756.91405 451.562311 
L 764.087603 456.909651 
L 771.261157 439.530795 
L 778.434711 448.88864 
L 785.608264 450.225475 
L 792.781818 456.909651 
L 799.955372 451.562311 
L 807.128926 447.551805 
L 814.302479 447.551805 
L 821.476033 447.551805 
L 828.649587 447.551805 
L 835.82314 440.86763 
L 842.996694 451.562311 
L 850.170248 454.235981 
L 857.343802 448.88864 
L 864.517355 448.88864 
L 871.690909 454.235981 
" clip-path="url(#p5944e324e0)" style="fill: none; stroke: #008000; stroke-width: 1.5; stroke-linecap: square"/>
    <defs>
     <path id="m489ec121ba" d="M 0 2 
C 0.530406 2 1.03916 1.789267 1.414214 1.414214 
C 1.789267 1.03916 2 0.530406 2 0 
C 2 -0.530406 1.789267 -1.03916 1.414214 -1.414214 
C 1.03916 -1.789267 0.530406 -2 0 -2 
C -0.530406 -2 -1.03916 -1.789267 -1.414214 -1.414214 
C -1.789267 -1.03916 -2 -0.530406 -2 0 
C -2 0.530406 -1.789267 1.03916 -1.414214 1.414214 
C -1.03916 1.789267 -0.530406 2 0 2 
z
" style="stroke: #008000"/>
    </defs>
    <g clip-path="url(#p5944e324e0)">
     <use xlink:href="#m489ec121ba" x="161.509091" y="276.436913" style="fill: #008000; stroke: #008000"/>
     <use xlink:href="#m489ec121ba" x="168.682645" y="372.68904" style="fill: #008000; stroke: #008000"/>
     <use xlink:href="#m489ec121ba" x="175.856198" y="415.467763" style="fill: #008000; stroke: #008000"/>
     <use xlink:href="#m489ec121ba" x="183.029752" y="415.467763" style="fill: #008000; stroke: #008000"/>
     <use xlink:href="#m489ec121ba" x="190.203306" y="431.509784" style="fill: #008000; stroke: #008000"/>
     <use xlink:href="#m489ec121ba" x="197.37686" y="440.86763" style="fill: #008000; stroke: #008000"/>
     <use xlink:href="#m489ec121ba" x="204.550413" y="448.88864" style="fill: #008000; stroke: #008000"/>
     <use xlink:href="#m489ec121ba" x="211.723967" y="443.5413" style="fill: #008000; stroke: #008000"/>
     <use xlink:href="#m489ec121ba" x="218.897521" y="443.5413" style="fill: #008000; stroke: #008000"/>
     <use xlink:href="#m489ec121ba" x="226.071074" y="443.5413" style="fill: #008000; stroke: #008000"/>
     <use xlink:href="#m489ec121ba" x="233.244628" y="443.5413" style="fill: #008000; stroke: #008000"/>
     <use xlink:href="#m489ec121ba" x="240.418182" y="446.21497" style="fill: #008000; stroke: #008000"/>
     <use xlink:href="#m489ec121ba" x="247.591736" y="455.572816" style="fill: #008000; stroke: #008000"/>
     <use xlink:href="#m489ec121ba" x="254.765289" y="455.572816" style="fill: #008000; stroke: #008000"/>
     <use xlink:href="#m489ec121ba" x="261.938843" y="446.21497" style="fill: #008000; stroke: #008000"/>
     <use xlink:href="#m489ec121ba" x="269.112397" y="446.21497" style="fill: #008000; stroke: #008000"/>
     <use xlink:href="#m489ec121ba" x="276.28595" y="451.562311" style="fill: #008000; stroke: #008000"/>
     <use xlink:href="#m489ec121ba" x="283.459504" y="444.878135" style="fill: #008000; stroke: #008000"/>
     <use xlink:href="#m489ec121ba" x="290.633058" y="451.562311" style="fill: #008000; stroke: #008000"/>
     <use xlink:href="#m489ec121ba" x="297.806612" y="447.551805" style="fill: #008000; stroke: #008000"/>
     <use xlink:href="#m489ec121ba" x="304.980165" y="446.21497" style="fill: #008000; stroke: #008000"/>
     <use xlink:href="#m489ec121ba" x="312.153719" y="451.562311" style="fill: #008000; stroke: #008000"/>
     <use xlink:href="#m489ec121ba" x="319.327273" y="451.562311" style="fill: #008000; stroke: #008000"/>
     <use xlink:href="#m489ec121ba" x="326.500826" y="454.235981" style="fill: #008000; stroke: #008000"/>
     <use xlink:href="#m489ec121ba" x="333.67438" y="448.88864" style="fill: #008000; stroke: #008000"/>
     <use xlink:href="#m489ec121ba" x="340.847934" y="446.21497" style="fill: #008000; stroke: #008000"/>
     <use xlink:href="#m489ec121ba" x="348.021488" y="451.562311" style="fill: #008000; stroke: #008000"/>
     <use xlink:href="#m489ec121ba" x="355.195041" y="450.225475" style="fill: #008000; stroke: #008000"/>
     <use xlink:href="#m489ec121ba" x="362.368595" y="447.551805" style="fill: #008000; stroke: #008000"/>
     <use xlink:href="#m489ec121ba" x="369.542149" y="451.562311" style="fill: #008000; stroke: #008000"/>
     <use xlink:href="#m489ec121ba" x="376.715702" y="446.21497" style="fill: #008000; stroke: #008000"/>
     <use xlink:href="#m489ec121ba" x="383.889256" y="444.878135" style="fill: #008000; stroke: #008000"/>
     <use xlink:href="#m489ec121ba" x="391.06281" y="451.562311" style="fill: #008000; stroke: #008000"/>
     <use xlink:href="#m489ec121ba" x="398.236364" y="444.878135" style="fill: #008000; stroke: #008000"/>
     <use xlink:href="#m489ec121ba" x="405.409917" y="446.21497" style="fill: #008000; stroke: #008000"/>
     <use xlink:href="#m489ec121ba" x="412.583471" y="448.88864" style="fill: #008000; stroke: #008000"/>
     <use xlink:href="#m489ec121ba" x="419.757025" y="447.551805" style="fill: #008000; stroke: #008000"/>
     <use xlink:href="#m489ec121ba" x="426.930579" y="448.88864" style="fill: #008000; stroke: #008000"/>
     <use xlink:href="#m489ec121ba" x="434.104132" y="452.899146" style="fill: #008000; stroke: #008000"/>
     <use xlink:href="#m489ec121ba" x="441.277686" y="448.88864" style="fill: #008000; stroke: #008000"/>
     <use xlink:href="#m489ec121ba" x="448.45124" y="456.909651" style="fill: #008000; stroke: #008000"/>
     <use xlink:href="#m489ec121ba" x="455.624793" y="444.878135" style="fill: #008000; stroke: #008000"/>
     <use xlink:href="#m489ec121ba" x="462.798347" y="455.572816" style="fill: #008000; stroke: #008000"/>
     <use xlink:href="#m489ec121ba" x="469.971901" y="447.551805" style="fill: #008000; stroke: #008000"/>
     <use xlink:href="#m489ec121ba" x="477.145455" y="443.5413" style="fill: #008000; stroke: #008000"/>
     <use xlink:href="#m489ec121ba" x="484.319008" y="447.551805" style="fill: #008000; stroke: #008000"/>
     <use xlink:href="#m489ec121ba" x="491.492562" y="454.235981" style="fill: #008000; stroke: #008000"/>
     <use xlink:href="#m489ec121ba" x="498.666116" y="448.88864" style="fill: #008000; stroke: #008000"/>
     <use xlink:href="#m489ec121ba" x="505.839669" y="438.19396" style="fill: #008000; stroke: #008000"/>
     <use xlink:href="#m489ec121ba" x="513.013223" y="455.572816" style="fill: #008000; stroke: #008000"/>
     <use xlink:href="#m489ec121ba" x="520.186777" y="447.551805" style="fill: #008000; stroke: #008000"/>
     <use xlink:href="#m489ec121ba" x="527.360331" y="439.530795" style="fill: #008000; stroke: #008000"/>
     <use xlink:href="#m489ec121ba" x="534.533884" y="443.5413" style="fill: #008000; stroke: #008000"/>
     <use xlink:href="#m489ec121ba" x="541.707438" y="451.562311" style="fill: #008000; stroke: #008000"/>
     <use xlink:href="#m489ec121ba" x="548.880992" y="444.878135" style="fill: #008000; stroke: #008000"/>
     <use xlink:href="#m489ec121ba" x="556.054545" y="443.5413" style="fill: #008000; stroke: #008000"/>
     <use xlink:href="#m489ec121ba" x="563.228099" y="446.21497" style="fill: #008000; stroke: #008000"/>
     <use xlink:href="#m489ec121ba" x="570.401653" y="450.225475" style="fill: #008000; stroke: #008000"/>
     <use xlink:href="#m489ec121ba" x="577.575207" y="444.878135" style="fill: #008000; stroke: #008000"/>
     <use xlink:href="#m489ec121ba" x="584.74876" y="451.562311" style="fill: #008000; stroke: #008000"/>
     <use xlink:href="#m489ec121ba" x="591.922314" y="450.225475" style="fill: #008000; stroke: #008000"/>
     <use xlink:href="#m489ec121ba" x="599.095868" y="446.21497" style="fill: #008000; stroke: #008000"/>
     <use xlink:href="#m489ec121ba" x="606.269421" y="451.562311" style="fill: #008000; stroke: #008000"/>
     <use xlink:href="#m489ec121ba" x="613.442975" y="439.530795" style="fill: #008000; stroke: #008000"/>
     <use xlink:href="#m489ec121ba" x="620.616529" y="451.562311" style="fill: #008000; stroke: #008000"/>
     <use xlink:href="#m489ec121ba" x="627.790083" y="450.225475" style="fill: #008000; stroke: #008000"/>
     <use xlink:href="#m489ec121ba" x="634.963636" y="451.562311" style="fill: #008000; stroke: #008000"/>
     <use xlink:href="#m489ec121ba" x="642.13719" y="448.88864" style="fill: #008000; stroke: #008000"/>
     <use xlink:href="#m489ec121ba" x="649.310744" y="456.909651" style="fill: #008000; stroke: #008000"/>
     <use xlink:href="#m489ec121ba" x="656.484298" y="444.878135" style="fill: #008000; stroke: #008000"/>
     <use xlink:href="#m489ec121ba" x="663.657851" y="451.562311" style="fill: #008000; stroke: #008000"/>
     <use xlink:href="#m489ec121ba" x="670.831405" y="451.562311" style="fill: #008000; stroke: #008000"/>
     <use xlink:href="#m489ec121ba" x="678.004959" y="443.5413" style="fill: #008000; stroke: #008000"/>
     <use xlink:href="#m489ec121ba" x="685.178512" y="448.88864" style="fill: #008000; stroke: #008000"/>
     <use xlink:href="#m489ec121ba" x="692.352066" y="451.562311" style="fill: #008000; stroke: #008000"/>
     <use xlink:href="#m489ec121ba" x="699.52562" y="450.225475" style="fill: #008000; stroke: #008000"/>
     <use xlink:href="#m489ec121ba" x="706.699174" y="454.235981" style="fill: #008000; stroke: #008000"/>
     <use xlink:href="#m489ec121ba" x="713.872727" y="439.530795" style="fill: #008000; stroke: #008000"/>
     <use xlink:href="#m489ec121ba" x="721.046281" y="450.225475" style="fill: #008000; stroke: #008000"/>
     <use xlink:href="#m489ec121ba" x="728.219835" y="459.583321" style="fill: #008000; stroke: #008000"/>
     <use xlink:href="#m489ec121ba" x="735.393388" y="448.88864" style="fill: #008000; stroke: #008000"/>
     <use xlink:href="#m489ec121ba" x="742.566942" y="455.572816" style="fill: #008000; stroke: #008000"/>
     <use xlink:href="#m489ec121ba" x="749.740496" y="455.572816" style="fill: #008000; stroke: #008000"/>
     <use xlink:href="#m489ec121ba" x="756.91405" y="451.562311" style="fill: #008000; stroke: #008000"/>
     <use xlink:href="#m489ec121ba" x="764.087603" y="456.909651" style="fill: #008000; stroke: #008000"/>
     <use xlink:href="#m489ec121ba" x="771.261157" y="439.530795" style="fill: #008000; stroke: #008000"/>
     <use xlink:href="#m489ec121ba" x="778.434711" y="448.88864" style="fill: #008000; stroke: #008000"/>
     <use xlink:href="#m489ec121ba" x="785.608264" y="450.225475" style="fill: #008000; stroke: #008000"/>
     <use xlink:href="#m489ec121ba" x="792.781818" y="456.909651" style="fill: #008000; stroke: #008000"/>
     <use xlink:href="#m489ec121ba" x="799.955372" y="451.562311" style="fill: #008000; stroke: #008000"/>
     <use xlink:href="#m489ec121ba" x="807.128926" y="447.551805" style="fill: #008000; stroke: #008000"/>
     <use xlink:href="#m489ec121ba" x="814.302479" y="447.551805" style="fill: #008000; stroke: #008000"/>
     <use xlink:href="#m489ec121ba" x="821.476033" y="447.551805" style="fill: #008000; stroke: #008000"/>
     <use xlink:href="#m489ec121ba" x="828.649587" y="447.551805" style="fill: #008000; stroke: #008000"/>
     <use xlink:href="#m489ec121ba" x="835.82314" y="440.86763" style="fill: #008000; stroke: #008000"/>
     <use xlink:href="#m489ec121ba" x="842.996694" y="451.562311" style="fill: #008000; stroke: #008000"/>
     <use xlink:href="#m489ec121ba" x="850.170248" y="454.235981" style="fill: #008000; stroke: #008000"/>
     <use xlink:href="#m489ec121ba" x="857.343802" y="448.88864" style="fill: #008000; stroke: #008000"/>
     <use xlink:href="#m489ec121ba" x="864.517355" y="448.88864" style="fill: #008000; stroke: #008000"/>
     <use xlink:href="#m489ec121ba" x="871.690909" y="454.235981" style="fill: #008000; stroke: #008000"/>
    </g>
   </g>
   <g id="patch_3">
    <path d="M 126 512.64 
L 126 69.12 
" style="fill: none; stroke: #000000; stroke-width: 0.8; stroke-linejoin: miter; stroke-linecap: square"/>
   </g>
   <g id="patch_4">
    <path d="M 907.2 512.64 
L 907.2 69.12 
" style="fill: none; stroke: #000000; stroke-width: 0.8; stroke-linejoin: miter; stroke-linecap: square"/>
   </g>
   <g id="patch_5">
    <path d="M 126 512.64 
L 907.2 512.64 
" style="fill: none; stroke: #000000; stroke-width: 0.8; stroke-linejoin: miter; stroke-linecap: square"/>
   </g>
   <g id="patch_6">
    <path d="M 126 69.12 
L 907.2 69.12 
" style="fill: none; stroke: #000000; stroke-width: 0.8; stroke-linejoin: miter; stroke-linecap: square"/>
   </g>
   <g id="text_21">
    <!-- Effect of Ions on a 1.4 nm Gamma Sphere at 275 K -->
    <g transform="translate(241.073438 63.12) scale(0.216 -0.216)">
     <defs>
      <path id="DejaVuSans-45" d="M 628 4666 
L 3578 4666 
L 3578 4134 
L 1259 4134 
L 1259 2753 
L 3481 2753 
L 3481 2222 
L 1259 2222 
L 1259 531 
L 3634 531 
L 3634 0 
L 628 0 
L 628 4666 
z
" transform="scale(0.015625)"/>
      <path id="DejaVuSans-66" d="M 2375 4863 
L 2375 4384 
L 1825 4384 
Q 1516 4384 1395 4259 
Q 1275 4134 1275 3809 
L 1275 3500 
L 2222 3500 
L 2222 3053 
L 1275 3053 
L 1275 0 
L 697 0 
L 697 3053 
L 147 3053 
L 147 3500 
L 697 3500 
L 697 3744 
Q 697 4328 969 4595 
Q 1241 4863 1831 4863 
L 2375 4863 
z
" transform="scale(0.015625)"/>
      <path id="DejaVuSans-63" d="M 3122 3366 
L 3122 2828 
Q 2878 2963 2633 3030 
Q 2388 3097 2138 3097 
Q 1578 3097 1268 2742 
Q 959 2388 959 1747 
Q 959 1106 1268 751 
Q 1578 397 2138 397 
Q 2388 397 2633 464 
Q 2878 531 3122 666 
L 3122 134 
Q 2881 22 2623 -34 
Q 2366 -91 2075 -91 
Q 1284 -91 818 406 
Q 353 903 353 1747 
Q 353 2603 823 3093 
Q 1294 3584 2113 3584 
Q 2378 3584 2631 3529 
Q 2884 3475 3122 3366 
z
" transform="scale(0.015625)"/>
      <path id="DejaVuSans-6f" d="M 1959 3097 
Q 1497 3097 1228 2736 
Q 959 2375 959 1747 
Q 959 1119 1226 758 
Q 1494 397 1959 397 
Q 2419 397 2687 759 
Q 2956 1122 2956 1747 
Q 2956 2369 2687 2733 
Q 2419 3097 1959 3097 
z
M 1959 3584 
Q 2709 3584 3137 3096 
Q 3566 2609 3566 1747 
Q 3566 888 3137 398 
Q 2709 -91 1959 -91 
Q 1206 -91 779 398 
Q 353 888 353 1747 
Q 353 2609 779 3096 
Q 1206 3584 1959 3584 
z
" transform="scale(0.015625)"/>
      <path id="DejaVuSans-49" d="M 628 4666 
L 1259 4666 
L 1259 0 
L 628 0 
L 628 4666 
z
" transform="scale(0.015625)"/>
      <path id="DejaVuSans-2e" d="M 684 794 
L 1344 794 
L 1344 0 
L 684 0 
L 684 794 
z
" transform="scale(0.015625)"/>
      <path id="DejaVuSans-47" d="M 3809 666 
L 3809 1919 
L 2778 1919 
L 2778 2438 
L 4434 2438 
L 4434 434 
Q 4069 175 3628 42 
Q 3188 -91 2688 -91 
Q 1594 -91 976 548 
Q 359 1188 359 2328 
Q 359 3472 976 4111 
Q 1594 4750 2688 4750 
Q 3144 4750 3555 4637 
Q 3966 4525 4313 4306 
L 4313 3634 
Q 3963 3931 3569 4081 
Q 3175 4231 2741 4231 
Q 1884 4231 1454 3753 
Q 1025 3275 1025 2328 
Q 1025 1384 1454 906 
Q 1884 428 2741 428 
Q 3075 428 3337 486 
Q 3600 544 3809 666 
z
" transform="scale(0.015625)"/>
      <path id="DejaVuSans-70" d="M 1159 525 
L 1159 -1331 
L 581 -1331 
L 581 3500 
L 1159 3500 
L 1159 2969 
Q 1341 3281 1617 3432 
Q 1894 3584 2278 3584 
Q 2916 3584 3314 3078 
Q 3713 2572 3713 1747 
Q 3713 922 3314 415 
Q 2916 -91 2278 -91 
Q 1894 -91 1617 61 
Q 1341 213 1159 525 
z
M 3116 1747 
Q 3116 2381 2855 2742 
Q 2594 3103 2138 3103 
Q 1681 3103 1420 2742 
Q 1159 2381 1159 1747 
Q 1159 1113 1420 752 
Q 1681 391 2138 391 
Q 2594 391 2855 752 
Q 3116 1113 3116 1747 
z
" transform="scale(0.015625)"/>
      <path id="DejaVuSans-68" d="M 3513 2113 
L 3513 0 
L 2938 0 
L 2938 2094 
Q 2938 2591 2744 2837 
Q 2550 3084 2163 3084 
Q 1697 3084 1428 2787 
Q 1159 2491 1159 1978 
L 1159 0 
L 581 0 
L 581 4863 
L 1159 4863 
L 1159 2956 
Q 1366 3272 1645 3428 
Q 1925 3584 2291 3584 
Q 2894 3584 3203 3211 
Q 3513 2838 3513 2113 
z
" transform="scale(0.015625)"/>
      <path id="DejaVuSans-37" d="M 525 4666 
L 3525 4666 
L 3525 4397 
L 1831 0 
L 1172 0 
L 2766 4134 
L 525 4134 
L 525 4666 
z
" transform="scale(0.015625)"/>
      <path id="DejaVuSans-4b" d="M 628 4666 
L 1259 4666 
L 1259 2694 
L 3353 4666 
L 4166 4666 
L 1850 2491 
L 4331 0 
L 3500 0 
L 1259 2247 
L 1259 0 
L 628 0 
L 628 4666 
z
" transform="scale(0.015625)"/>
     </defs>
     <use xlink:href="#DejaVuSans-45"/>
     <use xlink:href="#DejaVuSans-66" x="63.183594"/>
     <use xlink:href="#DejaVuSans-66" x="98.388672"/>
     <use xlink:href="#DejaVuSans-65" x="133.59375"/>
     <use xlink:href="#DejaVuSans-63" x="195.117188"/>
     <use xlink:href="#DejaVuSans-74" x="250.097656"/>
     <use xlink:href="#DejaVuSans-20" x="289.306641"/>
     <use xlink:href="#DejaVuSans-6f" x="321.09375"/>
     <use xlink:href="#DejaVuSans-66" x="382.275391"/>
     <use xlink:href="#DejaVuSans-20" x="417.480469"/>
     <use xlink:href="#DejaVuSans-49" x="449.267578"/>
     <use xlink:href="#DejaVuSans-6f" x="478.759766"/>
     <use xlink:href="#DejaVuSans-6e" x="539.941406"/>
     <use xlink:href="#DejaVuSans-73" x="603.320312"/>
     <use xlink:href="#DejaVuSans-20" x="655.419922"/>
     <use xlink:href="#DejaVuSans-6f" x="687.207031"/>
     <use xlink:href="#DejaVuSans-6e" x="748.388672"/>
     <use xlink:href="#DejaVuSans-20" x="811.767578"/>
     <use xlink:href="#DejaVuSans-61" x="843.554688"/>
     <use xlink:href="#DejaVuSans-20" x="904.833984"/>
     <use xlink:href="#DejaVuSans-31" x="936.621094"/>
     <use xlink:href="#DejaVuSans-2e" x="1000.244141"/>
     <use xlink:href="#DejaVuSans-34" x="1032.03125"/>
     <use xlink:href="#DejaVuSans-20" x="1095.654297"/>
     <use xlink:href="#DejaVuSans-6e" x="1127.441406"/>
     <use xlink:href="#DejaVuSans-6d" x="1190.820312"/>
     <use xlink:href="#DejaVuSans-20" x="1288.232422"/>
     <use xlink:href="#DejaVuSans-47" x="1320.019531"/>
     <use xlink:href="#DejaVuSans-61" x="1397.509766"/>
     <use xlink:href="#DejaVuSans-6d" x="1458.789062"/>
     <use xlink:href="#DejaVuSans-6d" x="1556.201172"/>
     <use xlink:href="#DejaVuSans-61" x="1653.613281"/>
     <use xlink:href="#DejaVuSans-20" x="1714.892578"/>
     <use xlink:href="#DejaVuSans-53" x="1746.679688"/>
     <use xlink:href="#DejaVuSans-70" x="1810.15625"/>
     <use xlink:href="#DejaVuSans-68" x="1873.632812"/>
     <use xlink:href="#DejaVuSans-65" x="1937.011719"/>
     <use xlink:href="#DejaVuSans-72" x="1998.535156"/>
     <use xlink:href="#DejaVuSans-65" x="2037.398438"/>
     <use xlink:href="#DejaVuSans-20" x="2098.921875"/>
     <use xlink:href="#DejaVuSans-61" x="2130.708984"/>
     <use xlink:href="#DejaVuSans-74" x="2191.988281"/>
     <use xlink:href="#DejaVuSans-20" x="2231.197266"/>
     <use xlink:href="#DejaVuSans-32" x="2262.984375"/>
     <use xlink:href="#DejaVuSans-37" x="2326.607422"/>
     <use xlink:href="#DejaVuSans-35" x="2390.230469"/>
     <use xlink:href="#DejaVuSans-20" x="2453.853516"/>
     <use xlink:href="#DejaVuSans-4b" x="2485.640625"/>
    </g>
   </g>
   <g id="legend_1">
    <g id="patch_7">
     <path d="M 759.81375 162.781875 
L 894.6 162.781875 
Q 898.2 162.781875 898.2 159.181875 
L 898.2 81.72 
Q 898.2 78.12 894.6 78.12 
L 759.81375 78.12 
Q 756.21375 78.12 756.21375 81.72 
L 756.21375 159.181875 
Q 756.21375 162.781875 759.81375 162.781875 
z
" style="fill: #ffffff; opacity: 0.8; stroke: #cccccc; stroke-linejoin: miter"/>
    </g>
    <g id="line2d_40">
     <path d="M 763.41375 92.697187 
L 781.41375 92.697187 
L 799.41375 92.697187 
" style="fill: none; stroke: #0000ff; stroke-width: 1.5; stroke-linecap: square"/>
     <g>
      <use xlink:href="#m3d65c48788" x="781.41375" y="92.697187" style="fill: #0000ff; stroke: #0000ff"/>
     </g>
    </g>
    <g id="text_22">
     <!-- 0 Ions -->
     <g transform="translate(813.81375 98.997187) scale(0.18 -0.18)">
      <use xlink:href="#DejaVuSans-30"/>
      <use xlink:href="#DejaVuSans-20" x="63.623047"/>
      <use xlink:href="#DejaVuSans-49" x="95.410156"/>
      <use xlink:href="#DejaVuSans-6f" x="124.902344"/>
      <use xlink:href="#DejaVuSans-6e" x="186.083984"/>
      <use xlink:href="#DejaVuSans-73" x="249.462891"/>
     </g>
    </g>
    <g id="line2d_41">
     <path d="M 763.41375 119.117812 
L 781.41375 119.117812 
L 799.41375 119.117812 
" style="fill: none; stroke: #ffa500; stroke-width: 1.5; stroke-linecap: square"/>
     <g>
      <use xlink:href="#m4894c82771" x="781.41375" y="119.117812" style="fill: #ffa500; stroke: #ffa500"/>
     </g>
    </g>
    <g id="text_23">
     <!-- 50 Ions -->
     <g transform="translate(813.81375 125.417812) scale(0.18 -0.18)">
      <use xlink:href="#DejaVuSans-35"/>
      <use xlink:href="#DejaVuSans-30" x="63.623047"/>
      <use xlink:href="#DejaVuSans-20" x="127.246094"/>
      <use xlink:href="#DejaVuSans-49" x="159.033203"/>
      <use xlink:href="#DejaVuSans-6f" x="188.525391"/>
      <use xlink:href="#DejaVuSans-6e" x="249.707031"/>
      <use xlink:href="#DejaVuSans-73" x="313.085938"/>
     </g>
    </g>
    <g id="line2d_42">
     <path d="M 763.41375 145.538437 
L 781.41375 145.538437 
L 799.41375 145.538437 
" style="fill: none; stroke: #008000; stroke-width: 1.5; stroke-linecap: square"/>
     <g>
      <use xlink:href="#m489ec121ba" x="781.41375" y="145.538437" style="fill: #008000; stroke: #008000"/>
     </g>
    </g>
    <g id="text_24">
     <!-- 100 Ions -->
     <g transform="translate(813.81375 151.838437) scale(0.18 -0.18)">
      <use xlink:href="#DejaVuSans-31"/>
      <use xlink:href="#DejaVuSans-30" x="63.623047"/>
      <use xlink:href="#DejaVuSans-30" x="127.246094"/>
      <use xlink:href="#DejaVuSans-20" x="190.869141"/>
      <use xlink:href="#DejaVuSans-49" x="222.65625"/>
      <use xlink:href="#DejaVuSans-6f" x="252.148438"/>
      <use xlink:href="#DejaVuSans-6e" x="313.330078"/>
      <use xlink:href="#DejaVuSans-73" x="376.708984"/>
     </g>
    </g>
   </g>
  </g>
 </g>
 <defs>
  <clipPath id="p5944e324e0">
   <rect x="126" y="69.12" width="781.2" height="443.52"/>
  </clipPath>
 </defs>
</svg>
