<?xml version="1.0" encoding="utf-8" standalone="no"?>
<!DOCTYPE svg PUBLIC "-//W3C//DTD SVG 1.1//EN"
  "http://www.w3.org/Graphics/SVG/1.1/DTD/svg11.dtd">
<svg xmlns:xlink="http://www.w3.org/1999/xlink" width="1008pt" height="576pt" viewBox="0 0 1008 576" xmlns="http://www.w3.org/2000/svg" version="1.1">
 <metadata>
  <rdf:RDF xmlns:dc="http://purl.org/dc/elements/1.1/" xmlns:cc="http://creativecommons.org/ns#" xmlns:rdf="http://www.w3.org/1999/02/22-rdf-syntax-ns#">
   <cc:Work>
    <dc:type rdf:resource="http://purl.org/dc/dcmitype/StillImage"/>
    <dc:date>2024-12-11T21:24:56.726197</dc:date>
    <dc:format>image/svg+xml</dc:format>
    <dc:creator>
     <cc:Agent>
      <dc:title>Matplotlib v3.8.0, https://matplotlib.org/</dc:title>
     </cc:Agent>
    </dc:creator>
   </cc:Work>
  </rdf:RDF>
 </metadata>
 <defs>
  <style type="text/css">*{stroke-linejoin: round; stroke-linecap: butt}</style>
 </defs>
 <g id="figure_1">
  <g id="patch_1">
   <path d="M 0 576 
L 1008 576 
L 1008 0 
L 0 0 
z
" style="fill: #ffffff"/>
  </g>
  <g id="axes_1">
   <g id="patch_2">
    <path d="M 79.668 519.3 
L 979.785 519.3 
L 979.785 19.44 
L 79.668 19.44 
z
" style="fill: #ffffff"/>
   </g>
   <g id="matplotlib.axis_1">
    <g id="xtick_1">
     <g id="line2d_1">
      <path d="M 79.668 519.3 
L 79.668 19.44 
" clip-path="url(#pa5e2b26adc)" style="fill: none; stroke: #cccccc; stroke-linecap: round"/>
     </g>
     <g id="text_1">
      <!-- 0.0 -->
      <g style="fill: #262626" transform="translate(70.921281 537.158281) scale(0.11 -0.11)">
       <defs>
        <path id="DejaVuSans-30" d="M 2034 4250 
Q 1547 4250 1301 3770 
Q 1056 3291 1056 2328 
Q 1056 1369 1301 889 
Q 1547 409 2034 409 
Q 2525 409 2770 889 
Q 3016 1369 3016 2328 
Q 3016 3291 2770 3770 
Q 2525 4250 2034 4250 
z
M 2034 4750 
Q 2819 4750 3233 4129 
Q 3647 3509 3647 2328 
Q 3647 1150 3233 529 
Q 2819 -91 2034 -91 
Q 1250 -91 836 529 
Q 422 1150 422 2328 
Q 422 3509 836 4129 
Q 1250 4750 2034 4750 
z
" transform="scale(0.015625)"/>
        <path id="DejaVuSans-2e" d="M 684 794 
L 1344 794 
L 1344 0 
L 684 0 
L 684 794 
z
" transform="scale(0.015625)"/>
       </defs>
       <use xlink:href="#DejaVuSans-30"/>
       <use xlink:href="#DejaVuSans-2e" x="63.623047"/>
       <use xlink:href="#DejaVuSans-30" x="95.410156"/>
      </g>
     </g>
    </g>
    <g id="xtick_2">
     <g id="line2d_2">
      <path d="M 229.6875 519.3 
L 229.6875 19.44 
" clip-path="url(#pa5e2b26adc)" style="fill: none; stroke: #cccccc; stroke-linecap: round"/>
     </g>
     <g id="text_2">
      <!-- 0.5 -->
      <g style="fill: #262626" transform="translate(220.940781 537.158281) scale(0.11 -0.11)">
       <defs>
        <path id="DejaVuSans-35" d="M 691 4666 
L 3169 4666 
L 3169 4134 
L 1269 4134 
L 1269 2991 
Q 1406 3038 1543 3061 
Q 1681 3084 1819 3084 
Q 2600 3084 3056 2656 
Q 3513 2228 3513 1497 
Q 3513 744 3044 326 
Q 2575 -91 1722 -91 
Q 1428 -91 1123 -41 
Q 819 9 494 109 
L 494 744 
Q 775 591 1075 516 
Q 1375 441 1709 441 
Q 2250 441 2565 725 
Q 2881 1009 2881 1497 
Q 2881 1984 2565 2268 
Q 2250 2553 1709 2553 
Q 1456 2553 1204 2497 
Q 953 2441 691 2322 
L 691 4666 
z
" transform="scale(0.015625)"/>
       </defs>
       <use xlink:href="#DejaVuSans-30"/>
       <use xlink:href="#DejaVuSans-2e" x="63.623047"/>
       <use xlink:href="#DejaVuSans-35" x="95.410156"/>
      </g>
     </g>
    </g>
    <g id="xtick_3">
     <g id="line2d_3">
      <path d="M 379.707 519.3 
L 379.707 19.44 
" clip-path="url(#pa5e2b26adc)" style="fill: none; stroke: #cccccc; stroke-linecap: round"/>
     </g>
     <g id="text_3">
      <!-- 1.0 -->
      <g style="fill: #262626" transform="translate(370.960281 537.158281) scale(0.11 -0.11)">
       <defs>
        <path id="DejaVuSans-31" d="M 794 531 
L 1825 531 
L 1825 4091 
L 703 3866 
L 703 4441 
L 1819 4666 
L 2450 4666 
L 2450 531 
L 3481 531 
L 3481 0 
L 794 0 
L 794 531 
z
" transform="scale(0.015625)"/>
       </defs>
       <use xlink:href="#DejaVuSans-31"/>
       <use xlink:href="#DejaVuSans-2e" x="63.623047"/>
       <use xlink:href="#DejaVuSans-30" x="95.410156"/>
      </g>
     </g>
    </g>
    <g id="xtick_4">
     <g id="line2d_4">
      <path d="M 529.7265 519.3 
L 529.7265 19.44 
" clip-path="url(#pa5e2b26adc)" style="fill: none; stroke: #cccccc; stroke-linecap: round"/>
     </g>
     <g id="text_4">
      <!-- 1.5 -->
      <g style="fill: #262626" transform="translate(520.979781 537.158281) scale(0.11 -0.11)">
       <use xlink:href="#DejaVuSans-31"/>
       <use xlink:href="#DejaVuSans-2e" x="63.623047"/>
       <use xlink:href="#DejaVuSans-35" x="95.410156"/>
      </g>
     </g>
    </g>
    <g id="xtick_5">
     <g id="line2d_5">
      <path d="M 679.746 519.3 
L 679.746 19.44 
" clip-path="url(#pa5e2b26adc)" style="fill: none; stroke: #cccccc; stroke-linecap: round"/>
     </g>
     <g id="text_5">
      <!-- 2.0 -->
      <g style="fill: #262626" transform="translate(670.999281 537.158281) scale(0.11 -0.11)">
       <defs>
        <path id="DejaVuSans-32" d="M 1228 531 
L 3431 531 
L 3431 0 
L 469 0 
L 469 531 
Q 828 903 1448 1529 
Q 2069 2156 2228 2338 
Q 2531 2678 2651 2914 
Q 2772 3150 2772 3378 
Q 2772 3750 2511 3984 
Q 2250 4219 1831 4219 
Q 1534 4219 1204 4116 
Q 875 4013 500 3803 
L 500 4441 
Q 881 4594 1212 4672 
Q 1544 4750 1819 4750 
Q 2544 4750 2975 4387 
Q 3406 4025 3406 3419 
Q 3406 3131 3298 2873 
Q 3191 2616 2906 2266 
Q 2828 2175 2409 1742 
Q 1991 1309 1228 531 
z
" transform="scale(0.015625)"/>
       </defs>
       <use xlink:href="#DejaVuSans-32"/>
       <use xlink:href="#DejaVuSans-2e" x="63.623047"/>
       <use xlink:href="#DejaVuSans-30" x="95.410156"/>
      </g>
     </g>
    </g>
    <g id="xtick_6">
     <g id="line2d_6">
      <path d="M 829.7655 519.3 
L 829.7655 19.44 
" clip-path="url(#pa5e2b26adc)" style="fill: none; stroke: #cccccc; stroke-linecap: round"/>
     </g>
     <g id="text_6">
      <!-- 2.5 -->
      <g style="fill: #262626" transform="translate(821.018781 537.158281) scale(0.11 -0.11)">
       <use xlink:href="#DejaVuSans-32"/>
       <use xlink:href="#DejaVuSans-2e" x="63.623047"/>
       <use xlink:href="#DejaVuSans-35" x="95.410156"/>
      </g>
     </g>
    </g>
    <g id="xtick_7">
     <g id="line2d_7">
      <path d="M 979.785 519.3 
L 979.785 19.44 
" clip-path="url(#pa5e2b26adc)" style="fill: none; stroke: #cccccc; stroke-linecap: round"/>
     </g>
     <g id="text_7">
      <!-- 3.0 -->
      <g style="fill: #262626" transform="translate(971.038281 537.158281) scale(0.11 -0.11)">
       <defs>
        <path id="DejaVuSans-33" d="M 2597 2516 
Q 3050 2419 3304 2112 
Q 3559 1806 3559 1356 
Q 3559 666 3084 287 
Q 2609 -91 1734 -91 
Q 1441 -91 1130 -33 
Q 819 25 488 141 
L 488 750 
Q 750 597 1062 519 
Q 1375 441 1716 441 
Q 2309 441 2620 675 
Q 2931 909 2931 1356 
Q 2931 1769 2642 2001 
Q 2353 2234 1838 2234 
L 1294 2234 
L 1294 2753 
L 1863 2753 
Q 2328 2753 2575 2939 
Q 2822 3125 2822 3475 
Q 2822 3834 2567 4026 
Q 2313 4219 1838 4219 
Q 1578 4219 1281 4162 
Q 984 4106 628 3988 
L 628 4550 
Q 988 4650 1302 4700 
Q 1616 4750 1894 4750 
Q 2613 4750 3031 4423 
Q 3450 4097 3450 3541 
Q 3450 3153 3228 2886 
Q 3006 2619 2597 2516 
z
" transform="scale(0.015625)"/>
       </defs>
       <use xlink:href="#DejaVuSans-33"/>
       <use xlink:href="#DejaVuSans-2e" x="63.623047"/>
       <use xlink:href="#DejaVuSans-30" x="95.410156"/>
      </g>
     </g>
    </g>
    <g id="text_8">
     <!-- Radius, $r$ / nm -->
     <g style="fill: #262626" transform="translate(487.6665 552.564062) scale(0.12 -0.12)">
      <defs>
       <path id="DejaVuSans-52" d="M 2841 2188 
Q 3044 2119 3236 1894 
Q 3428 1669 3622 1275 
L 4263 0 
L 3584 0 
L 2988 1197 
Q 2756 1666 2539 1819 
Q 2322 1972 1947 1972 
L 1259 1972 
L 1259 0 
L 628 0 
L 628 4666 
L 2053 4666 
Q 2853 4666 3247 4331 
Q 3641 3997 3641 3322 
Q 3641 2881 3436 2590 
Q 3231 2300 2841 2188 
z
M 1259 4147 
L 1259 2491 
L 2053 2491 
Q 2509 2491 2742 2702 
Q 2975 2913 2975 3322 
Q 2975 3731 2742 3939 
Q 2509 4147 2053 4147 
L 1259 4147 
z
" transform="scale(0.015625)"/>
       <path id="DejaVuSans-61" d="M 2194 1759 
Q 1497 1759 1228 1600 
Q 959 1441 959 1056 
Q 959 750 1161 570 
Q 1363 391 1709 391 
Q 2188 391 2477 730 
Q 2766 1069 2766 1631 
L 2766 1759 
L 2194 1759 
z
M 3341 1997 
L 3341 0 
L 2766 0 
L 2766 531 
Q 2569 213 2275 61 
Q 1981 -91 1556 -91 
Q 1019 -91 701 211 
Q 384 513 384 1019 
Q 384 1609 779 1909 
Q 1175 2209 1959 2209 
L 2766 2209 
L 2766 2266 
Q 2766 2663 2505 2880 
Q 2244 3097 1772 3097 
Q 1472 3097 1187 3025 
Q 903 2953 641 2809 
L 641 3341 
Q 956 3463 1253 3523 
Q 1550 3584 1831 3584 
Q 2591 3584 2966 3190 
Q 3341 2797 3341 1997 
z
" transform="scale(0.015625)"/>
       <path id="DejaVuSans-64" d="M 2906 2969 
L 2906 4863 
L 3481 4863 
L 3481 0 
L 2906 0 
L 2906 525 
Q 2725 213 2448 61 
Q 2172 -91 1784 -91 
Q 1150 -91 751 415 
Q 353 922 353 1747 
Q 353 2572 751 3078 
Q 1150 3584 1784 3584 
Q 2172 3584 2448 3432 
Q 2725 3281 2906 2969 
z
M 947 1747 
Q 947 1113 1208 752 
Q 1469 391 1925 391 
Q 2381 391 2643 752 
Q 2906 1113 2906 1747 
Q 2906 2381 2643 2742 
Q 2381 3103 1925 3103 
Q 1469 3103 1208 2742 
Q 947 2381 947 1747 
z
" transform="scale(0.015625)"/>
       <path id="DejaVuSans-69" d="M 603 3500 
L 1178 3500 
L 1178 0 
L 603 0 
L 603 3500 
z
M 603 4863 
L 1178 4863 
L 1178 4134 
L 603 4134 
L 603 4863 
z
" transform="scale(0.015625)"/>
       <path id="DejaVuSans-75" d="M 544 1381 
L 544 3500 
L 1119 3500 
L 1119 1403 
Q 1119 906 1312 657 
Q 1506 409 1894 409 
Q 2359 409 2629 706 
Q 2900 1003 2900 1516 
L 2900 3500 
L 3475 3500 
L 3475 0 
L 2900 0 
L 2900 538 
Q 2691 219 2414 64 
Q 2138 -91 1772 -91 
Q 1169 -91 856 284 
Q 544 659 544 1381 
z
M 1991 3584 
L 1991 3584 
z
" transform="scale(0.015625)"/>
       <path id="DejaVuSans-73" d="M 2834 3397 
L 2834 2853 
Q 2591 2978 2328 3040 
Q 2066 3103 1784 3103 
Q 1356 3103 1142 2972 
Q 928 2841 928 2578 
Q 928 2378 1081 2264 
Q 1234 2150 1697 2047 
L 1894 2003 
Q 2506 1872 2764 1633 
Q 3022 1394 3022 966 
Q 3022 478 2636 193 
Q 2250 -91 1575 -91 
Q 1294 -91 989 -36 
Q 684 19 347 128 
L 347 722 
Q 666 556 975 473 
Q 1284 391 1588 391 
Q 1994 391 2212 530 
Q 2431 669 2431 922 
Q 2431 1156 2273 1281 
Q 2116 1406 1581 1522 
L 1381 1569 
Q 847 1681 609 1914 
Q 372 2147 372 2553 
Q 372 3047 722 3315 
Q 1072 3584 1716 3584 
Q 2034 3584 2315 3537 
Q 2597 3491 2834 3397 
z
" transform="scale(0.015625)"/>
       <path id="DejaVuSans-2c" d="M 750 794 
L 1409 794 
L 1409 256 
L 897 -744 
L 494 -744 
L 750 256 
L 750 794 
z
" transform="scale(0.015625)"/>
       <path id="DejaVuSans-20" transform="scale(0.015625)"/>
       <path id="DejaVuSans-Oblique-72" d="M 2853 2969 
Q 2766 3016 2653 3041 
Q 2541 3066 2413 3066 
Q 1953 3066 1609 2717 
Q 1266 2369 1153 1784 
L 800 0 
L 225 0 
L 909 3500 
L 1484 3500 
L 1375 2956 
Q 1603 3259 1920 3421 
Q 2238 3584 2597 3584 
Q 2691 3584 2781 3573 
Q 2872 3563 2963 3538 
L 2853 2969 
z
" transform="scale(0.015625)"/>
       <path id="DejaVuSans-2f" d="M 1625 4666 
L 2156 4666 
L 531 -594 
L 0 -594 
L 1625 4666 
z
" transform="scale(0.015625)"/>
       <path id="DejaVuSans-6e" d="M 3513 2113 
L 3513 0 
L 2938 0 
L 2938 2094 
Q 2938 2591 2744 2837 
Q 2550 3084 2163 3084 
Q 1697 3084 1428 2787 
Q 1159 2491 1159 1978 
L 1159 0 
L 581 0 
L 581 3500 
L 1159 3500 
L 1159 2956 
Q 1366 3272 1645 3428 
Q 1925 3584 2291 3584 
Q 2894 3584 3203 3211 
Q 3513 2838 3513 2113 
z
" transform="scale(0.015625)"/>
       <path id="DejaVuSans-6d" d="M 3328 2828 
Q 3544 3216 3844 3400 
Q 4144 3584 4550 3584 
Q 5097 3584 5394 3201 
Q 5691 2819 5691 2113 
L 5691 0 
L 5113 0 
L 5113 2094 
Q 5113 2597 4934 2840 
Q 4756 3084 4391 3084 
Q 3944 3084 3684 2787 
Q 3425 2491 3425 1978 
L 3425 0 
L 2847 0 
L 2847 2094 
Q 2847 2600 2669 2842 
Q 2491 3084 2119 3084 
Q 1678 3084 1418 2786 
Q 1159 2488 1159 1978 
L 1159 0 
L 581 0 
L 581 3500 
L 1159 3500 
L 1159 2956 
Q 1356 3278 1631 3431 
Q 1906 3584 2284 3584 
Q 2666 3584 2933 3390 
Q 3200 3197 3328 2828 
z
" transform="scale(0.015625)"/>
      </defs>
      <use xlink:href="#DejaVuSans-52" transform="translate(0 0.015625)"/>
      <use xlink:href="#DejaVuSans-61" transform="translate(69.482422 0.015625)"/>
      <use xlink:href="#DejaVuSans-64" transform="translate(130.761719 0.015625)"/>
      <use xlink:href="#DejaVuSans-69" transform="translate(194.238281 0.015625)"/>
      <use xlink:href="#DejaVuSans-75" transform="translate(222.021484 0.015625)"/>
      <use xlink:href="#DejaVuSans-73" transform="translate(285.400391 0.015625)"/>
      <use xlink:href="#DejaVuSans-2c" transform="translate(337.5 0.015625)"/>
      <use xlink:href="#DejaVuSans-20" transform="translate(369.287109 0.015625)"/>
      <use xlink:href="#DejaVuSans-Oblique-72" transform="translate(401.074219 0.015625)"/>
      <use xlink:href="#DejaVuSans-20" transform="translate(442.1875 0.015625)"/>
      <use xlink:href="#DejaVuSans-2f" transform="translate(473.974609 0.015625)"/>
      <use xlink:href="#DejaVuSans-20" transform="translate(507.666016 0.015625)"/>
      <use xlink:href="#DejaVuSans-6e" transform="translate(539.453125 0.015625)"/>
      <use xlink:href="#DejaVuSans-6d" transform="translate(602.832031 0.015625)"/>
     </g>
    </g>
   </g>
   <g id="matplotlib.axis_2">
    <g id="ytick_1">
     <g id="line2d_8">
      <path d="M 79.668 519.3 
L 979.785 519.3 
" clip-path="url(#pa5e2b26adc)" style="fill: none; stroke: #cccccc; stroke-linecap: round"/>
     </g>
     <g id="text_9">
      <!-- −200 -->
      <g style="fill: #262626" transform="translate(39.954094 523.479141) scale(0.11 -0.11)">
       <defs>
        <path id="DejaVuSans-2212" d="M 678 2272 
L 4684 2272 
L 4684 1741 
L 678 1741 
L 678 2272 
z
" transform="scale(0.015625)"/>
       </defs>
       <use xlink:href="#DejaVuSans-2212"/>
       <use xlink:href="#DejaVuSans-32" x="83.789062"/>
       <use xlink:href="#DejaVuSans-30" x="147.412109"/>
       <use xlink:href="#DejaVuSans-30" x="211.035156"/>
      </g>
     </g>
    </g>
    <g id="ytick_2">
     <g id="line2d_9">
      <path d="M 79.668 414.763218 
L 979.785 414.763218 
" clip-path="url(#pa5e2b26adc)" style="fill: none; stroke: #cccccc; stroke-linecap: round"/>
     </g>
     <g id="text_10">
      <!-- 0 -->
      <g style="fill: #262626" transform="translate(63.16925 418.942359) scale(0.11 -0.11)">
       <use xlink:href="#DejaVuSans-30"/>
      </g>
     </g>
    </g>
    <g id="ytick_3">
     <g id="line2d_10">
      <path d="M 79.668 310.226436 
L 979.785 310.226436 
" clip-path="url(#pa5e2b26adc)" style="fill: none; stroke: #cccccc; stroke-linecap: round"/>
     </g>
     <g id="text_11">
      <!-- 200 -->
      <g style="fill: #262626" transform="translate(49.17175 314.405576) scale(0.11 -0.11)">
       <use xlink:href="#DejaVuSans-32"/>
       <use xlink:href="#DejaVuSans-30" x="63.623047"/>
       <use xlink:href="#DejaVuSans-30" x="127.246094"/>
      </g>
     </g>
    </g>
    <g id="ytick_4">
     <g id="line2d_11">
      <path d="M 79.668 205.689654 
L 979.785 205.689654 
" clip-path="url(#pa5e2b26adc)" style="fill: none; stroke: #cccccc; stroke-linecap: round"/>
     </g>
     <g id="text_12">
      <!-- 400 -->
      <g style="fill: #262626" transform="translate(49.17175 209.868794) scale(0.11 -0.11)">
       <defs>
        <path id="DejaVuSans-34" d="M 2419 4116 
L 825 1625 
L 2419 1625 
L 2419 4116 
z
M 2253 4666 
L 3047 4666 
L 3047 1625 
L 3713 1625 
L 3713 1100 
L 3047 1100 
L 3047 0 
L 2419 0 
L 2419 1100 
L 313 1100 
L 313 1709 
L 2253 4666 
z
" transform="scale(0.015625)"/>
       </defs>
       <use xlink:href="#DejaVuSans-34"/>
       <use xlink:href="#DejaVuSans-30" x="63.623047"/>
       <use xlink:href="#DejaVuSans-30" x="127.246094"/>
      </g>
     </g>
    </g>
    <g id="ytick_5">
     <g id="line2d_12">
      <path d="M 79.668 101.152872 
L 979.785 101.152872 
" clip-path="url(#pa5e2b26adc)" style="fill: none; stroke: #cccccc; stroke-linecap: round"/>
     </g>
     <g id="text_13">
      <!-- 600 -->
      <g style="fill: #262626" transform="translate(49.17175 105.332012) scale(0.11 -0.11)">
       <defs>
        <path id="DejaVuSans-36" d="M 2113 2584 
Q 1688 2584 1439 2293 
Q 1191 2003 1191 1497 
Q 1191 994 1439 701 
Q 1688 409 2113 409 
Q 2538 409 2786 701 
Q 3034 994 3034 1497 
Q 3034 2003 2786 2293 
Q 2538 2584 2113 2584 
z
M 3366 4563 
L 3366 3988 
Q 3128 4100 2886 4159 
Q 2644 4219 2406 4219 
Q 1781 4219 1451 3797 
Q 1122 3375 1075 2522 
Q 1259 2794 1537 2939 
Q 1816 3084 2150 3084 
Q 2853 3084 3261 2657 
Q 3669 2231 3669 1497 
Q 3669 778 3244 343 
Q 2819 -91 2113 -91 
Q 1303 -91 875 529 
Q 447 1150 447 2328 
Q 447 3434 972 4092 
Q 1497 4750 2381 4750 
Q 2619 4750 2861 4703 
Q 3103 4656 3366 4563 
z
" transform="scale(0.015625)"/>
       </defs>
       <use xlink:href="#DejaVuSans-36"/>
       <use xlink:href="#DejaVuSans-30" x="63.623047"/>
       <use xlink:href="#DejaVuSans-30" x="127.246094"/>
      </g>
     </g>
    </g>
    <g id="text_14">
     <!-- Gibbs energy, $\Delta G(r)$ / kJ·mol$^{-1}$ -->
     <g style="fill: #262626" transform="translate(33.434094 359.67) rotate(-90) scale(0.12 -0.12)">
      <defs>
       <path id="DejaVuSans-47" d="M 3809 666 
L 3809 1919 
L 2778 1919 
L 2778 2438 
L 4434 2438 
L 4434 434 
Q 4069 175 3628 42 
Q 3188 -91 2688 -91 
Q 1594 -91 976 548 
Q 359 1188 359 2328 
Q 359 3472 976 4111 
Q 1594 4750 2688 4750 
Q 3144 4750 3555 4637 
Q 3966 4525 4313 4306 
L 4313 3634 
Q 3963 3931 3569 4081 
Q 3175 4231 2741 4231 
Q 1884 4231 1454 3753 
Q 1025 3275 1025 2328 
Q 1025 1384 1454 906 
Q 1884 428 2741 428 
Q 3075 428 3337 486 
Q 3600 544 3809 666 
z
" transform="scale(0.015625)"/>
       <path id="DejaVuSans-62" d="M 3116 1747 
Q 3116 2381 2855 2742 
Q 2594 3103 2138 3103 
Q 1681 3103 1420 2742 
Q 1159 2381 1159 1747 
Q 1159 1113 1420 752 
Q 1681 391 2138 391 
Q 2594 391 2855 752 
Q 3116 1113 3116 1747 
z
M 1159 2969 
Q 1341 3281 1617 3432 
Q 1894 3584 2278 3584 
Q 2916 3584 3314 3078 
Q 3713 2572 3713 1747 
Q 3713 922 3314 415 
Q 2916 -91 2278 -91 
Q 1894 -91 1617 61 
Q 1341 213 1159 525 
L 1159 0 
L 581 0 
L 581 4863 
L 1159 4863 
L 1159 2969 
z
" transform="scale(0.015625)"/>
       <path id="DejaVuSans-65" d="M 3597 1894 
L 3597 1613 
L 953 1613 
Q 991 1019 1311 708 
Q 1631 397 2203 397 
Q 2534 397 2845 478 
Q 3156 559 3463 722 
L 3463 178 
Q 3153 47 2828 -22 
Q 2503 -91 2169 -91 
Q 1331 -91 842 396 
Q 353 884 353 1716 
Q 353 2575 817 3079 
Q 1281 3584 2069 3584 
Q 2775 3584 3186 3129 
Q 3597 2675 3597 1894 
z
M 3022 2063 
Q 3016 2534 2758 2815 
Q 2500 3097 2075 3097 
Q 1594 3097 1305 2825 
Q 1016 2553 972 2059 
L 3022 2063 
z
" transform="scale(0.015625)"/>
       <path id="DejaVuSans-72" d="M 2631 2963 
Q 2534 3019 2420 3045 
Q 2306 3072 2169 3072 
Q 1681 3072 1420 2755 
Q 1159 2438 1159 1844 
L 1159 0 
L 581 0 
L 581 3500 
L 1159 3500 
L 1159 2956 
Q 1341 3275 1631 3429 
Q 1922 3584 2338 3584 
Q 2397 3584 2469 3576 
Q 2541 3569 2628 3553 
L 2631 2963 
z
" transform="scale(0.015625)"/>
       <path id="DejaVuSans-67" d="M 2906 1791 
Q 2906 2416 2648 2759 
Q 2391 3103 1925 3103 
Q 1463 3103 1205 2759 
Q 947 2416 947 1791 
Q 947 1169 1205 825 
Q 1463 481 1925 481 
Q 2391 481 2648 825 
Q 2906 1169 2906 1791 
z
M 3481 434 
Q 3481 -459 3084 -895 
Q 2688 -1331 1869 -1331 
Q 1566 -1331 1297 -1286 
Q 1028 -1241 775 -1147 
L 775 -588 
Q 1028 -725 1275 -790 
Q 1522 -856 1778 -856 
Q 2344 -856 2625 -561 
Q 2906 -266 2906 331 
L 2906 616 
Q 2728 306 2450 153 
Q 2172 0 1784 0 
Q 1141 0 747 490 
Q 353 981 353 1791 
Q 353 2603 747 3093 
Q 1141 3584 1784 3584 
Q 2172 3584 2450 3431 
Q 2728 3278 2906 2969 
L 2906 3500 
L 3481 3500 
L 3481 434 
z
" transform="scale(0.015625)"/>
       <path id="DejaVuSans-79" d="M 2059 -325 
Q 1816 -950 1584 -1140 
Q 1353 -1331 966 -1331 
L 506 -1331 
L 506 -850 
L 844 -850 
Q 1081 -850 1212 -737 
Q 1344 -625 1503 -206 
L 1606 56 
L 191 3500 
L 800 3500 
L 1894 763 
L 2988 3500 
L 3597 3500 
L 2059 -325 
z
" transform="scale(0.015625)"/>
       <path id="DejaVuSans-394" d="M 2188 4044 
L 906 525 
L 3472 525 
L 2188 4044 
z
M 50 0 
L 1831 4666 
L 2547 4666 
L 4325 0 
L 50 0 
z
" transform="scale(0.015625)"/>
       <path id="DejaVuSans-Oblique-47" d="M 3494 697 
L 3738 1919 
L 2700 1919 
L 2797 2438 
L 4453 2438 
L 4050 384 
Q 3634 156 3143 32 
Q 2653 -91 2156 -91 
Q 1278 -91 783 396 
Q 288 884 288 1753 
Q 288 2475 589 3126 
Q 891 3778 1422 4213 
Q 1756 4484 2153 4617 
Q 2550 4750 3034 4750 
Q 3472 4750 3873 4639 
Q 4275 4528 4641 4306 
L 4513 3634 
Q 4231 3928 3853 4083 
Q 3475 4238 3047 4238 
Q 2550 4238 2172 4048 
Q 1794 3859 1497 3463 
Q 1244 3125 1098 2667 
Q 953 2209 953 1734 
Q 953 1081 1287 751 
Q 1622 422 2284 422 
Q 2616 422 2925 492 
Q 3234 563 3494 697 
z
" transform="scale(0.015625)"/>
       <path id="DejaVuSans-28" d="M 1984 4856 
Q 1566 4138 1362 3434 
Q 1159 2731 1159 2009 
Q 1159 1288 1364 580 
Q 1569 -128 1984 -844 
L 1484 -844 
Q 1016 -109 783 600 
Q 550 1309 550 2009 
Q 550 2706 781 3412 
Q 1013 4119 1484 4856 
L 1984 4856 
z
" transform="scale(0.015625)"/>
       <path id="DejaVuSans-29" d="M 513 4856 
L 1013 4856 
Q 1481 4119 1714 3412 
Q 1947 2706 1947 2009 
Q 1947 1309 1714 600 
Q 1481 -109 1013 -844 
L 513 -844 
Q 928 -128 1133 580 
Q 1338 1288 1338 2009 
Q 1338 2731 1133 3434 
Q 928 4138 513 4856 
z
" transform="scale(0.015625)"/>
       <path id="DejaVuSans-6b" d="M 581 4863 
L 1159 4863 
L 1159 1991 
L 2875 3500 
L 3609 3500 
L 1753 1863 
L 3688 0 
L 2938 0 
L 1159 1709 
L 1159 0 
L 581 0 
L 581 4863 
z
" transform="scale(0.015625)"/>
       <path id="DejaVuSans-4a" d="M 628 4666 
L 1259 4666 
L 1259 325 
Q 1259 -519 939 -900 
Q 619 -1281 -91 -1281 
L -331 -1281 
L -331 -750 
L -134 -750 
Q 284 -750 456 -515 
Q 628 -281 628 325 
L 628 4666 
z
" transform="scale(0.015625)"/>
       <path id="DejaVuSans-b7" d="M 684 2619 
L 1344 2619 
L 1344 1825 
L 684 1825 
L 684 2619 
z
" transform="scale(0.015625)"/>
       <path id="DejaVuSans-6f" d="M 1959 3097 
Q 1497 3097 1228 2736 
Q 959 2375 959 1747 
Q 959 1119 1226 758 
Q 1494 397 1959 397 
Q 2419 397 2687 759 
Q 2956 1122 2956 1747 
Q 2956 2369 2687 2733 
Q 2419 3097 1959 3097 
z
M 1959 3584 
Q 2709 3584 3137 3096 
Q 3566 2609 3566 1747 
Q 3566 888 3137 398 
Q 2709 -91 1959 -91 
Q 1206 -91 779 398 
Q 353 888 353 1747 
Q 353 2609 779 3096 
Q 1206 3584 1959 3584 
z
" transform="scale(0.015625)"/>
       <path id="DejaVuSans-6c" d="M 603 4863 
L 1178 4863 
L 1178 0 
L 603 0 
L 603 4863 
z
" transform="scale(0.015625)"/>
      </defs>
      <use xlink:href="#DejaVuSans-47" transform="translate(0 0.684375)"/>
      <use xlink:href="#DejaVuSans-69" transform="translate(77.490234 0.684375)"/>
      <use xlink:href="#DejaVuSans-62" transform="translate(105.273438 0.684375)"/>
      <use xlink:href="#DejaVuSans-62" transform="translate(168.75 0.684375)"/>
      <use xlink:href="#DejaVuSans-73" transform="translate(232.226562 0.684375)"/>
      <use xlink:href="#DejaVuSans-20" transform="translate(284.326172 0.684375)"/>
      <use xlink:href="#DejaVuSans-65" transform="translate(316.113281 0.684375)"/>
      <use xlink:href="#DejaVuSans-6e" transform="translate(377.636719 0.684375)"/>
      <use xlink:href="#DejaVuSans-65" transform="translate(441.015625 0.684375)"/>
      <use xlink:href="#DejaVuSans-72" transform="translate(502.539062 0.684375)"/>
      <use xlink:href="#DejaVuSans-67" transform="translate(543.652344 0.684375)"/>
      <use xlink:href="#DejaVuSans-79" transform="translate(607.128906 0.684375)"/>
      <use xlink:href="#DejaVuSans-2c" transform="translate(666.308594 0.684375)"/>
      <use xlink:href="#DejaVuSans-20" transform="translate(698.095703 0.684375)"/>
      <use xlink:href="#DejaVuSans-394" transform="translate(729.882812 0.684375)"/>
      <use xlink:href="#DejaVuSans-Oblique-47" transform="translate(798.291016 0.684375)"/>
      <use xlink:href="#DejaVuSans-28" transform="translate(875.78125 0.684375)"/>
      <use xlink:href="#DejaVuSans-Oblique-72" transform="translate(914.794922 0.684375)"/>
      <use xlink:href="#DejaVuSans-29" transform="translate(955.908203 0.684375)"/>
      <use xlink:href="#DejaVuSans-20" transform="translate(994.921875 0.684375)"/>
      <use xlink:href="#DejaVuSans-2f" transform="translate(1026.708984 0.684375)"/>
      <use xlink:href="#DejaVuSans-20" transform="translate(1060.400391 0.684375)"/>
      <use xlink:href="#DejaVuSans-6b" transform="translate(1092.1875 0.684375)"/>
      <use xlink:href="#DejaVuSans-4a" transform="translate(1150.097656 0.684375)"/>
      <use xlink:href="#DejaVuSans-b7" transform="translate(1179.589844 0.684375)"/>
      <use xlink:href="#DejaVuSans-6d" transform="translate(1211.376953 0.684375)"/>
      <use xlink:href="#DejaVuSans-6f" transform="translate(1308.789062 0.684375)"/>
      <use xlink:href="#DejaVuSans-6c" transform="translate(1369.970703 0.684375)"/>
      <use xlink:href="#DejaVuSans-2212" transform="translate(1398.710938 38.965625) scale(0.7)"/>
      <use xlink:href="#DejaVuSans-31" transform="translate(1457.363281 38.965625) scale(0.7)"/>
     </g>
    </g>
   </g>
   <g id="line2d_13">
    <path d="M 109.6719 412.296409 
L 117.834389 410.95337 
L 127.162949 409.184965 
L 138.823648 406.733241 
L 175.554851 398.826404 
L 184.88341 397.152878 
L 193.045899 395.918016 
L 200.042319 395.069718 
L 207.038738 394.448557 
L 213.452123 394.105514 
L 219.282473 394.002529 
L 225.112822 394.117249 
L 230.943172 394.467847 
L 236.190487 395.00008 
L 241.437801 395.751343 
L 246.685116 396.734883 
L 251.93243 397.963949 
L 256.59671 399.273282 
L 261.26099 400.796382 
L 265.92527 402.542555 
L 270.589549 404.521105 
L 275.253829 406.741335 
L 279.918109 409.212552 
L 284.582388 411.944059 
L 289.246668 414.945161 
L 293.910948 418.225163 
L 298.575227 421.793369 
L 303.239507 425.659083 
L 307.903787 429.831611 
L 312.568066 434.320256 
L 317.232346 439.134324 
L 321.896626 444.283119 
L 326.560905 449.775945 
L 331.225185 455.622107 
L 335.889465 461.83091 
L 340.553745 468.411658 
L 345.218024 475.373656 
L 349.882304 482.726208 
L 354.546584 490.478618 
L 359.210863 498.640192 
L 363.875143 507.220234 
L 368.539423 516.228049 
L 373.203702 525.672941 
L 378.451017 536.832473 
L 383.698332 548.570205 
L 388.945646 560.899384 
L 394.192961 573.83326 
L 395.440832 577 
L 395.440832 577 
" clip-path="url(#pa5e2b26adc)" style="fill: none; stroke: #440154; stroke-width: 2; stroke-linecap: round"/>
   </g>
   <g id="line2d_14">
    <path d="M 109.6719 412.192736 
L 116.912509 410.917354 
L 124.877179 409.282913 
L 133.565909 407.26283 
L 142.978701 404.846092 
L 154.563675 401.628326 
L 171.217075 396.735033 
L 194.387024 389.944465 
L 205.971998 386.793693 
L 215.38479 384.453622 
L 224.07352 382.522 
L 232.03819 380.983568 
L 239.278799 379.807852 
L 246.519408 378.871316 
L 253.035956 378.254475 
L 259.552504 377.871484 
L 265.344991 377.742727 
L 271.137478 377.8271 
L 276.929965 378.137946 
L 282.722452 378.688612 
L 287.790878 379.377664 
L 292.859305 380.269485 
L 297.927731 381.373016 
L 302.996157 382.697198 
L 308.064583 384.250971 
L 313.13301 386.043275 
L 318.201436 388.08305 
L 323.269862 390.379237 
L 328.338288 392.940776 
L 333.406714 395.776607 
L 338.475141 398.895671 
L 343.543567 402.306909 
L 348.611993 406.019259 
L 353.680419 410.041664 
L 358.748845 414.383062 
L 363.817272 419.052395 
L 368.885698 424.058603 
L 373.954124 429.410625 
L 379.02255 435.117403 
L 384.090977 441.187877 
L 389.159403 447.630986 
L 394.227829 454.455672 
L 399.296255 461.670875 
L 404.364681 469.285534 
L 409.433108 477.308591 
L 414.501534 485.748985 
L 419.56996 494.615657 
L 424.638386 503.917548 
L 429.706812 513.663597 
L 434.775239 523.862745 
L 439.843665 534.523932 
L 444.912091 545.656099 
L 449.980517 557.268186 
L 455.773004 571.138268 
L 458.142445 577 
L 458.142445 577 
" clip-path="url(#pa5e2b26adc)" style="fill: none; stroke: #3b528b; stroke-width: 2; stroke-linecap: round"/>
   </g>
   <g id="line2d_15">
    <path d="M 109.6719 412.089063 
L 116.330547 410.838502 
L 122.989194 409.378476 
L 130.599076 407.470669 
L 138.208958 405.326983 
L 145.81884 402.96753 
L 154.379958 400.080274 
L 163.89231 396.616612 
L 174.355898 392.541194 
L 185.770721 387.837822 
L 199.088015 382.099172 
L 219.063956 373.209748 
L 244.747308 361.810249 
L 258.064602 356.145559 
L 269.479425 351.532165 
L 278.991778 347.910198 
L 288.50413 344.532429 
L 297.065248 341.733689 
L 304.67513 339.461833 
L 312.285012 337.414137 
L 319.894894 335.610714 
L 326.553541 334.248907 
L 333.212188 333.102991 
L 339.870835 332.186439 
L 346.529482 331.512724 
L 352.236893 331.138744 
L 357.944305 330.961558 
L 363.651716 330.989649 
L 369.359128 331.231502 
L 375.06654 331.695602 
L 380.773951 332.390432 
L 386.481363 333.324477 
L 392.188774 334.506221 
L 397.896186 335.944149 
L 403.603598 337.646745 
L 409.311009 339.622493 
L 414.067186 341.483729 
L 418.823362 343.545456 
L 423.579538 345.812584 
L 428.335715 348.290023 
L 433.091891 350.982682 
L 437.848067 353.895472 
L 442.604244 357.033303 
L 447.36042 360.401084 
L 452.116596 364.003725 
L 456.872773 367.846137 
L 461.628949 371.933229 
L 466.385125 376.269911 
L 471.141302 380.861094 
L 475.897478 385.711686 
L 481.60489 391.881731 
L 487.312301 398.440881 
L 493.019713 405.39762 
L 498.727124 412.760434 
L 504.434536 420.537805 
L 510.141948 428.738218 
L 515.849359 437.370159 
L 521.556771 446.44211 
L 527.264182 455.962557 
L 532.971594 465.939984 
L 538.679006 476.382875 
L 544.386417 487.299714 
L 550.093829 498.698986 
L 555.80124 510.589175 
L 561.508652 522.978765 
L 567.216064 535.876242 
L 572.923475 549.290088 
L 578.630887 563.22879 
L 584.066129 577 
L 584.066129 577 
" clip-path="url(#pa5e2b26adc)" style="fill: none; stroke: #21918c; stroke-width: 2; stroke-linecap: round"/>
   </g>
   <g id="line2d_16">
    <path d="M 109.6719 411.985389 
L 116.690705 410.569991 
L 123.70951 408.880662 
L 130.728315 406.925219 
L 137.74712 404.711478 
L 144.765925 402.247255 
L 151.78473 399.540367 
L 158.803535 396.598631 
L 165.82234 393.429863 
L 172.841145 390.041879 
L 179.85995 386.442496 
L 188.633456 381.657895 
L 197.406962 376.570462 
L 206.180469 371.195464 
L 214.953975 365.548168 
L 223.727481 359.643839 
L 232.500987 353.497744 
L 243.029195 345.824796 
L 253.557402 337.852069 
L 264.08561 329.605944 
L 276.368518 319.675114 
L 288.651427 309.449958 
L 302.689037 297.457404 
L 318.481348 283.64953 
L 337.783062 266.443891 
L 369.367684 237.91152 
L 397.442904 212.654106 
L 414.989917 197.151123 
L 430.782228 183.506328 
L 444.819838 171.697236 
L 457.102747 161.662338 
L 467.630954 153.315753 
L 478.159162 145.232173 
L 488.687369 137.437979 
L 499.215577 129.959551 
L 507.989083 123.98777 
L 516.762589 118.268859 
L 525.536095 112.818082 
L 534.309602 107.650706 
L 543.083108 102.781998 
L 550.101913 99.112332 
L 557.120718 95.651401 
L 564.139523 92.40702 
L 571.158328 89.387006 
L 578.177133 86.599177 
L 585.195938 84.051347 
L 592.214743 81.751334 
L 599.233548 79.706955 
L 606.252353 77.926025 
L 613.271158 76.416361 
L 620.289963 75.185779 
L 627.308768 74.242096 
L 634.327573 73.593129 
L 639.591676 73.304512 
L 644.85578 73.189367 
L 650.119884 73.250991 
L 655.383988 73.492682 
L 660.648091 73.917738 
L 665.912195 74.529455 
L 671.176299 75.331132 
L 676.440403 76.326066 
L 681.704506 77.517554 
L 686.96861 78.908895 
L 692.232714 80.503385 
L 697.496818 82.304323 
L 702.760921 84.315005 
L 708.025025 86.53873 
L 713.289129 88.978795 
L 718.553233 91.638497 
L 723.817336 94.521134 
L 729.08144 97.630004 
L 734.345544 100.968405 
L 739.609648 104.539633 
L 744.873751 108.346986 
L 750.137855 112.393762 
L 755.401959 116.683259 
L 760.666062 121.218773 
L 765.930166 126.003604 
L 771.19427 131.041047 
L 776.458374 136.334401 
L 781.722477 141.886963 
L 786.986581 147.702032 
L 792.250685 153.782903 
L 797.514789 160.132876 
L 802.778892 166.755246 
L 808.042996 173.653313 
L 813.3071 180.830374 
L 820.325905 190.839478 
L 827.34471 201.358249 
L 834.363515 212.394504 
L 841.38232 223.956059 
L 848.401125 236.050731 
L 855.41993 248.686336 
L 862.438735 261.870691 
L 869.45754 275.611612 
L 876.476345 289.916916 
L 883.49515 304.794418 
L 890.513955 320.251936 
L 897.53276 336.297286 
L 904.551565 352.938283 
L 911.57037 370.182746 
L 918.589175 388.03849 
L 925.60798 406.513331 
L 932.626785 425.615086 
L 939.64559 445.351572 
L 946.664395 465.730605 
L 953.6832 486.760001 
L 960.702005 508.447577 
L 967.72081 530.801149 
L 974.739615 553.828534 
L 981.600993 577 
L 981.600993 577 
" clip-path="url(#pa5e2b26adc)" style="fill: none; stroke: #5ec962; stroke-width: 2; stroke-linecap: round"/>
   </g>
   <g id="line2d_17">
    <path d="M 109.6719 411.883624 
L 114.936004 410.784551 
L 120.200107 409.5082 
L 125.464211 408.054571 
L 130.728315 406.423664 
L 135.992419 404.615479 
L 143.011224 401.9288 
L 150.030029 398.92696 
L 157.048834 395.60996 
L 164.067639 391.977798 
L 171.086444 388.030476 
L 178.105249 383.767993 
L 185.124054 379.190349 
L 192.142859 374.297545 
L 199.161664 369.089579 
L 206.180469 363.566453 
L 213.199274 357.728166 
L 220.218079 351.574718 
L 227.236884 345.10611 
L 234.255689 338.32234 
L 241.274493 331.22341 
L 248.293298 323.809319 
L 255.312103 316.080067 
L 262.330908 308.035654 
L 269.349713 299.676081 
L 276.368518 291.001346 
L 283.387323 282.011451 
L 290.406128 272.706395 
L 297.424933 263.086179 
L 304.443738 253.150801 
L 311.462543 242.900263 
L 320.23605 229.643895 
L 329.009556 215.895088 
L 337.783062 201.653843 
L 346.556568 186.920159 
L 355.330075 171.694036 
L 364.103581 155.975475 
L 372.877087 139.764474 
L 381.650593 123.061035 
L 390.424099 105.865157 
L 399.197606 88.17684 
L 407.971112 69.996085 
L 416.744618 51.322891 
L 425.518124 32.157258 
L 434.291631 12.499186 
L 440.191779 -1 
L 440.191779 -1 
" clip-path="url(#pa5e2b26adc)" style="fill: none; stroke-dasharray: 7.4,3.2; stroke-dashoffset: 0; stroke: #ff0000; stroke-width: 2"/>
   </g>
   <g id="line2d_18">
    <path d="M 109.6719 414.864984 
L 125.464211 415.125092 
L 139.501821 415.570283 
L 151.78473 416.176329 
L 162.312937 416.889971 
L 172.841145 417.810695 
L 183.369352 418.964884 
L 192.142859 420.12408 
L 200.916365 421.47899 
L 209.689871 423.04488 
L 218.463377 424.837016 
L 227.236884 426.870666 
L 236.01039 429.161096 
L 244.783896 431.723572 
L 251.802701 433.979685 
L 258.821506 436.427494 
L 265.840311 439.074817 
L 272.859116 441.929469 
L 279.877921 444.999267 
L 286.896726 448.292027 
L 293.915531 451.815566 
L 300.934336 455.5777 
L 307.953141 459.586245 
L 314.971946 463.849019 
L 321.990751 468.373837 
L 329.009556 473.168517 
L 336.028361 478.240873 
L 343.047166 483.598724 
L 350.065971 489.249884 
L 357.084776 495.202172 
L 364.103581 501.463402 
L 371.122386 508.041392 
L 378.141191 514.943959 
L 385.159996 522.178917 
L 392.178801 529.754085 
L 399.197606 537.677278 
L 406.216411 545.956313 
L 413.235216 554.599006 
L 420.254021 563.613173 
L 427.272826 573.006632 
L 430.17058 577 
L 430.17058 577 
" clip-path="url(#pa5e2b26adc)" style="fill: none; stroke-dasharray: 7.4,3.2; stroke-dashoffset: 0; stroke: #0000ff; stroke-width: 2"/>
   </g>
   <g id="line2d_19">
    <path d="M 645.667889 519.3 
L 645.667889 19.44 
" clip-path="url(#pa5e2b26adc)" style="fill: none; stroke-dasharray: 1.5,2.475; stroke-dashoffset: 0; stroke: #808080; stroke-width: 1.5"/>
   </g>
   <g id="line2d_20">
    <path d="M 79.668 73.187259 
L 979.785 73.187259 
" clip-path="url(#pa5e2b26adc)" style="fill: none; stroke-dasharray: 1.5,2.475; stroke-dashoffset: 0; stroke: #808080; stroke-width: 1.5"/>
   </g>
   <g id="patch_3">
    <path d="M 79.668 519.3 
L 79.668 19.44 
" style="fill: none; stroke: #cccccc; stroke-width: 1.25; stroke-linejoin: miter; stroke-linecap: square"/>
   </g>
   <g id="patch_4">
    <path d="M 979.785 519.3 
L 979.785 19.44 
" style="fill: none; stroke: #cccccc; stroke-width: 1.25; stroke-linejoin: miter; stroke-linecap: square"/>
   </g>
   <g id="patch_5">
    <path d="M 79.668 519.3 
L 979.785 519.3 
" style="fill: none; stroke: #cccccc; stroke-width: 1.25; stroke-linejoin: miter; stroke-linecap: square"/>
   </g>
   <g id="patch_6">
    <path d="M 79.668 19.44 
L 979.785 19.44 
" style="fill: none; stroke: #cccccc; stroke-width: 1.25; stroke-linejoin: miter; stroke-linecap: square"/>
   </g>
   <g id="text_15">
    <!-- $r^*$ -->
    <g style="fill: #808080" transform="translate(660.669839 100.57116) scale(0.14 -0.14)">
     <defs>
      <path id="DejaVuSans-2a" d="M 3009 3897 
L 1888 3291 
L 3009 2681 
L 2828 2375 
L 1778 3009 
L 1778 1831 
L 1422 1831 
L 1422 3009 
L 372 2375 
L 191 2681 
L 1313 3291 
L 191 3897 
L 372 4206 
L 1422 3572 
L 1422 4750 
L 1778 4750 
L 1778 3572 
L 2828 4206 
L 3009 3897 
z
" transform="scale(0.015625)"/>
     </defs>
     <use xlink:href="#DejaVuSans-Oblique-72" transform="translate(0 0.765625)"/>
     <use xlink:href="#DejaVuSans-2a" transform="translate(59.400872 39.046875) scale(0.7)"/>
    </g>
   </g>
   <g id="text_16">
    <!-- $\Delta G^*$ -->
    <g style="fill: #808080" transform="translate(570.330089 65.048858) scale(0.14 -0.14)">
     <use xlink:href="#DejaVuSans-394" transform="translate(0 0.765625)"/>
     <use xlink:href="#DejaVuSans-Oblique-47" transform="translate(68.408203 0.765625)"/>
     <use xlink:href="#DejaVuSans-2a" transform="translate(166.736654 39.046875) scale(0.7)"/>
    </g>
   </g>
   <g id="legend_1">
    <g id="patch_7">
     <path d="M 887.825 142.229375 
L 972.085 142.229375 
Q 974.285 142.229375 974.285 140.029375 
L 974.285 27.14 
Q 974.285 24.94 972.085 24.94 
L 887.825 24.94 
Q 885.625 24.94 885.625 27.14 
L 885.625 140.029375 
Q 885.625 142.229375 887.825 142.229375 
z
" style="fill: #ffffff; opacity: 0.8; stroke: #cccccc; stroke-linejoin: miter"/>
    </g>
    <g id="text_17">
     <!-- Temperature -->
     <g style="fill: #262626" transform="translate(891.951563 38.458125) scale(0.12 -0.12)">
      <defs>
       <path id="DejaVuSans-54" d="M -19 4666 
L 3928 4666 
L 3928 4134 
L 2272 4134 
L 2272 0 
L 1638 0 
L 1638 4134 
L -19 4134 
L -19 4666 
z
" transform="scale(0.015625)"/>
       <path id="DejaVuSans-70" d="M 1159 525 
L 1159 -1331 
L 581 -1331 
L 581 3500 
L 1159 3500 
L 1159 2969 
Q 1341 3281 1617 3432 
Q 1894 3584 2278 3584 
Q 2916 3584 3314 3078 
Q 3713 2572 3713 1747 
Q 3713 922 3314 415 
Q 2916 -91 2278 -91 
Q 1894 -91 1617 61 
Q 1341 213 1159 525 
z
M 3116 1747 
Q 3116 2381 2855 2742 
Q 2594 3103 2138 3103 
Q 1681 3103 1420 2742 
Q 1159 2381 1159 1747 
Q 1159 1113 1420 752 
Q 1681 391 2138 391 
Q 2594 391 2855 752 
Q 3116 1113 3116 1747 
z
" transform="scale(0.015625)"/>
       <path id="DejaVuSans-74" d="M 1172 4494 
L 1172 3500 
L 2356 3500 
L 2356 3053 
L 1172 3053 
L 1172 1153 
Q 1172 725 1289 603 
Q 1406 481 1766 481 
L 2356 481 
L 2356 0 
L 1766 0 
Q 1100 0 847 248 
Q 594 497 594 1153 
L 594 3053 
L 172 3053 
L 172 3500 
L 594 3500 
L 594 4494 
L 1172 4494 
z
" transform="scale(0.015625)"/>
      </defs>
      <use xlink:href="#DejaVuSans-54"/>
      <use xlink:href="#DejaVuSans-65" x="44.083984"/>
      <use xlink:href="#DejaVuSans-6d" x="105.607422"/>
      <use xlink:href="#DejaVuSans-70" x="203.019531"/>
      <use xlink:href="#DejaVuSans-65" x="266.496094"/>
      <use xlink:href="#DejaVuSans-72" x="328.019531"/>
      <use xlink:href="#DejaVuSans-61" x="369.132812"/>
      <use xlink:href="#DejaVuSans-74" x="430.412109"/>
      <use xlink:href="#DejaVuSans-75" x="469.621094"/>
      <use xlink:href="#DejaVuSans-72" x="533"/>
      <use xlink:href="#DejaVuSans-65" x="571.863281"/>
     </g>
    </g>
    <g id="line2d_21">
     <path d="M 890.025 50.962031 
L 901.025 50.962031 
L 912.025 50.962031 
" style="fill: none; stroke: #440154; stroke-width: 2; stroke-linecap: round"/>
    </g>
    <g id="text_18">
     <!-- 5.0 °C -->
     <g style="fill: #262626" transform="translate(920.825 54.812031) scale(0.11 -0.11)">
      <defs>
       <path id="DejaVuSans-b0" d="M 1600 4347 
Q 1350 4347 1178 4173 
Q 1006 4000 1006 3750 
Q 1006 3503 1178 3333 
Q 1350 3163 1600 3163 
Q 1850 3163 2022 3333 
Q 2194 3503 2194 3750 
Q 2194 3997 2020 4172 
Q 1847 4347 1600 4347 
z
M 1600 4750 
Q 1800 4750 1984 4673 
Q 2169 4597 2303 4453 
Q 2447 4313 2519 4134 
Q 2591 3956 2591 3750 
Q 2591 3338 2302 3052 
Q 2013 2766 1594 2766 
Q 1172 2766 890 3047 
Q 609 3328 609 3750 
Q 609 4169 896 4459 
Q 1184 4750 1600 4750 
z
" transform="scale(0.015625)"/>
       <path id="DejaVuSans-43" d="M 4122 4306 
L 4122 3641 
Q 3803 3938 3442 4084 
Q 3081 4231 2675 4231 
Q 1875 4231 1450 3742 
Q 1025 3253 1025 2328 
Q 1025 1406 1450 917 
Q 1875 428 2675 428 
Q 3081 428 3442 575 
Q 3803 722 4122 1019 
L 4122 359 
Q 3791 134 3420 21 
Q 3050 -91 2638 -91 
Q 1578 -91 968 557 
Q 359 1206 359 2328 
Q 359 3453 968 4101 
Q 1578 4750 2638 4750 
Q 3056 4750 3426 4639 
Q 3797 4528 4122 4306 
z
" transform="scale(0.015625)"/>
      </defs>
      <use xlink:href="#DejaVuSans-35"/>
      <use xlink:href="#DejaVuSans-2e" x="63.623047"/>
      <use xlink:href="#DejaVuSans-30" x="95.410156"/>
      <use xlink:href="#DejaVuSans-20" x="159.033203"/>
      <use xlink:href="#DejaVuSans-b0" x="190.820312"/>
      <use xlink:href="#DejaVuSans-43" x="240.820312"/>
     </g>
    </g>
    <g id="line2d_22">
     <path d="M 890.025 67.107969 
L 901.025 67.107969 
L 912.025 67.107969 
" style="fill: none; stroke: #3b528b; stroke-width: 2; stroke-linecap: round"/>
    </g>
    <g id="text_19">
     <!-- 15.0 °C -->
     <g style="fill: #262626" transform="translate(920.825 70.957969) scale(0.11 -0.11)">
      <use xlink:href="#DejaVuSans-31"/>
      <use xlink:href="#DejaVuSans-35" x="63.623047"/>
      <use xlink:href="#DejaVuSans-2e" x="127.246094"/>
      <use xlink:href="#DejaVuSans-30" x="159.033203"/>
      <use xlink:href="#DejaVuSans-20" x="222.65625"/>
      <use xlink:href="#DejaVuSans-b0" x="254.443359"/>
      <use xlink:href="#DejaVuSans-43" x="304.443359"/>
     </g>
    </g>
    <g id="line2d_23">
     <path d="M 890.025 83.253906 
L 901.025 83.253906 
L 912.025 83.253906 
" style="fill: none; stroke: #21918c; stroke-width: 2; stroke-linecap: round"/>
    </g>
    <g id="text_20">
     <!-- 25.0 °C -->
     <g style="fill: #262626" transform="translate(920.825 87.103906) scale(0.11 -0.11)">
      <use xlink:href="#DejaVuSans-32"/>
      <use xlink:href="#DejaVuSans-35" x="63.623047"/>
      <use xlink:href="#DejaVuSans-2e" x="127.246094"/>
      <use xlink:href="#DejaVuSans-30" x="159.033203"/>
      <use xlink:href="#DejaVuSans-20" x="222.65625"/>
      <use xlink:href="#DejaVuSans-b0" x="254.443359"/>
      <use xlink:href="#DejaVuSans-43" x="304.443359"/>
     </g>
    </g>
    <g id="line2d_24">
     <path d="M 890.025 99.399844 
L 901.025 99.399844 
L 912.025 99.399844 
" style="fill: none; stroke: #5ec962; stroke-width: 2; stroke-linecap: round"/>
    </g>
    <g id="text_21">
     <!-- 35.0 °C -->
     <g style="fill: #262626" transform="translate(920.825 103.249844) scale(0.11 -0.11)">
      <use xlink:href="#DejaVuSans-33"/>
      <use xlink:href="#DejaVuSans-35" x="63.623047"/>
      <use xlink:href="#DejaVuSans-2e" x="127.246094"/>
      <use xlink:href="#DejaVuSans-30" x="159.033203"/>
      <use xlink:href="#DejaVuSans-20" x="222.65625"/>
      <use xlink:href="#DejaVuSans-b0" x="254.443359"/>
      <use xlink:href="#DejaVuSans-43" x="304.443359"/>
     </g>
    </g>
    <g id="line2d_25">
     <path d="M 890.025 115.545781 
L 901.025 115.545781 
L 912.025 115.545781 
" style="fill: none; stroke-dasharray: 7.4,3.2; stroke-dashoffset: 0; stroke: #ff0000; stroke-width: 2"/>
    </g>
    <g id="text_22">
     <!-- interface -->
     <g style="fill: #262626" transform="translate(920.825 119.395781) scale(0.11 -0.11)">
      <defs>
       <path id="DejaVuSans-66" d="M 2375 4863 
L 2375 4384 
L 1825 4384 
Q 1516 4384 1395 4259 
Q 1275 4134 1275 3809 
L 1275 3500 
L 2222 3500 
L 2222 3053 
L 1275 3053 
L 1275 0 
L 697 0 
L 697 3053 
L 147 3053 
L 147 3500 
L 697 3500 
L 697 3744 
Q 697 4328 969 4595 
Q 1241 4863 1831 4863 
L 2375 4863 
z
" transform="scale(0.015625)"/>
       <path id="DejaVuSans-63" d="M 3122 3366 
L 3122 2828 
Q 2878 2963 2633 3030 
Q 2388 3097 2138 3097 
Q 1578 3097 1268 2742 
Q 959 2388 959 1747 
Q 959 1106 1268 751 
Q 1578 397 2138 397 
Q 2388 397 2633 464 
Q 2878 531 3122 666 
L 3122 134 
Q 2881 22 2623 -34 
Q 2366 -91 2075 -91 
Q 1284 -91 818 406 
Q 353 903 353 1747 
Q 353 2603 823 3093 
Q 1294 3584 2113 3584 
Q 2378 3584 2631 3529 
Q 2884 3475 3122 3366 
z
" transform="scale(0.015625)"/>
      </defs>
      <use xlink:href="#DejaVuSans-69"/>
      <use xlink:href="#DejaVuSans-6e" x="27.783203"/>
      <use xlink:href="#DejaVuSans-74" x="91.162109"/>
      <use xlink:href="#DejaVuSans-65" x="130.371094"/>
      <use xlink:href="#DejaVuSans-72" x="191.894531"/>
      <use xlink:href="#DejaVuSans-66" x="233.007812"/>
      <use xlink:href="#DejaVuSans-61" x="268.212891"/>
      <use xlink:href="#DejaVuSans-63" x="329.492188"/>
      <use xlink:href="#DejaVuSans-65" x="384.472656"/>
     </g>
    </g>
    <g id="line2d_26">
     <path d="M 890.025 131.691719 
L 901.025 131.691719 
L 912.025 131.691719 
" style="fill: none; stroke-dasharray: 7.4,3.2; stroke-dashoffset: 0; stroke: #0000ff; stroke-width: 2"/>
    </g>
    <g id="text_23">
     <!-- volume -->
     <g style="fill: #262626" transform="translate(920.825 135.541719) scale(0.11 -0.11)">
      <defs>
       <path id="DejaVuSans-76" d="M 191 3500 
L 800 3500 
L 1894 563 
L 2988 3500 
L 3597 3500 
L 2284 0 
L 1503 0 
L 191 3500 
z
" transform="scale(0.015625)"/>
      </defs>
      <use xlink:href="#DejaVuSans-76"/>
      <use xlink:href="#DejaVuSans-6f" x="59.179688"/>
      <use xlink:href="#DejaVuSans-6c" x="120.361328"/>
      <use xlink:href="#DejaVuSans-75" x="148.144531"/>
      <use xlink:href="#DejaVuSans-6d" x="211.523438"/>
      <use xlink:href="#DejaVuSans-65" x="308.935547"/>
     </g>
    </g>
   </g>
  </g>
 </g>
 <defs>
  <clipPath id="pa5e2b26adc">
   <rect x="79.668" y="19.44" width="900.117" height="499.86"/>
  </clipPath>
 </defs>
</svg>
