<?xml version="1.0" encoding="utf-8" standalone="no"?>
<!DOCTYPE svg PUBLIC "-//W3C//DTD SVG 1.1//EN"
  "http://www.w3.org/Graphics/SVG/1.1/DTD/svg11.dtd">
<svg xmlns:xlink="http://www.w3.org/1999/xlink" width="1008pt" height="576pt" viewBox="0 0 1008 576" xmlns="http://www.w3.org/2000/svg" version="1.1">
 <metadata>
  <rdf:RDF xmlns:dc="http://purl.org/dc/elements/1.1/" xmlns:cc="http://creativecommons.org/ns#" xmlns:rdf="http://www.w3.org/1999/02/22-rdf-syntax-ns#">
   <cc:Work>
    <dc:type rdf:resource="http://purl.org/dc/dcmitype/StillImage"/>
    <dc:date>2024-12-11T21:24:09.491002</dc:date>
    <dc:format>image/svg+xml</dc:format>
    <dc:creator>
     <cc:Agent>
      <dc:title>Matplotlib v3.8.0, https://matplotlib.org/</dc:title>
     </cc:Agent>
    </dc:creator>
   </cc:Work>
  </rdf:RDF>
 </metadata>
 <defs>
  <style type="text/css">*{stroke-linejoin: round; stroke-linecap: butt}</style>
 </defs>
 <g id="figure_1">
  <g id="patch_1">
   <path d="M 0 576 
L 1008 576 
L 1008 0 
L 0 0 
z
" style="fill: #ffffff"/>
  </g>
  <g id="axes_1">
   <g id="patch_2">
    <path d="M 103.61 504.52 
L 974.25 504.52 
L 974.25 19.44 
L 103.61 19.44 
z
" style="fill: #ffffff"/>
   </g>
   <g id="matplotlib.axis_1">
    <g id="xtick_1">
     <g id="line2d_1">
      <path d="M 103.61 504.52 
L 103.61 19.44 
" clip-path="url(#p4bd059e6d5)" style="fill: none; stroke: #b0b0b0; stroke-width: 0.8; stroke-linecap: square"/>
     </g>
     <g id="line2d_2">
      <defs>
       <path id="m9a14d7bea7" d="M 0 0 
L 0 3.5 
" style="stroke: #000000; stroke-width: 0.8"/>
      </defs>
      <g>
       <use xlink:href="#m9a14d7bea7" x="103.61" y="504.52" style="stroke: #000000; stroke-width: 0.8"/>
      </g>
     </g>
     <g id="text_1">
      <!-- 0.0 -->
      <g transform="translate(89.297188 525.197188) scale(0.18 -0.18)">
       <defs>
        <path id="DejaVuSans-30" d="M 2034 4250 
Q 1547 4250 1301 3770 
Q 1056 3291 1056 2328 
Q 1056 1369 1301 889 
Q 1547 409 2034 409 
Q 2525 409 2770 889 
Q 3016 1369 3016 2328 
Q 3016 3291 2770 3770 
Q 2525 4250 2034 4250 
z
M 2034 4750 
Q 2819 4750 3233 4129 
Q 3647 3509 3647 2328 
Q 3647 1150 3233 529 
Q 2819 -91 2034 -91 
Q 1250 -91 836 529 
Q 422 1150 422 2328 
Q 422 3509 836 4129 
Q 1250 4750 2034 4750 
z
" transform="scale(0.015625)"/>
        <path id="DejaVuSans-2e" d="M 684 794 
L 1344 794 
L 1344 0 
L 684 0 
L 684 794 
z
" transform="scale(0.015625)"/>
       </defs>
       <use xlink:href="#DejaVuSans-30"/>
       <use xlink:href="#DejaVuSans-2e" x="63.623047"/>
       <use xlink:href="#DejaVuSans-30" x="95.410156"/>
      </g>
     </g>
    </g>
    <g id="xtick_2">
     <g id="line2d_3">
      <path d="M 248.716667 504.52 
L 248.716667 19.44 
" clip-path="url(#p4bd059e6d5)" style="fill: none; stroke: #b0b0b0; stroke-width: 0.8; stroke-linecap: square"/>
     </g>
     <g id="line2d_4">
      <g>
       <use xlink:href="#m9a14d7bea7" x="248.716667" y="504.52" style="stroke: #000000; stroke-width: 0.8"/>
      </g>
     </g>
     <g id="text_2">
      <!-- 0.5 -->
      <g transform="translate(234.403854 525.197188) scale(0.18 -0.18)">
       <defs>
        <path id="DejaVuSans-35" d="M 691 4666 
L 3169 4666 
L 3169 4134 
L 1269 4134 
L 1269 2991 
Q 1406 3038 1543 3061 
Q 1681 3084 1819 3084 
Q 2600 3084 3056 2656 
Q 3513 2228 3513 1497 
Q 3513 744 3044 326 
Q 2575 -91 1722 -91 
Q 1428 -91 1123 -41 
Q 819 9 494 109 
L 494 744 
Q 775 591 1075 516 
Q 1375 441 1709 441 
Q 2250 441 2565 725 
Q 2881 1009 2881 1497 
Q 2881 1984 2565 2268 
Q 2250 2553 1709 2553 
Q 1456 2553 1204 2497 
Q 953 2441 691 2322 
L 691 4666 
z
" transform="scale(0.015625)"/>
       </defs>
       <use xlink:href="#DejaVuSans-30"/>
       <use xlink:href="#DejaVuSans-2e" x="63.623047"/>
       <use xlink:href="#DejaVuSans-35" x="95.410156"/>
      </g>
     </g>
    </g>
    <g id="xtick_3">
     <g id="line2d_5">
      <path d="M 393.823333 504.52 
L 393.823333 19.44 
" clip-path="url(#p4bd059e6d5)" style="fill: none; stroke: #b0b0b0; stroke-width: 0.8; stroke-linecap: square"/>
     </g>
     <g id="line2d_6">
      <g>
       <use xlink:href="#m9a14d7bea7" x="393.823333" y="504.52" style="stroke: #000000; stroke-width: 0.8"/>
      </g>
     </g>
     <g id="text_3">
      <!-- 1.0 -->
      <g transform="translate(379.510521 525.197188) scale(0.18 -0.18)">
       <defs>
        <path id="DejaVuSans-31" d="M 794 531 
L 1825 531 
L 1825 4091 
L 703 3866 
L 703 4441 
L 1819 4666 
L 2450 4666 
L 2450 531 
L 3481 531 
L 3481 0 
L 794 0 
L 794 531 
z
" transform="scale(0.015625)"/>
       </defs>
       <use xlink:href="#DejaVuSans-31"/>
       <use xlink:href="#DejaVuSans-2e" x="63.623047"/>
       <use xlink:href="#DejaVuSans-30" x="95.410156"/>
      </g>
     </g>
    </g>
    <g id="xtick_4">
     <g id="line2d_7">
      <path d="M 538.93 504.52 
L 538.93 19.44 
" clip-path="url(#p4bd059e6d5)" style="fill: none; stroke: #b0b0b0; stroke-width: 0.8; stroke-linecap: square"/>
     </g>
     <g id="line2d_8">
      <g>
       <use xlink:href="#m9a14d7bea7" x="538.93" y="504.52" style="stroke: #000000; stroke-width: 0.8"/>
      </g>
     </g>
     <g id="text_4">
      <!-- 1.5 -->
      <g transform="translate(524.617188 525.197188) scale(0.18 -0.18)">
       <use xlink:href="#DejaVuSans-31"/>
       <use xlink:href="#DejaVuSans-2e" x="63.623047"/>
       <use xlink:href="#DejaVuSans-35" x="95.410156"/>
      </g>
     </g>
    </g>
    <g id="xtick_5">
     <g id="line2d_9">
      <path d="M 684.036667 504.52 
L 684.036667 19.44 
" clip-path="url(#p4bd059e6d5)" style="fill: none; stroke: #b0b0b0; stroke-width: 0.8; stroke-linecap: square"/>
     </g>
     <g id="line2d_10">
      <g>
       <use xlink:href="#m9a14d7bea7" x="684.036667" y="504.52" style="stroke: #000000; stroke-width: 0.8"/>
      </g>
     </g>
     <g id="text_5">
      <!-- 2.0 -->
      <g transform="translate(669.723854 525.197188) scale(0.18 -0.18)">
       <defs>
        <path id="DejaVuSans-32" d="M 1228 531 
L 3431 531 
L 3431 0 
L 469 0 
L 469 531 
Q 828 903 1448 1529 
Q 2069 2156 2228 2338 
Q 2531 2678 2651 2914 
Q 2772 3150 2772 3378 
Q 2772 3750 2511 3984 
Q 2250 4219 1831 4219 
Q 1534 4219 1204 4116 
Q 875 4013 500 3803 
L 500 4441 
Q 881 4594 1212 4672 
Q 1544 4750 1819 4750 
Q 2544 4750 2975 4387 
Q 3406 4025 3406 3419 
Q 3406 3131 3298 2873 
Q 3191 2616 2906 2266 
Q 2828 2175 2409 1742 
Q 1991 1309 1228 531 
z
" transform="scale(0.015625)"/>
       </defs>
       <use xlink:href="#DejaVuSans-32"/>
       <use xlink:href="#DejaVuSans-2e" x="63.623047"/>
       <use xlink:href="#DejaVuSans-30" x="95.410156"/>
      </g>
     </g>
    </g>
    <g id="xtick_6">
     <g id="line2d_11">
      <path d="M 829.143333 504.52 
L 829.143333 19.44 
" clip-path="url(#p4bd059e6d5)" style="fill: none; stroke: #b0b0b0; stroke-width: 0.8; stroke-linecap: square"/>
     </g>
     <g id="line2d_12">
      <g>
       <use xlink:href="#m9a14d7bea7" x="829.143333" y="504.52" style="stroke: #000000; stroke-width: 0.8"/>
      </g>
     </g>
     <g id="text_6">
      <!-- 2.5 -->
      <g transform="translate(814.830521 525.197188) scale(0.18 -0.18)">
       <use xlink:href="#DejaVuSans-32"/>
       <use xlink:href="#DejaVuSans-2e" x="63.623047"/>
       <use xlink:href="#DejaVuSans-35" x="95.410156"/>
      </g>
     </g>
    </g>
    <g id="xtick_7">
     <g id="line2d_13">
      <path d="M 974.25 504.52 
L 974.25 19.44 
" clip-path="url(#p4bd059e6d5)" style="fill: none; stroke: #b0b0b0; stroke-width: 0.8; stroke-linecap: square"/>
     </g>
     <g id="line2d_14">
      <g>
       <use xlink:href="#m9a14d7bea7" x="974.25" y="504.52" style="stroke: #000000; stroke-width: 0.8"/>
      </g>
     </g>
     <g id="text_7">
      <!-- 3.0 -->
      <g transform="translate(959.937188 525.197188) scale(0.18 -0.18)">
       <defs>
        <path id="DejaVuSans-33" d="M 2597 2516 
Q 3050 2419 3304 2112 
Q 3559 1806 3559 1356 
Q 3559 666 3084 287 
Q 2609 -91 1734 -91 
Q 1441 -91 1130 -33 
Q 819 25 488 141 
L 488 750 
Q 750 597 1062 519 
Q 1375 441 1716 441 
Q 2309 441 2620 675 
Q 2931 909 2931 1356 
Q 2931 1769 2642 2001 
Q 2353 2234 1838 2234 
L 1294 2234 
L 1294 2753 
L 1863 2753 
Q 2328 2753 2575 2939 
Q 2822 3125 2822 3475 
Q 2822 3834 2567 4026 
Q 2313 4219 1838 4219 
Q 1578 4219 1281 4162 
Q 984 4106 628 3988 
L 628 4550 
Q 988 4650 1302 4700 
Q 1616 4750 1894 4750 
Q 2613 4750 3031 4423 
Q 3450 4097 3450 3541 
Q 3450 3153 3228 2886 
Q 3006 2619 2597 2516 
z
" transform="scale(0.015625)"/>
       </defs>
       <use xlink:href="#DejaVuSans-33"/>
       <use xlink:href="#DejaVuSans-2e" x="63.623047"/>
       <use xlink:href="#DejaVuSans-30" x="95.410156"/>
      </g>
     </g>
    </g>
    <g id="text_8">
     <!-- $r$ -->
     <g transform="translate(533.89 551.176875) scale(0.24 -0.24)">
      <defs>
       <path id="DejaVuSans-Oblique-72" d="M 2853 2969 
Q 2766 3016 2653 3041 
Q 2541 3066 2413 3066 
Q 1953 3066 1609 2717 
Q 1266 2369 1153 1784 
L 800 0 
L 225 0 
L 909 3500 
L 1484 3500 
L 1375 2956 
Q 1603 3259 1920 3421 
Q 2238 3584 2597 3584 
Q 2691 3584 2781 3573 
Q 2872 3563 2963 3538 
L 2853 2969 
z
" transform="scale(0.015625)"/>
      </defs>
      <use xlink:href="#DejaVuSans-Oblique-72"/>
     </g>
    </g>
   </g>
   <g id="matplotlib.axis_2">
    <g id="ytick_1">
     <g id="line2d_15">
      <path d="M 103.61 504.52 
L 974.25 504.52 
" clip-path="url(#p4bd059e6d5)" style="fill: none; stroke: #b0b0b0; stroke-width: 0.8; stroke-linecap: square"/>
     </g>
     <g id="line2d_16">
      <defs>
       <path id="m4b647b57b1" d="M 0 0 
L -3.5 0 
" style="stroke: #000000; stroke-width: 0.8"/>
      </defs>
      <g>
       <use xlink:href="#m4b647b57b1" x="103.61" y="504.52" style="stroke: #000000; stroke-width: 0.8"/>
      </g>
     </g>
     <g id="text_9">
      <!-- −200 -->
      <g transform="translate(47.169063 511.358594) scale(0.18 -0.18)">
       <defs>
        <path id="DejaVuSans-2212" d="M 678 2272 
L 4684 2272 
L 4684 1741 
L 678 1741 
L 678 2272 
z
" transform="scale(0.015625)"/>
       </defs>
       <use xlink:href="#DejaVuSans-2212"/>
       <use xlink:href="#DejaVuSans-32" x="83.789062"/>
       <use xlink:href="#DejaVuSans-30" x="147.412109"/>
       <use xlink:href="#DejaVuSans-30" x="211.035156"/>
      </g>
     </g>
    </g>
    <g id="ytick_2">
     <g id="line2d_17">
      <path d="M 103.61 403.074191 
L 974.25 403.074191 
" clip-path="url(#p4bd059e6d5)" style="fill: none; stroke: #b0b0b0; stroke-width: 0.8; stroke-linecap: square"/>
     </g>
     <g id="line2d_18">
      <g>
       <use xlink:href="#m4b647b57b1" x="103.61" y="403.074191" style="stroke: #000000; stroke-width: 0.8"/>
      </g>
     </g>
     <g id="text_10">
      <!-- 0 -->
      <g transform="translate(85.1575 409.912784) scale(0.18 -0.18)">
       <use xlink:href="#DejaVuSans-30"/>
      </g>
     </g>
    </g>
    <g id="ytick_3">
     <g id="line2d_19">
      <path d="M 103.61 301.628381 
L 974.25 301.628381 
" clip-path="url(#p4bd059e6d5)" style="fill: none; stroke: #b0b0b0; stroke-width: 0.8; stroke-linecap: square"/>
     </g>
     <g id="line2d_20">
      <g>
       <use xlink:href="#m4b647b57b1" x="103.61" y="301.628381" style="stroke: #000000; stroke-width: 0.8"/>
      </g>
     </g>
     <g id="text_11">
      <!-- 200 -->
      <g transform="translate(62.2525 308.466975) scale(0.18 -0.18)">
       <use xlink:href="#DejaVuSans-32"/>
       <use xlink:href="#DejaVuSans-30" x="63.623047"/>
       <use xlink:href="#DejaVuSans-30" x="127.246094"/>
      </g>
     </g>
    </g>
    <g id="ytick_4">
     <g id="line2d_21">
      <path d="M 103.61 200.182572 
L 974.25 200.182572 
" clip-path="url(#p4bd059e6d5)" style="fill: none; stroke: #b0b0b0; stroke-width: 0.8; stroke-linecap: square"/>
     </g>
     <g id="line2d_22">
      <g>
       <use xlink:href="#m4b647b57b1" x="103.61" y="200.182572" style="stroke: #000000; stroke-width: 0.8"/>
      </g>
     </g>
     <g id="text_12">
      <!-- 400 -->
      <g transform="translate(62.2525 207.021166) scale(0.18 -0.18)">
       <defs>
        <path id="DejaVuSans-34" d="M 2419 4116 
L 825 1625 
L 2419 1625 
L 2419 4116 
z
M 2253 4666 
L 3047 4666 
L 3047 1625 
L 3713 1625 
L 3713 1100 
L 3047 1100 
L 3047 0 
L 2419 0 
L 2419 1100 
L 313 1100 
L 313 1709 
L 2253 4666 
z
" transform="scale(0.015625)"/>
       </defs>
       <use xlink:href="#DejaVuSans-34"/>
       <use xlink:href="#DejaVuSans-30" x="63.623047"/>
       <use xlink:href="#DejaVuSans-30" x="127.246094"/>
      </g>
     </g>
    </g>
    <g id="ytick_5">
     <g id="line2d_23">
      <path d="M 103.61 98.736763 
L 974.25 98.736763 
" clip-path="url(#p4bd059e6d5)" style="fill: none; stroke: #b0b0b0; stroke-width: 0.8; stroke-linecap: square"/>
     </g>
     <g id="line2d_24">
      <g>
       <use xlink:href="#m4b647b57b1" x="103.61" y="98.736763" style="stroke: #000000; stroke-width: 0.8"/>
      </g>
     </g>
     <g id="text_13">
      <!-- 600 -->
      <g transform="translate(62.2525 105.575356) scale(0.18 -0.18)">
       <defs>
        <path id="DejaVuSans-36" d="M 2113 2584 
Q 1688 2584 1439 2293 
Q 1191 2003 1191 1497 
Q 1191 994 1439 701 
Q 1688 409 2113 409 
Q 2538 409 2786 701 
Q 3034 994 3034 1497 
Q 3034 2003 2786 2293 
Q 2538 2584 2113 2584 
z
M 3366 4563 
L 3366 3988 
Q 3128 4100 2886 4159 
Q 2644 4219 2406 4219 
Q 1781 4219 1451 3797 
Q 1122 3375 1075 2522 
Q 1259 2794 1537 2939 
Q 1816 3084 2150 3084 
Q 2853 3084 3261 2657 
Q 3669 2231 3669 1497 
Q 3669 778 3244 343 
Q 2819 -91 2113 -91 
Q 1303 -91 875 529 
Q 447 1150 447 2328 
Q 447 3434 972 4092 
Q 1497 4750 2381 4750 
Q 2619 4750 2861 4703 
Q 3103 4656 3366 4563 
z
" transform="scale(0.015625)"/>
       </defs>
       <use xlink:href="#DejaVuSans-36"/>
       <use xlink:href="#DejaVuSans-30" x="63.623047"/>
       <use xlink:href="#DejaVuSans-30" x="127.246094"/>
      </g>
     </g>
    </g>
    <g id="text_14">
     <!-- $\Delta G$ -->
     <g transform="translate(38.177813 279.5) rotate(-90) scale(0.24 -0.24)">
      <defs>
       <path id="DejaVuSans-394" d="M 2188 4044 
L 906 525 
L 3472 525 
L 2188 4044 
z
M 50 0 
L 1831 4666 
L 2547 4666 
L 4325 0 
L 50 0 
z
" transform="scale(0.015625)"/>
       <path id="DejaVuSans-Oblique-47" d="M 3494 697 
L 3738 1919 
L 2700 1919 
L 2797 2438 
L 4453 2438 
L 4050 384 
Q 3634 156 3143 32 
Q 2653 -91 2156 -91 
Q 1278 -91 783 396 
Q 288 884 288 1753 
Q 288 2475 589 3126 
Q 891 3778 1422 4213 
Q 1756 4484 2153 4617 
Q 2550 4750 3034 4750 
Q 3472 4750 3873 4639 
Q 4275 4528 4641 4306 
L 4513 3634 
Q 4231 3928 3853 4083 
Q 3475 4238 3047 4238 
Q 2550 4238 2172 4048 
Q 1794 3859 1497 3463 
Q 1244 3125 1098 2667 
Q 953 2209 953 1734 
Q 953 1081 1287 751 
Q 1622 422 2284 422 
Q 2616 422 2925 492 
Q 3234 563 3494 697 
z
" transform="scale(0.015625)"/>
      </defs>
      <use xlink:href="#DejaVuSans-394" transform="translate(0 0.78125)"/>
      <use xlink:href="#DejaVuSans-Oblique-47" transform="translate(68.408203 0.78125)"/>
     </g>
    </g>
   </g>
   <g id="line2d_25">
    <path d="M 132.631333 400.680321 
L 140.526518 399.376994 
L 149.549586 397.660877 
L 160.828421 395.281646 
L 196.356751 387.608601 
L 205.379819 385.984558 
L 213.275004 384.786209 
L 220.606247 383.903921 
L 227.373548 383.320872 
L 233.576907 383.008301 
L 239.216325 382.928694 
L 244.855742 383.062119 
L 250.49516 383.42621 
L 255.570635 383.965689 
L 260.646111 384.719149 
L 265.721587 385.699446 
L 270.797063 386.919438 
L 275.872538 388.391981 
L 280.384072 389.923318 
L 284.895607 391.67339 
L 289.407141 393.651224 
L 293.918675 395.865851 
L 298.430209 398.3263 
L 302.941743 401.041601 
L 307.453277 404.020782 
L 311.964811 407.272874 
L 316.476345 410.806906 
L 320.987879 414.631906 
L 325.499413 418.756906 
L 330.010947 423.190933 
L 334.522481 427.943018 
L 339.034015 433.02219 
L 343.545549 438.437479 
L 348.057083 444.197913 
L 352.568617 450.312522 
L 357.080151 456.790336 
L 361.591685 463.640385 
L 366.103219 470.871697 
L 370.614753 478.493302 
L 375.126287 486.514229 
L 379.637821 494.943509 
L 384.713297 504.925799 
L 389.788772 515.449194 
L 394.864248 526.52655 
L 399.939724 538.170724 
L 405.0152 550.394571 
L 410.090676 563.210948 
L 414.038268 573.597122 
L 414.038268 573.597122 
" clip-path="url(#p4bd059e6d5)" style="fill: none; stroke: #440154; stroke-width: 2; stroke-linecap: square"/>
   </g>
   <g id="line2d_26">
    <path d="M 132.631333 400.579713 
L 139.634827 399.342042 
L 147.33867 397.755928 
L 155.742862 395.795576 
L 165.547754 393.261881 
L 176.753343 390.12601 
L 193.561728 385.160305 
L 214.572209 378.989286 
L 225.777799 375.931677 
L 234.882341 373.660797 
L 243.286533 371.78629 
L 250.990376 370.293347 
L 257.99387 369.152395 
L 264.997364 368.243551 
L 271.300508 367.644949 
L 277.603652 367.273282 
L 283.206447 367.148332 
L 288.809242 367.23021 
L 294.412037 367.531865 
L 300.014832 368.066249 
L 305.617627 368.846313 
L 310.520073 369.740583 
L 315.422518 370.841543 
L 320.324964 372.157869 
L 325.227409 373.698236 
L 330.129855 375.471321 
L 335.0323 377.4858 
L 339.934746 379.750348 
L 344.837192 382.273641 
L 349.739637 385.064357 
L 354.642083 388.131169 
L 359.544528 391.482755 
L 364.446974 395.12779 
L 369.349419 399.074951 
L 374.251865 403.332913 
L 379.154311 407.910353 
L 384.056756 412.815946 
L 388.959202 418.058368 
L 393.861647 423.646295 
L 398.764093 429.588404 
L 403.666538 435.89337 
L 408.568984 442.569869 
L 413.47143 449.626577 
L 418.373875 457.07217 
L 423.276321 464.915324 
L 428.178766 473.164716 
L 433.081212 481.82902 
L 437.983657 490.916914 
L 442.886103 500.437073 
L 447.788549 510.398172 
L 452.690994 520.808889 
L 458.293789 533.268531 
L 463.896584 546.339711 
L 469.499379 560.035379 
L 475.102174 574.368486 
L 476.103702 577 
L 476.103702 577 
" clip-path="url(#p4bd059e6d5)" style="fill: none; stroke: #3b528b; stroke-width: 2; stroke-linecap: square"/>
   </g>
   <g id="line2d_27">
    <path d="M 132.631333 400.479106 
L 139.071923 399.265522 
L 146.432597 397.630427 
L 153.793271 395.74935 
L 161.153945 393.641809 
L 169.434703 391.024429 
L 177.715461 388.172917 
L 186.916304 384.763769 
L 197.037231 380.76497 
L 208.078242 376.163315 
L 221.879505 370.15783 
L 244.881612 359.853323 
L 264.203381 351.286571 
L 277.08456 345.807343 
L 288.125571 341.351706 
L 297.326414 337.858817 
L 306.527256 334.606717 
L 314.808014 331.917205 
L 322.168688 329.738648 
L 329.529362 327.780063 
L 336.890036 326.060967 
L 343.330626 324.768556 
L 349.771216 323.68752 
L 356.211806 322.830933 
L 362.652395 322.211871 
L 369.092985 321.843407 
L 374.613491 321.736948 
L 380.133996 321.83244 
L 385.654502 322.138119 
L 391.175007 322.662217 
L 396.695513 323.412968 
L 402.216018 324.398605 
L 407.736524 325.627362 
L 413.257029 327.107472 
L 418.777534 328.847169 
L 424.29804 330.854686 
L 429.818545 333.138257 
L 435.339051 335.706115 
L 440.859556 338.566494 
L 446.380062 341.727626 
L 450.980483 344.597586 
L 455.580904 347.686886 
L 460.181326 351.000289 
L 465.701831 355.2789 
L 471.222337 359.895315 
L 476.742842 364.857769 
L 482.263348 370.174494 
L 487.783853 375.853724 
L 493.304359 381.903693 
L 498.824864 388.332634 
L 504.34537 395.148781 
L 509.865875 402.360367 
L 515.386381 409.975625 
L 520.906886 418.002789 
L 526.427392 426.450093 
L 531.947897 435.32577 
L 537.468402 444.638053 
L 542.988908 454.395176 
L 548.509413 464.605372 
L 554.029919 475.276876 
L 559.550424 486.417919 
L 565.07093 498.036737 
L 570.591435 510.141561 
L 576.111941 522.740627 
L 581.632446 535.842167 
L 587.152952 549.454414 
L 591.753373 561.194017 
L 591.753373 561.194017 
" clip-path="url(#p4bd059e6d5)" style="fill: none; stroke: #21918c; stroke-width: 2; stroke-linecap: square"/>
   </g>
   <g id="line2d_28">
    <path d="M 132.631333 400.378498 
L 139.420287 399.00495 
L 146.20924 397.365572 
L 152.998194 395.467948 
L 159.787147 393.319663 
L 166.5761 390.928303 
L 173.365054 388.301454 
L 180.154007 385.4467 
L 186.942961 382.371626 
L 193.731914 379.083819 
L 200.520867 375.590864 
L 209.007059 370.947735 
L 217.493251 366.010729 
L 225.979443 360.79466 
L 234.465634 355.314345 
L 242.951826 349.584597 
L 251.438018 343.620232 
L 261.621448 336.174159 
L 271.804878 328.437172 
L 281.988308 320.434871 
L 293.868977 310.797679 
L 305.749645 300.874863 
L 319.327552 289.236907 
L 334.602697 275.837309 
L 353.272319 259.140411 
L 383.822609 231.451693 
L 410.978423 206.941097 
L 427.950807 191.896511 
L 443.225952 178.655169 
L 456.803858 167.195252 
L 468.684527 157.457068 
L 480.565195 148.031434 
L 490.748626 140.231899 
L 500.932056 132.71746 
L 511.115486 125.513717 
L 519.601678 119.766405 
L 528.087869 114.267447 
L 536.574061 109.031659 
L 545.060253 104.073856 
L 553.546445 99.408853 
L 562.032636 95.051465 
L 568.82159 91.796993 
L 575.610543 88.756461 
L 582.399497 85.937456 
L 589.18845 83.347561 
L 595.977403 80.994363 
L 602.766357 78.885447 
L 609.55531 77.028398 
L 616.344264 75.430801 
L 623.133217 74.100242 
L 629.92217 73.044306 
L 636.711124 72.270579 
L 643.500077 71.786645 
L 648.591792 71.618435 
L 653.683507 71.620701 
L 658.775222 71.796643 
L 663.866937 72.14946 
L 668.958652 72.682354 
L 674.050367 73.398523 
L 679.142083 74.301169 
L 684.233798 75.39349 
L 689.325513 76.678688 
L 694.417228 78.159962 
L 699.508943 79.840513 
L 704.600658 81.723539 
L 709.692373 83.812242 
L 714.784088 86.109822 
L 719.875803 88.619478 
L 724.967518 91.344411 
L 730.059233 94.287821 
L 735.150948 97.452907 
L 740.242663 100.84287 
L 745.334378 104.460909 
L 750.426093 108.310226 
L 755.517808 112.394019 
L 760.609523 116.71549 
L 765.701238 121.277837 
L 770.792954 126.084262 
L 775.884669 131.137964 
L 780.976384 136.442143 
L 786.068099 141.999999 
L 791.159814 147.814733 
L 796.251529 153.889544 
L 801.343244 160.227633 
L 808.132197 169.093491 
L 814.921151 178.440673 
L 821.710104 188.276763 
L 828.499057 198.609346 
L 835.288011 209.446009 
L 842.076964 220.794336 
L 848.865918 232.661913 
L 855.654871 245.056325 
L 862.443825 257.985158 
L 869.232778 271.455996 
L 876.021731 285.476425 
L 882.810685 300.054031 
L 889.599638 315.196398 
L 896.388592 330.911112 
L 903.177545 347.205758 
L 909.966498 364.087922 
L 916.755452 381.565189 
L 923.544405 399.645144 
L 930.333359 418.335373 
L 937.122312 437.643461 
L 943.911265 457.576993 
L 950.700219 478.143555 
L 957.489172 499.350731 
L 964.278126 521.206108 
L 971.067079 543.71727 
L 977.856032 566.891803 
L 979.553271 572.789977 
L 979.553271 572.789977 
" clip-path="url(#p4bd059e6d5)" style="fill: none; stroke: #5ec962; stroke-width: 2; stroke-linecap: square"/>
   </g>
   <g id="line2d_29">
    <path d="M 132.631333 400.279741 
L 137.723048 399.213166 
L 142.814763 397.974554 
L 149.603717 396.05546 
L 156.39267 393.830524 
L 163.181624 391.299747 
L 169.970577 388.463127 
L 176.75953 385.320665 
L 183.548484 381.87236 
L 190.337437 378.118214 
L 197.126391 374.058226 
L 203.915344 369.692396 
L 210.704298 365.020724 
L 217.493251 360.043209 
L 224.282204 354.759853 
L 231.071158 349.170655 
L 237.860111 343.275614 
L 244.649065 337.074732 
L 251.438018 330.568007 
L 258.226971 323.75544 
L 265.015925 316.637032 
L 271.804878 309.212781 
L 278.593832 301.482688 
L 285.382785 293.446754 
L 292.171738 285.104977 
L 298.960692 276.457358 
L 305.749645 267.503897 
L 312.538599 258.244594 
L 319.327552 248.679449 
L 327.813744 236.292927 
L 336.299936 223.428528 
L 344.786127 210.08625 
L 353.272319 196.266093 
L 361.758511 181.968059 
L 370.244703 167.192146 
L 378.730894 151.938356 
L 387.217086 136.206686 
L 395.703278 119.997139 
L 404.18947 103.309714 
L 412.675661 86.14441 
L 421.161853 68.501228 
L 429.648045 50.380168 
L 438.134237 31.78123 
L 446.620428 12.704414 
L 452.588365 -1 
L 452.588365 -1 
" clip-path="url(#p4bd059e6d5)" style="fill: none; stroke-dasharray: 7.4,3.2; stroke-dashoffset: 0; stroke: #ff0000; stroke-width: 2"/>
   </g>
   <g id="line2d_30">
    <path d="M 132.631333 403.172947 
L 149.603717 403.467297 
L 163.181624 403.928338 
L 175.062292 404.548073 
L 185.245722 405.272329 
L 195.429152 406.201812 
L 205.612582 407.362122 
L 215.796013 408.778859 
L 224.282204 410.173826 
L 232.768396 411.77946 
L 241.254588 413.610577 
L 249.74078 415.681993 
L 258.226971 418.008521 
L 266.713163 420.604978 
L 275.199355 423.486179 
L 281.988308 426.00611 
L 288.777262 428.725344 
L 295.566215 431.651466 
L 302.355168 434.792061 
L 309.144122 438.154715 
L 315.933075 441.747013 
L 322.722029 445.57654 
L 329.510982 449.650882 
L 336.299936 453.977624 
L 343.088889 458.564352 
L 349.877842 463.41865 
L 356.666796 468.548103 
L 363.455749 473.960298 
L 370.244703 479.66282 
L 377.033656 485.663254 
L 383.822609 491.969185 
L 390.611563 498.588198 
L 397.400516 505.527879 
L 404.18947 512.795814 
L 410.978423 520.399587 
L 417.767376 528.346783 
L 424.55633 536.644989 
L 431.345283 545.30179 
L 438.134237 554.32477 
L 444.92319 563.721515 
L 451.712143 573.499611 
L 454.077286 577 
L 454.077286 577 
" clip-path="url(#p4bd059e6d5)" style="fill: none; stroke-dasharray: 7.4,3.2; stroke-dashoffset: 0; stroke: #0000ff; stroke-width: 2"/>
   </g>
   <g id="line2d_31">
    <path d="M 651.074544 504.52 
L 651.074544 19.44 
" clip-path="url(#p4bd059e6d5)" style="fill: none; stroke-dasharray: 1.5,2.475; stroke-dashoffset: 0; stroke: #808080; stroke-width: 1.5"/>
   </g>
   <g id="line2d_32">
    <path d="M 103.61 71.598045 
L 974.25 71.598045 
" clip-path="url(#p4bd059e6d5)" style="fill: none; stroke-dasharray: 1.5,2.475; stroke-dashoffset: 0; stroke: #808080; stroke-width: 1.5"/>
   </g>
   <g id="patch_3">
    <path d="M 103.61 504.52 
L 103.61 19.44 
" style="fill: none; stroke: #000000; stroke-width: 0.8; stroke-linejoin: miter; stroke-linecap: square"/>
   </g>
   <g id="patch_4">
    <path d="M 974.25 504.52 
L 974.25 19.44 
" style="fill: none; stroke: #000000; stroke-width: 0.8; stroke-linejoin: miter; stroke-linecap: square"/>
   </g>
   <g id="patch_5">
    <path d="M 103.61 504.52 
L 974.25 504.52 
" style="fill: none; stroke: #000000; stroke-width: 0.8; stroke-linejoin: miter; stroke-linecap: square"/>
   </g>
   <g id="patch_6">
    <path d="M 103.61 19.44 
L 974.25 19.44 
" style="fill: none; stroke: #000000; stroke-width: 0.8; stroke-linejoin: miter; stroke-linecap: square"/>
   </g>
   <g id="text_15">
    <!-- $r^*$ -->
    <g style="fill: #808080" transform="translate(665.585211 98.286478) scale(0.14 -0.14)">
     <defs>
      <path id="DejaVuSans-2a" d="M 3009 3897 
L 1888 3291 
L 3009 2681 
L 2828 2375 
L 1778 3009 
L 1778 1831 
L 1422 1831 
L 1422 3009 
L 372 2375 
L 191 2681 
L 1313 3291 
L 191 3897 
L 372 4206 
L 1422 3572 
L 1422 4750 
L 1778 4750 
L 1778 3572 
L 2828 4206 
L 3009 3897 
z
" transform="scale(0.015625)"/>
     </defs>
     <use xlink:href="#DejaVuSans-Oblique-72" transform="translate(0 0.765625)"/>
     <use xlink:href="#DejaVuSans-2a" transform="translate(59.400872 39.046875) scale(0.7)"/>
    </g>
   </g>
   <g id="text_16">
    <!-- $\Delta G^*$ -->
    <g style="fill: #808080" transform="translate(577.701878 63.614192) scale(0.14 -0.14)">
     <use xlink:href="#DejaVuSans-394" transform="translate(0 0.765625)"/>
     <use xlink:href="#DejaVuSans-Oblique-47" transform="translate(68.408203 0.765625)"/>
     <use xlink:href="#DejaVuSans-2a" transform="translate(166.736654 39.046875) scale(0.7)"/>
    </g>
   </g>
   <g id="legend_1">
    <g id="patch_7">
     <path d="M 823.77 218.784375 
L 961.65 218.784375 
Q 965.25 218.784375 965.25 215.184375 
L 965.25 32.04 
Q 965.25 28.44 961.65 28.44 
L 823.77 28.44 
Q 820.17 28.44 820.17 32.04 
L 820.17 215.184375 
Q 820.17 218.784375 823.77 218.784375 
z
" style="fill: #ffffff; opacity: 0.8; stroke: #cccccc; stroke-linejoin: miter"/>
    </g>
    <g id="text_17">
     <!-- Temperature -->
     <g transform="translate(835.704844 49.317188) scale(0.18 -0.18)">
      <defs>
       <path id="DejaVuSans-54" d="M -19 4666 
L 3928 4666 
L 3928 4134 
L 2272 4134 
L 2272 0 
L 1638 0 
L 1638 4134 
L -19 4134 
L -19 4666 
z
" transform="scale(0.015625)"/>
       <path id="DejaVuSans-65" d="M 3597 1894 
L 3597 1613 
L 953 1613 
Q 991 1019 1311 708 
Q 1631 397 2203 397 
Q 2534 397 2845 478 
Q 3156 559 3463 722 
L 3463 178 
Q 3153 47 2828 -22 
Q 2503 -91 2169 -91 
Q 1331 -91 842 396 
Q 353 884 353 1716 
Q 353 2575 817 3079 
Q 1281 3584 2069 3584 
Q 2775 3584 3186 3129 
Q 3597 2675 3597 1894 
z
M 3022 2063 
Q 3016 2534 2758 2815 
Q 2500 3097 2075 3097 
Q 1594 3097 1305 2825 
Q 1016 2553 972 2059 
L 3022 2063 
z
" transform="scale(0.015625)"/>
       <path id="DejaVuSans-6d" d="M 3328 2828 
Q 3544 3216 3844 3400 
Q 4144 3584 4550 3584 
Q 5097 3584 5394 3201 
Q 5691 2819 5691 2113 
L 5691 0 
L 5113 0 
L 5113 2094 
Q 5113 2597 4934 2840 
Q 4756 3084 4391 3084 
Q 3944 3084 3684 2787 
Q 3425 2491 3425 1978 
L 3425 0 
L 2847 0 
L 2847 2094 
Q 2847 2600 2669 2842 
Q 2491 3084 2119 3084 
Q 1678 3084 1418 2786 
Q 1159 2488 1159 1978 
L 1159 0 
L 581 0 
L 581 3500 
L 1159 3500 
L 1159 2956 
Q 1356 3278 1631 3431 
Q 1906 3584 2284 3584 
Q 2666 3584 2933 3390 
Q 3200 3197 3328 2828 
z
" transform="scale(0.015625)"/>
       <path id="DejaVuSans-70" d="M 1159 525 
L 1159 -1331 
L 581 -1331 
L 581 3500 
L 1159 3500 
L 1159 2969 
Q 1341 3281 1617 3432 
Q 1894 3584 2278 3584 
Q 2916 3584 3314 3078 
Q 3713 2572 3713 1747 
Q 3713 922 3314 415 
Q 2916 -91 2278 -91 
Q 1894 -91 1617 61 
Q 1341 213 1159 525 
z
M 3116 1747 
Q 3116 2381 2855 2742 
Q 2594 3103 2138 3103 
Q 1681 3103 1420 2742 
Q 1159 2381 1159 1747 
Q 1159 1113 1420 752 
Q 1681 391 2138 391 
Q 2594 391 2855 752 
Q 3116 1113 3116 1747 
z
" transform="scale(0.015625)"/>
       <path id="DejaVuSans-72" d="M 2631 2963 
Q 2534 3019 2420 3045 
Q 2306 3072 2169 3072 
Q 1681 3072 1420 2755 
Q 1159 2438 1159 1844 
L 1159 0 
L 581 0 
L 581 3500 
L 1159 3500 
L 1159 2956 
Q 1341 3275 1631 3429 
Q 1922 3584 2338 3584 
Q 2397 3584 2469 3576 
Q 2541 3569 2628 3553 
L 2631 2963 
z
" transform="scale(0.015625)"/>
       <path id="DejaVuSans-61" d="M 2194 1759 
Q 1497 1759 1228 1600 
Q 959 1441 959 1056 
Q 959 750 1161 570 
Q 1363 391 1709 391 
Q 2188 391 2477 730 
Q 2766 1069 2766 1631 
L 2766 1759 
L 2194 1759 
z
M 3341 1997 
L 3341 0 
L 2766 0 
L 2766 531 
Q 2569 213 2275 61 
Q 1981 -91 1556 -91 
Q 1019 -91 701 211 
Q 384 513 384 1019 
Q 384 1609 779 1909 
Q 1175 2209 1959 2209 
L 2766 2209 
L 2766 2266 
Q 2766 2663 2505 2880 
Q 2244 3097 1772 3097 
Q 1472 3097 1187 3025 
Q 903 2953 641 2809 
L 641 3341 
Q 956 3463 1253 3523 
Q 1550 3584 1831 3584 
Q 2591 3584 2966 3190 
Q 3341 2797 3341 1997 
z
" transform="scale(0.015625)"/>
       <path id="DejaVuSans-74" d="M 1172 4494 
L 1172 3500 
L 2356 3500 
L 2356 3053 
L 1172 3053 
L 1172 1153 
Q 1172 725 1289 603 
Q 1406 481 1766 481 
L 2356 481 
L 2356 0 
L 1766 0 
Q 1100 0 847 248 
Q 594 497 594 1153 
L 594 3053 
L 172 3053 
L 172 3500 
L 594 3500 
L 594 4494 
L 1172 4494 
z
" transform="scale(0.015625)"/>
       <path id="DejaVuSans-75" d="M 544 1381 
L 544 3500 
L 1119 3500 
L 1119 1403 
Q 1119 906 1312 657 
Q 1506 409 1894 409 
Q 2359 409 2629 706 
Q 2900 1003 2900 1516 
L 2900 3500 
L 3475 3500 
L 3475 0 
L 2900 0 
L 2900 538 
Q 2691 219 2414 64 
Q 2138 -91 1772 -91 
Q 1169 -91 856 284 
Q 544 659 544 1381 
z
M 1991 3584 
L 1991 3584 
z
" transform="scale(0.015625)"/>
      </defs>
      <use xlink:href="#DejaVuSans-54"/>
      <use xlink:href="#DejaVuSans-65" x="44.083984"/>
      <use xlink:href="#DejaVuSans-6d" x="105.607422"/>
      <use xlink:href="#DejaVuSans-70" x="203.019531"/>
      <use xlink:href="#DejaVuSans-65" x="266.496094"/>
      <use xlink:href="#DejaVuSans-72" x="328.019531"/>
      <use xlink:href="#DejaVuSans-61" x="369.132812"/>
      <use xlink:href="#DejaVuSans-74" x="430.412109"/>
      <use xlink:href="#DejaVuSans-75" x="469.621094"/>
      <use xlink:href="#DejaVuSans-72" x="533"/>
      <use xlink:href="#DejaVuSans-65" x="571.863281"/>
     </g>
    </g>
    <g id="line2d_33">
     <path d="M 827.37 69.437813 
L 845.37 69.437813 
L 863.37 69.437813 
" style="fill: none; stroke: #440154; stroke-width: 2; stroke-linecap: square"/>
    </g>
    <g id="text_18">
     <!-- 5.0 °C -->
     <g transform="translate(877.77 75.737813) scale(0.18 -0.18)">
      <defs>
       <path id="DejaVuSans-20" transform="scale(0.015625)"/>
       <path id="DejaVuSans-b0" d="M 1600 4347 
Q 1350 4347 1178 4173 
Q 1006 4000 1006 3750 
Q 1006 3503 1178 3333 
Q 1350 3163 1600 3163 
Q 1850 3163 2022 3333 
Q 2194 3503 2194 3750 
Q 2194 3997 2020 4172 
Q 1847 4347 1600 4347 
z
M 1600 4750 
Q 1800 4750 1984 4673 
Q 2169 4597 2303 4453 
Q 2447 4313 2519 4134 
Q 2591 3956 2591 3750 
Q 2591 3338 2302 3052 
Q 2013 2766 1594 2766 
Q 1172 2766 890 3047 
Q 609 3328 609 3750 
Q 609 4169 896 4459 
Q 1184 4750 1600 4750 
z
" transform="scale(0.015625)"/>
       <path id="DejaVuSans-43" d="M 4122 4306 
L 4122 3641 
Q 3803 3938 3442 4084 
Q 3081 4231 2675 4231 
Q 1875 4231 1450 3742 
Q 1025 3253 1025 2328 
Q 1025 1406 1450 917 
Q 1875 428 2675 428 
Q 3081 428 3442 575 
Q 3803 722 4122 1019 
L 4122 359 
Q 3791 134 3420 21 
Q 3050 -91 2638 -91 
Q 1578 -91 968 557 
Q 359 1206 359 2328 
Q 359 3453 968 4101 
Q 1578 4750 2638 4750 
Q 3056 4750 3426 4639 
Q 3797 4528 4122 4306 
z
" transform="scale(0.015625)"/>
      </defs>
      <use xlink:href="#DejaVuSans-35"/>
      <use xlink:href="#DejaVuSans-2e" x="63.623047"/>
      <use xlink:href="#DejaVuSans-30" x="95.410156"/>
      <use xlink:href="#DejaVuSans-20" x="159.033203"/>
      <use xlink:href="#DejaVuSans-b0" x="190.820312"/>
      <use xlink:href="#DejaVuSans-43" x="240.820312"/>
     </g>
    </g>
    <g id="line2d_34">
     <path d="M 827.37 95.858437 
L 845.37 95.858437 
L 863.37 95.858437 
" style="fill: none; stroke: #3b528b; stroke-width: 2; stroke-linecap: square"/>
    </g>
    <g id="text_19">
     <!-- 15.0 °C -->
     <g transform="translate(877.77 102.158437) scale(0.18 -0.18)">
      <use xlink:href="#DejaVuSans-31"/>
      <use xlink:href="#DejaVuSans-35" x="63.623047"/>
      <use xlink:href="#DejaVuSans-2e" x="127.246094"/>
      <use xlink:href="#DejaVuSans-30" x="159.033203"/>
      <use xlink:href="#DejaVuSans-20" x="222.65625"/>
      <use xlink:href="#DejaVuSans-b0" x="254.443359"/>
      <use xlink:href="#DejaVuSans-43" x="304.443359"/>
     </g>
    </g>
    <g id="line2d_35">
     <path d="M 827.37 122.279063 
L 845.37 122.279063 
L 863.37 122.279063 
" style="fill: none; stroke: #21918c; stroke-width: 2; stroke-linecap: square"/>
    </g>
    <g id="text_20">
     <!-- 25.0 °C -->
     <g transform="translate(877.77 128.579063) scale(0.18 -0.18)">
      <use xlink:href="#DejaVuSans-32"/>
      <use xlink:href="#DejaVuSans-35" x="63.623047"/>
      <use xlink:href="#DejaVuSans-2e" x="127.246094"/>
      <use xlink:href="#DejaVuSans-30" x="159.033203"/>
      <use xlink:href="#DejaVuSans-20" x="222.65625"/>
      <use xlink:href="#DejaVuSans-b0" x="254.443359"/>
      <use xlink:href="#DejaVuSans-43" x="304.443359"/>
     </g>
    </g>
    <g id="line2d_36">
     <path d="M 827.37 148.699687 
L 845.37 148.699687 
L 863.37 148.699687 
" style="fill: none; stroke: #5ec962; stroke-width: 2; stroke-linecap: square"/>
    </g>
    <g id="text_21">
     <!-- 35.0 °C -->
     <g transform="translate(877.77 154.999687) scale(0.18 -0.18)">
      <use xlink:href="#DejaVuSans-33"/>
      <use xlink:href="#DejaVuSans-35" x="63.623047"/>
      <use xlink:href="#DejaVuSans-2e" x="127.246094"/>
      <use xlink:href="#DejaVuSans-30" x="159.033203"/>
      <use xlink:href="#DejaVuSans-20" x="222.65625"/>
      <use xlink:href="#DejaVuSans-b0" x="254.443359"/>
      <use xlink:href="#DejaVuSans-43" x="304.443359"/>
     </g>
    </g>
    <g id="line2d_37">
     <path d="M 827.37 175.120313 
L 845.37 175.120313 
L 863.37 175.120313 
" style="fill: none; stroke-dasharray: 7.4,3.2; stroke-dashoffset: 0; stroke: #ff0000; stroke-width: 2"/>
    </g>
    <g id="text_22">
     <!-- interface -->
     <g transform="translate(877.77 181.420313) scale(0.18 -0.18)">
      <defs>
       <path id="DejaVuSans-69" d="M 603 3500 
L 1178 3500 
L 1178 0 
L 603 0 
L 603 3500 
z
M 603 4863 
L 1178 4863 
L 1178 4134 
L 603 4134 
L 603 4863 
z
" transform="scale(0.015625)"/>
       <path id="DejaVuSans-6e" d="M 3513 2113 
L 3513 0 
L 2938 0 
L 2938 2094 
Q 2938 2591 2744 2837 
Q 2550 3084 2163 3084 
Q 1697 3084 1428 2787 
Q 1159 2491 1159 1978 
L 1159 0 
L 581 0 
L 581 3500 
L 1159 3500 
L 1159 2956 
Q 1366 3272 1645 3428 
Q 1925 3584 2291 3584 
Q 2894 3584 3203 3211 
Q 3513 2838 3513 2113 
z
" transform="scale(0.015625)"/>
       <path id="DejaVuSans-66" d="M 2375 4863 
L 2375 4384 
L 1825 4384 
Q 1516 4384 1395 4259 
Q 1275 4134 1275 3809 
L 1275 3500 
L 2222 3500 
L 2222 3053 
L 1275 3053 
L 1275 0 
L 697 0 
L 697 3053 
L 147 3053 
L 147 3500 
L 697 3500 
L 697 3744 
Q 697 4328 969 4595 
Q 1241 4863 1831 4863 
L 2375 4863 
z
" transform="scale(0.015625)"/>
       <path id="DejaVuSans-63" d="M 3122 3366 
L 3122 2828 
Q 2878 2963 2633 3030 
Q 2388 3097 2138 3097 
Q 1578 3097 1268 2742 
Q 959 2388 959 1747 
Q 959 1106 1268 751 
Q 1578 397 2138 397 
Q 2388 397 2633 464 
Q 2878 531 3122 666 
L 3122 134 
Q 2881 22 2623 -34 
Q 2366 -91 2075 -91 
Q 1284 -91 818 406 
Q 353 903 353 1747 
Q 353 2603 823 3093 
Q 1294 3584 2113 3584 
Q 2378 3584 2631 3529 
Q 2884 3475 3122 3366 
z
" transform="scale(0.015625)"/>
      </defs>
      <use xlink:href="#DejaVuSans-69"/>
      <use xlink:href="#DejaVuSans-6e" x="27.783203"/>
      <use xlink:href="#DejaVuSans-74" x="91.162109"/>
      <use xlink:href="#DejaVuSans-65" x="130.371094"/>
      <use xlink:href="#DejaVuSans-72" x="191.894531"/>
      <use xlink:href="#DejaVuSans-66" x="233.007812"/>
      <use xlink:href="#DejaVuSans-61" x="268.212891"/>
      <use xlink:href="#DejaVuSans-63" x="329.492188"/>
      <use xlink:href="#DejaVuSans-65" x="384.472656"/>
     </g>
    </g>
    <g id="line2d_38">
     <path d="M 827.37 201.540937 
L 845.37 201.540937 
L 863.37 201.540937 
" style="fill: none; stroke-dasharray: 7.4,3.2; stroke-dashoffset: 0; stroke: #0000ff; stroke-width: 2"/>
    </g>
    <g id="text_23">
     <!-- volume -->
     <g transform="translate(877.77 207.840937) scale(0.18 -0.18)">
      <defs>
       <path id="DejaVuSans-76" d="M 191 3500 
L 800 3500 
L 1894 563 
L 2988 3500 
L 3597 3500 
L 2284 0 
L 1503 0 
L 191 3500 
z
" transform="scale(0.015625)"/>
       <path id="DejaVuSans-6f" d="M 1959 3097 
Q 1497 3097 1228 2736 
Q 959 2375 959 1747 
Q 959 1119 1226 758 
Q 1494 397 1959 397 
Q 2419 397 2687 759 
Q 2956 1122 2956 1747 
Q 2956 2369 2687 2733 
Q 2419 3097 1959 3097 
z
M 1959 3584 
Q 2709 3584 3137 3096 
Q 3566 2609 3566 1747 
Q 3566 888 3137 398 
Q 2709 -91 1959 -91 
Q 1206 -91 779 398 
Q 353 888 353 1747 
Q 353 2609 779 3096 
Q 1206 3584 1959 3584 
z
" transform="scale(0.015625)"/>
       <path id="DejaVuSans-6c" d="M 603 4863 
L 1178 4863 
L 1178 0 
L 603 0 
L 603 4863 
z
" transform="scale(0.015625)"/>
      </defs>
      <use xlink:href="#DejaVuSans-76"/>
      <use xlink:href="#DejaVuSans-6f" x="59.179688"/>
      <use xlink:href="#DejaVuSans-6c" x="120.361328"/>
      <use xlink:href="#DejaVuSans-75" x="148.144531"/>
      <use xlink:href="#DejaVuSans-6d" x="211.523438"/>
      <use xlink:href="#DejaVuSans-65" x="308.935547"/>
     </g>
    </g>
   </g>
  </g>
 </g>
 <defs>
  <clipPath id="p4bd059e6d5">
   <rect x="103.61" y="19.44" width="870.64" height="485.08"/>
  </clipPath>
 </defs>
</svg>
